G04 #@! TF.FileFunction,Legend,Bot*
%FSLAX46Y46*%
G04 Gerber Fmt 4.6, Leading zero omitted, Abs format (unit mm)*
G04 Created by KiCad (PCBNEW 4.0.2-stable) date Saturday, September 10, 2016 'AMt' 11:06:01 AM*
%MOMM*%
G01*
G04 APERTURE LIST*
%ADD10C,0.100000*%
%ADD11C,0.250000*%
%ADD12C,0.010000*%
%ADD13C,0.150000*%
G04 APERTURE END LIST*
D10*
D11*
X144835619Y-123124191D02*
X145835619Y-123124191D01*
X144835619Y-122695619D02*
X145359429Y-122695619D01*
X145454667Y-122743238D01*
X145502286Y-122838476D01*
X145502286Y-122981334D01*
X145454667Y-123076572D01*
X145407048Y-123124191D01*
X145502286Y-122362286D02*
X145502286Y-121981334D01*
X145835619Y-122219429D02*
X144978476Y-122219429D01*
X144883238Y-122171810D01*
X144835619Y-122076572D01*
X144835619Y-121981334D01*
X145502286Y-121790857D02*
X145502286Y-121409905D01*
X145835619Y-121648000D02*
X144978476Y-121648000D01*
X144883238Y-121600381D01*
X144835619Y-121505143D01*
X144835619Y-121409905D01*
X145502286Y-121076571D02*
X144502286Y-121076571D01*
X145454667Y-121076571D02*
X145502286Y-120981333D01*
X145502286Y-120790856D01*
X145454667Y-120695618D01*
X145407048Y-120647999D01*
X145311810Y-120600380D01*
X145026095Y-120600380D01*
X144930857Y-120647999D01*
X144883238Y-120695618D01*
X144835619Y-120790856D01*
X144835619Y-120981333D01*
X144883238Y-121076571D01*
X144883238Y-120219428D02*
X144835619Y-120124190D01*
X144835619Y-119933714D01*
X144883238Y-119838475D01*
X144978476Y-119790856D01*
X145026095Y-119790856D01*
X145121333Y-119838475D01*
X145168952Y-119933714D01*
X145168952Y-120076571D01*
X145216571Y-120171809D01*
X145311810Y-120219428D01*
X145359429Y-120219428D01*
X145454667Y-120171809D01*
X145502286Y-120076571D01*
X145502286Y-119933714D01*
X145454667Y-119838475D01*
X144930857Y-119362285D02*
X144883238Y-119314666D01*
X144835619Y-119362285D01*
X144883238Y-119409904D01*
X144930857Y-119362285D01*
X144835619Y-119362285D01*
X145454667Y-119362285D02*
X145407048Y-119314666D01*
X145359429Y-119362285D01*
X145407048Y-119409904D01*
X145454667Y-119362285D01*
X145359429Y-119362285D01*
X145883238Y-118171809D02*
X144597524Y-119028952D01*
X145883238Y-117124190D02*
X144597524Y-117981333D01*
X145502286Y-116362285D02*
X144692762Y-116362285D01*
X144597524Y-116409904D01*
X144549905Y-116457523D01*
X144502286Y-116552762D01*
X144502286Y-116695619D01*
X144549905Y-116790857D01*
X144883238Y-116362285D02*
X144835619Y-116457523D01*
X144835619Y-116648000D01*
X144883238Y-116743238D01*
X144930857Y-116790857D01*
X145026095Y-116838476D01*
X145311810Y-116838476D01*
X145407048Y-116790857D01*
X145454667Y-116743238D01*
X145502286Y-116648000D01*
X145502286Y-116457523D01*
X145454667Y-116362285D01*
X144835619Y-115886095D02*
X145502286Y-115886095D01*
X145835619Y-115886095D02*
X145788000Y-115933714D01*
X145740381Y-115886095D01*
X145788000Y-115838476D01*
X145835619Y-115886095D01*
X145740381Y-115886095D01*
X145502286Y-115552762D02*
X145502286Y-115171810D01*
X145835619Y-115409905D02*
X144978476Y-115409905D01*
X144883238Y-115362286D01*
X144835619Y-115267048D01*
X144835619Y-115171810D01*
X144835619Y-114838476D02*
X145835619Y-114838476D01*
X144835619Y-114409904D02*
X145359429Y-114409904D01*
X145454667Y-114457523D01*
X145502286Y-114552761D01*
X145502286Y-114695619D01*
X145454667Y-114790857D01*
X145407048Y-114838476D01*
X145502286Y-113505142D02*
X144835619Y-113505142D01*
X145502286Y-113933714D02*
X144978476Y-113933714D01*
X144883238Y-113886095D01*
X144835619Y-113790857D01*
X144835619Y-113647999D01*
X144883238Y-113552761D01*
X144930857Y-113505142D01*
X144835619Y-113028952D02*
X145835619Y-113028952D01*
X145454667Y-113028952D02*
X145502286Y-112933714D01*
X145502286Y-112743237D01*
X145454667Y-112647999D01*
X145407048Y-112600380D01*
X145311810Y-112552761D01*
X145026095Y-112552761D01*
X144930857Y-112600380D01*
X144883238Y-112647999D01*
X144835619Y-112743237D01*
X144835619Y-112933714D01*
X144883238Y-113028952D01*
X144930857Y-112124190D02*
X144883238Y-112076571D01*
X144835619Y-112124190D01*
X144883238Y-112171809D01*
X144930857Y-112124190D01*
X144835619Y-112124190D01*
X144883238Y-111219428D02*
X144835619Y-111314666D01*
X144835619Y-111505143D01*
X144883238Y-111600381D01*
X144930857Y-111648000D01*
X145026095Y-111695619D01*
X145311810Y-111695619D01*
X145407048Y-111648000D01*
X145454667Y-111600381D01*
X145502286Y-111505143D01*
X145502286Y-111314666D01*
X145454667Y-111219428D01*
X144835619Y-110648000D02*
X144883238Y-110743238D01*
X144930857Y-110790857D01*
X145026095Y-110838476D01*
X145311810Y-110838476D01*
X145407048Y-110790857D01*
X145454667Y-110743238D01*
X145502286Y-110648000D01*
X145502286Y-110505142D01*
X145454667Y-110409904D01*
X145407048Y-110362285D01*
X145311810Y-110314666D01*
X145026095Y-110314666D01*
X144930857Y-110362285D01*
X144883238Y-110409904D01*
X144835619Y-110505142D01*
X144835619Y-110648000D01*
X144835619Y-109886095D02*
X145502286Y-109886095D01*
X145407048Y-109886095D02*
X145454667Y-109838476D01*
X145502286Y-109743238D01*
X145502286Y-109600380D01*
X145454667Y-109505142D01*
X145359429Y-109457523D01*
X144835619Y-109457523D01*
X145359429Y-109457523D02*
X145454667Y-109409904D01*
X145502286Y-109314666D01*
X145502286Y-109171809D01*
X145454667Y-109076571D01*
X145359429Y-109028952D01*
X144835619Y-109028952D01*
X145883238Y-107838476D02*
X144597524Y-108695619D01*
X144835619Y-107505143D02*
X145835619Y-107505143D01*
X145835619Y-107267048D01*
X145788000Y-107124190D01*
X145692762Y-107028952D01*
X145597524Y-106981333D01*
X145407048Y-106933714D01*
X145264190Y-106933714D01*
X145073714Y-106981333D01*
X144978476Y-107028952D01*
X144883238Y-107124190D01*
X144835619Y-107267048D01*
X144835619Y-107505143D01*
X145121333Y-106552762D02*
X145121333Y-106076571D01*
X144835619Y-106648000D02*
X145835619Y-106314667D01*
X144835619Y-105981333D01*
X144835619Y-105648000D02*
X145835619Y-105648000D01*
X145216571Y-105171810D02*
X145216571Y-104409905D01*
X144835619Y-103933715D02*
X145835619Y-103933715D01*
X145121333Y-103600381D01*
X145835619Y-103267048D01*
X144835619Y-103267048D01*
X144835619Y-102362286D02*
X145359429Y-102362286D01*
X145454667Y-102409905D01*
X145502286Y-102505143D01*
X145502286Y-102695620D01*
X145454667Y-102790858D01*
X144883238Y-102362286D02*
X144835619Y-102457524D01*
X144835619Y-102695620D01*
X144883238Y-102790858D01*
X144978476Y-102838477D01*
X145073714Y-102838477D01*
X145168952Y-102790858D01*
X145216571Y-102695620D01*
X145216571Y-102457524D01*
X145264190Y-102362286D01*
X144835619Y-101886096D02*
X145835619Y-101886096D01*
X145216571Y-101790858D02*
X144835619Y-101505143D01*
X145502286Y-101505143D02*
X145121333Y-101886096D01*
X144883238Y-100695619D02*
X144835619Y-100790857D01*
X144835619Y-100981334D01*
X144883238Y-101076572D01*
X144978476Y-101124191D01*
X145359429Y-101124191D01*
X145454667Y-101076572D01*
X145502286Y-100981334D01*
X145502286Y-100790857D01*
X145454667Y-100695619D01*
X145359429Y-100648000D01*
X145264190Y-100648000D01*
X145168952Y-101124191D01*
X144835619Y-100219429D02*
X145502286Y-100219429D01*
X145311810Y-100219429D02*
X145407048Y-100171810D01*
X145454667Y-100124191D01*
X145502286Y-100028953D01*
X145502286Y-99933714D01*
X145216571Y-99600381D02*
X145216571Y-98838476D01*
X144835619Y-97886095D02*
X144835619Y-98362286D01*
X145835619Y-98362286D01*
X144835619Y-97124190D02*
X145359429Y-97124190D01*
X145454667Y-97171809D01*
X145502286Y-97267047D01*
X145502286Y-97457524D01*
X145454667Y-97552762D01*
X144883238Y-97124190D02*
X144835619Y-97219428D01*
X144835619Y-97457524D01*
X144883238Y-97552762D01*
X144978476Y-97600381D01*
X145073714Y-97600381D01*
X145168952Y-97552762D01*
X145216571Y-97457524D01*
X145216571Y-97219428D01*
X145264190Y-97124190D01*
X144835619Y-96648000D02*
X145835619Y-96648000D01*
X145454667Y-96648000D02*
X145502286Y-96552762D01*
X145502286Y-96362285D01*
X145454667Y-96267047D01*
X145407048Y-96219428D01*
X145311810Y-96171809D01*
X145026095Y-96171809D01*
X144930857Y-96219428D01*
X144883238Y-96267047D01*
X144835619Y-96362285D01*
X144835619Y-96552762D01*
X144883238Y-96648000D01*
X145883238Y-95028952D02*
X144597524Y-95886095D01*
X145502286Y-94838476D02*
X145502286Y-94457524D01*
X145835619Y-94695619D02*
X144978476Y-94695619D01*
X144883238Y-94648000D01*
X144835619Y-94552762D01*
X144835619Y-94457524D01*
X144883238Y-93743237D02*
X144835619Y-93838475D01*
X144835619Y-94028952D01*
X144883238Y-94124190D01*
X144978476Y-94171809D01*
X145359429Y-94171809D01*
X145454667Y-94124190D01*
X145502286Y-94028952D01*
X145502286Y-93838475D01*
X145454667Y-93743237D01*
X145359429Y-93695618D01*
X145264190Y-93695618D01*
X145168952Y-94171809D01*
X145502286Y-93267047D02*
X144502286Y-93267047D01*
X145454667Y-93267047D02*
X145502286Y-93171809D01*
X145502286Y-92981332D01*
X145454667Y-92886094D01*
X145407048Y-92838475D01*
X145311810Y-92790856D01*
X145026095Y-92790856D01*
X144930857Y-92838475D01*
X144883238Y-92886094D01*
X144835619Y-92981332D01*
X144835619Y-93171809D01*
X144883238Y-93267047D01*
X144835619Y-92362285D02*
X145502286Y-92362285D01*
X145407048Y-92362285D02*
X145454667Y-92314666D01*
X145502286Y-92219428D01*
X145502286Y-92076570D01*
X145454667Y-91981332D01*
X145359429Y-91933713D01*
X144835619Y-91933713D01*
X145359429Y-91933713D02*
X145454667Y-91886094D01*
X145502286Y-91790856D01*
X145502286Y-91647999D01*
X145454667Y-91552761D01*
X145359429Y-91505142D01*
X144835619Y-91505142D01*
X144835619Y-90600380D02*
X145359429Y-90600380D01*
X145454667Y-90647999D01*
X145502286Y-90743237D01*
X145502286Y-90933714D01*
X145454667Y-91028952D01*
X144883238Y-90600380D02*
X144835619Y-90695618D01*
X144835619Y-90933714D01*
X144883238Y-91028952D01*
X144978476Y-91076571D01*
X145073714Y-91076571D01*
X145168952Y-91028952D01*
X145216571Y-90933714D01*
X145216571Y-90695618D01*
X145264190Y-90600380D01*
X144883238Y-89695618D02*
X144835619Y-89790856D01*
X144835619Y-89981333D01*
X144883238Y-90076571D01*
X144930857Y-90124190D01*
X145026095Y-90171809D01*
X145311810Y-90171809D01*
X145407048Y-90124190D01*
X145454667Y-90076571D01*
X145502286Y-89981333D01*
X145502286Y-89790856D01*
X145454667Y-89695618D01*
X144835619Y-89267047D02*
X145835619Y-89267047D01*
X144835619Y-88838475D02*
X145359429Y-88838475D01*
X145454667Y-88886094D01*
X145502286Y-88981332D01*
X145502286Y-89124190D01*
X145454667Y-89219428D01*
X145407048Y-89267047D01*
X144883238Y-87933713D02*
X144835619Y-88028951D01*
X144835619Y-88219428D01*
X144883238Y-88314666D01*
X144930857Y-88362285D01*
X145026095Y-88409904D01*
X145311810Y-88409904D01*
X145407048Y-88362285D01*
X145454667Y-88314666D01*
X145502286Y-88219428D01*
X145502286Y-88028951D01*
X145454667Y-87933713D01*
X144835619Y-87505142D02*
X145835619Y-87505142D01*
X144835619Y-87076570D02*
X145359429Y-87076570D01*
X145454667Y-87124189D01*
X145502286Y-87219427D01*
X145502286Y-87362285D01*
X145454667Y-87457523D01*
X145407048Y-87505142D01*
X144835619Y-86171808D02*
X145359429Y-86171808D01*
X145454667Y-86219427D01*
X145502286Y-86314665D01*
X145502286Y-86505142D01*
X145454667Y-86600380D01*
X144883238Y-86171808D02*
X144835619Y-86267046D01*
X144835619Y-86505142D01*
X144883238Y-86600380D01*
X144978476Y-86647999D01*
X145073714Y-86647999D01*
X145168952Y-86600380D01*
X145216571Y-86505142D01*
X145216571Y-86267046D01*
X145264190Y-86171808D01*
X168425286Y-104632143D02*
X167758619Y-104394048D01*
X168425286Y-104155952D01*
X168758619Y-103584524D02*
X168758619Y-103489285D01*
X168711000Y-103394047D01*
X168663381Y-103346428D01*
X168568143Y-103298809D01*
X168377667Y-103251190D01*
X168139571Y-103251190D01*
X167949095Y-103298809D01*
X167853857Y-103346428D01*
X167806238Y-103394047D01*
X167758619Y-103489285D01*
X167758619Y-103584524D01*
X167806238Y-103679762D01*
X167853857Y-103727381D01*
X167949095Y-103775000D01*
X168139571Y-103822619D01*
X168377667Y-103822619D01*
X168568143Y-103775000D01*
X168663381Y-103727381D01*
X168711000Y-103679762D01*
X168758619Y-103584524D01*
X167853857Y-102822619D02*
X167806238Y-102775000D01*
X167758619Y-102822619D01*
X167806238Y-102870238D01*
X167853857Y-102822619D01*
X167758619Y-102822619D01*
X168758619Y-102441667D02*
X168758619Y-101822619D01*
X168377667Y-102155953D01*
X168377667Y-102013095D01*
X168330048Y-101917857D01*
X168282429Y-101870238D01*
X168187190Y-101822619D01*
X167949095Y-101822619D01*
X167853857Y-101870238D01*
X167806238Y-101917857D01*
X167758619Y-102013095D01*
X167758619Y-102298810D01*
X167806238Y-102394048D01*
X167853857Y-102441667D01*
X166632429Y-104203571D02*
X166632429Y-104536905D01*
X166108619Y-104536905D02*
X167108619Y-104536905D01*
X167108619Y-104060714D01*
X166108619Y-103536905D02*
X166156238Y-103632143D01*
X166251476Y-103679762D01*
X167108619Y-103679762D01*
X166108619Y-103013095D02*
X166156238Y-103108333D01*
X166203857Y-103155952D01*
X166299095Y-103203571D01*
X166584810Y-103203571D01*
X166680048Y-103155952D01*
X166727667Y-103108333D01*
X166775286Y-103013095D01*
X166775286Y-102870237D01*
X166727667Y-102774999D01*
X166680048Y-102727380D01*
X166584810Y-102679761D01*
X166299095Y-102679761D01*
X166203857Y-102727380D01*
X166156238Y-102774999D01*
X166108619Y-102870237D01*
X166108619Y-103013095D01*
X166108619Y-102108333D02*
X166156238Y-102203571D01*
X166203857Y-102251190D01*
X166299095Y-102298809D01*
X166584810Y-102298809D01*
X166680048Y-102251190D01*
X166727667Y-102203571D01*
X166775286Y-102108333D01*
X166775286Y-101965475D01*
X166727667Y-101870237D01*
X166680048Y-101822618D01*
X166584810Y-101774999D01*
X166299095Y-101774999D01*
X166203857Y-101822618D01*
X166156238Y-101870237D01*
X166108619Y-101965475D01*
X166108619Y-102108333D01*
X166108619Y-100917856D02*
X167108619Y-100917856D01*
X166156238Y-100917856D02*
X166108619Y-101013094D01*
X166108619Y-101203571D01*
X166156238Y-101298809D01*
X166203857Y-101346428D01*
X166299095Y-101394047D01*
X166584810Y-101394047D01*
X166680048Y-101346428D01*
X166727667Y-101298809D01*
X166775286Y-101203571D01*
X166775286Y-101013094D01*
X166727667Y-100917856D01*
X166632429Y-99679761D02*
X166632429Y-99346427D01*
X166108619Y-99203570D02*
X166108619Y-99679761D01*
X167108619Y-99679761D01*
X167108619Y-99203570D01*
X166108619Y-98346427D02*
X166632429Y-98346427D01*
X166727667Y-98394046D01*
X166775286Y-98489284D01*
X166775286Y-98679761D01*
X166727667Y-98774999D01*
X166156238Y-98346427D02*
X166108619Y-98441665D01*
X166108619Y-98679761D01*
X166156238Y-98774999D01*
X166251476Y-98822618D01*
X166346714Y-98822618D01*
X166441952Y-98774999D01*
X166489571Y-98679761D01*
X166489571Y-98441665D01*
X166537190Y-98346427D01*
X166108619Y-97870237D02*
X166775286Y-97870237D01*
X166584810Y-97870237D02*
X166680048Y-97822618D01*
X166727667Y-97774999D01*
X166775286Y-97679761D01*
X166775286Y-97584522D01*
X166108619Y-97108332D02*
X166156238Y-97203570D01*
X166251476Y-97251189D01*
X167108619Y-97251189D01*
X166775286Y-96822617D02*
X166108619Y-96584522D01*
X166775286Y-96346426D02*
X166108619Y-96584522D01*
X165870524Y-96679760D01*
X165822905Y-96727379D01*
X165775286Y-96822617D01*
X167108619Y-95298807D02*
X166108619Y-95060712D01*
X166822905Y-94870235D01*
X166108619Y-94679759D01*
X167108619Y-94441664D01*
X166108619Y-93632140D02*
X166632429Y-93632140D01*
X166727667Y-93679759D01*
X166775286Y-93774997D01*
X166775286Y-93965474D01*
X166727667Y-94060712D01*
X166156238Y-93632140D02*
X166108619Y-93727378D01*
X166108619Y-93965474D01*
X166156238Y-94060712D01*
X166251476Y-94108331D01*
X166346714Y-94108331D01*
X166441952Y-94060712D01*
X166489571Y-93965474D01*
X166489571Y-93727378D01*
X166537190Y-93632140D01*
X166108619Y-93155950D02*
X166775286Y-93155950D01*
X166584810Y-93155950D02*
X166680048Y-93108331D01*
X166727667Y-93060712D01*
X166775286Y-92965474D01*
X166775286Y-92870235D01*
X166775286Y-92536902D02*
X166108619Y-92536902D01*
X166680048Y-92536902D02*
X166727667Y-92489283D01*
X166775286Y-92394045D01*
X166775286Y-92251187D01*
X166727667Y-92155949D01*
X166632429Y-92108330D01*
X166108619Y-92108330D01*
X166108619Y-91632140D02*
X166775286Y-91632140D01*
X167108619Y-91632140D02*
X167061000Y-91679759D01*
X167013381Y-91632140D01*
X167061000Y-91584521D01*
X167108619Y-91632140D01*
X167013381Y-91632140D01*
X166775286Y-91155950D02*
X166108619Y-91155950D01*
X166680048Y-91155950D02*
X166727667Y-91108331D01*
X166775286Y-91013093D01*
X166775286Y-90870235D01*
X166727667Y-90774997D01*
X166632429Y-90727378D01*
X166108619Y-90727378D01*
X166775286Y-89822616D02*
X165965762Y-89822616D01*
X165870524Y-89870235D01*
X165822905Y-89917854D01*
X165775286Y-90013093D01*
X165775286Y-90155950D01*
X165822905Y-90251188D01*
X166156238Y-89822616D02*
X166108619Y-89917854D01*
X166108619Y-90108331D01*
X166156238Y-90203569D01*
X166203857Y-90251188D01*
X166299095Y-90298807D01*
X166584810Y-90298807D01*
X166680048Y-90251188D01*
X166727667Y-90203569D01*
X166775286Y-90108331D01*
X166775286Y-89917854D01*
X166727667Y-89822616D01*
D12*
G36*
X165757046Y-108658301D02*
X165673126Y-108612186D01*
X165490988Y-108590581D01*
X165176044Y-108585010D01*
X165155456Y-108585000D01*
X164739133Y-108608301D01*
X164464847Y-108686786D01*
X164310671Y-108833330D01*
X164254682Y-109060806D01*
X164253334Y-109114688D01*
X164303774Y-109306399D01*
X164469668Y-109497546D01*
X164772880Y-109712383D01*
X164815662Y-109738568D01*
X164890865Y-109797861D01*
X164839420Y-109822910D01*
X164640527Y-109823425D01*
X164634334Y-109823234D01*
X164410934Y-109830532D01*
X164305076Y-109886992D01*
X164269294Y-109997960D01*
X164307517Y-110194422D01*
X164417461Y-110357793D01*
X164643352Y-110495992D01*
X164810723Y-110517069D01*
X164810723Y-110271649D01*
X164700909Y-110256082D01*
X164699598Y-110227180D01*
X164812915Y-110206969D01*
X164861875Y-110220496D01*
X164893946Y-110258091D01*
X164810723Y-110271649D01*
X164810723Y-110517069D01*
X164897398Y-110527985D01*
X165117655Y-110453362D01*
X165204316Y-110363000D01*
X165383870Y-110222842D01*
X165549589Y-110193666D01*
X165719799Y-110171170D01*
X165768022Y-110077175D01*
X165762056Y-110003166D01*
X165697517Y-109858779D01*
X165530056Y-109816002D01*
X165502213Y-109816001D01*
X165299860Y-109769984D01*
X165225268Y-109680209D01*
X165126129Y-109552338D01*
X164936248Y-109410952D01*
X164884291Y-109381235D01*
X164693235Y-109245334D01*
X164611136Y-109116187D01*
X164611626Y-109093693D01*
X164690877Y-109003843D01*
X164844003Y-108946238D01*
X165001760Y-108933777D01*
X165094908Y-108979359D01*
X165100000Y-109002709D01*
X165169806Y-109069846D01*
X165333510Y-109090598D01*
X165522544Y-109066312D01*
X165668339Y-108998337D01*
X165675734Y-108991400D01*
X165765204Y-108821523D01*
X165777334Y-108737400D01*
X165757046Y-108658301D01*
X165757046Y-108658301D01*
G37*
X165757046Y-108658301D02*
X165673126Y-108612186D01*
X165490988Y-108590581D01*
X165176044Y-108585010D01*
X165155456Y-108585000D01*
X164739133Y-108608301D01*
X164464847Y-108686786D01*
X164310671Y-108833330D01*
X164254682Y-109060806D01*
X164253334Y-109114688D01*
X164303774Y-109306399D01*
X164469668Y-109497546D01*
X164772880Y-109712383D01*
X164815662Y-109738568D01*
X164890865Y-109797861D01*
X164839420Y-109822910D01*
X164640527Y-109823425D01*
X164634334Y-109823234D01*
X164410934Y-109830532D01*
X164305076Y-109886992D01*
X164269294Y-109997960D01*
X164307517Y-110194422D01*
X164417461Y-110357793D01*
X164643352Y-110495992D01*
X164810723Y-110517069D01*
X164810723Y-110271649D01*
X164700909Y-110256082D01*
X164699598Y-110227180D01*
X164812915Y-110206969D01*
X164861875Y-110220496D01*
X164893946Y-110258091D01*
X164810723Y-110271649D01*
X164810723Y-110517069D01*
X164897398Y-110527985D01*
X165117655Y-110453362D01*
X165204316Y-110363000D01*
X165383870Y-110222842D01*
X165549589Y-110193666D01*
X165719799Y-110171170D01*
X165768022Y-110077175D01*
X165762056Y-110003166D01*
X165697517Y-109858779D01*
X165530056Y-109816002D01*
X165502213Y-109816001D01*
X165299860Y-109769984D01*
X165225268Y-109680209D01*
X165126129Y-109552338D01*
X164936248Y-109410952D01*
X164884291Y-109381235D01*
X164693235Y-109245334D01*
X164611136Y-109116187D01*
X164611626Y-109093693D01*
X164690877Y-109003843D01*
X164844003Y-108946238D01*
X165001760Y-108933777D01*
X165094908Y-108979359D01*
X165100000Y-109002709D01*
X165169806Y-109069846D01*
X165333510Y-109090598D01*
X165522544Y-109066312D01*
X165668339Y-108998337D01*
X165675734Y-108991400D01*
X165765204Y-108821523D01*
X165777334Y-108737400D01*
X165757046Y-108658301D01*
G36*
X168784842Y-119682921D02*
X168698334Y-119591666D01*
X168590743Y-119447519D01*
X168571334Y-119369633D01*
X168520682Y-119266108D01*
X168410289Y-119268033D01*
X168302500Y-119363516D01*
X168273711Y-119426396D01*
X168272031Y-119620995D01*
X168319811Y-119721651D01*
X168379964Y-119894856D01*
X168366431Y-119985572D01*
X168315914Y-120056587D01*
X168229139Y-120030425D01*
X168070741Y-119893633D01*
X168035428Y-119859650D01*
X167820071Y-119683538D01*
X167603860Y-119606356D01*
X167360803Y-119591666D01*
X167100035Y-119575248D01*
X166979186Y-119520526D01*
X166962667Y-119469467D01*
X166889898Y-119314790D01*
X166717952Y-119189517D01*
X166516375Y-119137439D01*
X166448186Y-119145496D01*
X166261902Y-119253314D01*
X166068294Y-119449297D01*
X165918142Y-119672224D01*
X165862000Y-119852163D01*
X165874463Y-119924332D01*
X165931545Y-119971384D01*
X166062789Y-119998627D01*
X166297738Y-120011371D01*
X166319778Y-120011583D01*
X166319778Y-119620054D01*
X166308682Y-119563838D01*
X166411027Y-119462679D01*
X166482850Y-119437292D01*
X166605098Y-119448652D01*
X166609393Y-119519736D01*
X166505221Y-119598768D01*
X166449832Y-119617463D01*
X166319778Y-119620054D01*
X166319778Y-120011583D01*
X166665932Y-120014924D01*
X166768136Y-120015000D01*
X167674272Y-120015000D01*
X167960306Y-120290166D01*
X168246340Y-120565333D01*
X168534577Y-120226666D01*
X168729598Y-119978156D01*
X168809922Y-119808923D01*
X168784842Y-119682921D01*
X168784842Y-119682921D01*
G37*
X168784842Y-119682921D02*
X168698334Y-119591666D01*
X168590743Y-119447519D01*
X168571334Y-119369633D01*
X168520682Y-119266108D01*
X168410289Y-119268033D01*
X168302500Y-119363516D01*
X168273711Y-119426396D01*
X168272031Y-119620995D01*
X168319811Y-119721651D01*
X168379964Y-119894856D01*
X168366431Y-119985572D01*
X168315914Y-120056587D01*
X168229139Y-120030425D01*
X168070741Y-119893633D01*
X168035428Y-119859650D01*
X167820071Y-119683538D01*
X167603860Y-119606356D01*
X167360803Y-119591666D01*
X167100035Y-119575248D01*
X166979186Y-119520526D01*
X166962667Y-119469467D01*
X166889898Y-119314790D01*
X166717952Y-119189517D01*
X166516375Y-119137439D01*
X166448186Y-119145496D01*
X166261902Y-119253314D01*
X166068294Y-119449297D01*
X165918142Y-119672224D01*
X165862000Y-119852163D01*
X165874463Y-119924332D01*
X165931545Y-119971384D01*
X166062789Y-119998627D01*
X166297738Y-120011371D01*
X166319778Y-120011583D01*
X166319778Y-119620054D01*
X166308682Y-119563838D01*
X166411027Y-119462679D01*
X166482850Y-119437292D01*
X166605098Y-119448652D01*
X166609393Y-119519736D01*
X166505221Y-119598768D01*
X166449832Y-119617463D01*
X166319778Y-119620054D01*
X166319778Y-120011583D01*
X166665932Y-120014924D01*
X166768136Y-120015000D01*
X167674272Y-120015000D01*
X167960306Y-120290166D01*
X168246340Y-120565333D01*
X168534577Y-120226666D01*
X168729598Y-119978156D01*
X168809922Y-119808923D01*
X168784842Y-119682921D01*
G36*
X168803276Y-117130604D02*
X168710539Y-116844411D01*
X168518520Y-116663727D01*
X168427758Y-116622031D01*
X168199238Y-116587948D01*
X168009572Y-116670369D01*
X167871235Y-116812800D01*
X167812994Y-116973759D01*
X167843411Y-117098783D01*
X167936334Y-117136333D01*
X168048956Y-117087503D01*
X168063334Y-117045778D01*
X168133473Y-116985681D01*
X168253834Y-116982278D01*
X168379310Y-117029264D01*
X168443415Y-117155291D01*
X168470321Y-117368194D01*
X168465013Y-117636681D01*
X168382230Y-117827381D01*
X168283670Y-117939694D01*
X168013295Y-118116576D01*
X167738780Y-118140479D01*
X167497145Y-118019184D01*
X167325404Y-117760475D01*
X167316588Y-117736365D01*
X167272266Y-117547984D01*
X167301334Y-117488576D01*
X167301334Y-117009333D01*
X167228851Y-116990139D01*
X167216667Y-116929663D01*
X167260872Y-116813821D01*
X167301334Y-116797666D01*
X167383577Y-116858434D01*
X167386000Y-116877336D01*
X167324456Y-116992004D01*
X167301334Y-117009333D01*
X167301334Y-117488576D01*
X167330246Y-117429485D01*
X167434683Y-117351626D01*
X167601053Y-117161029D01*
X167654458Y-116920987D01*
X167596054Y-116690303D01*
X167427000Y-116527783D01*
X167418388Y-116523729D01*
X167246453Y-116469156D01*
X167123210Y-116524249D01*
X167033684Y-116624165D01*
X166930714Y-116801016D01*
X166913973Y-116938620D01*
X166894682Y-117013240D01*
X166745701Y-117047202D01*
X166597849Y-117051666D01*
X166225509Y-117098452D01*
X165987183Y-117243468D01*
X165874234Y-117493703D01*
X165862000Y-117647182D01*
X165891005Y-117901380D01*
X165998307Y-118061943D01*
X166068772Y-118114578D01*
X166315310Y-118216849D01*
X166530079Y-118204471D01*
X166668538Y-118085317D01*
X166693389Y-118004166D01*
X166685857Y-117868354D01*
X166579160Y-117818358D01*
X166469614Y-117813666D01*
X166269930Y-117774911D01*
X166171090Y-117689378D01*
X166153200Y-117581735D01*
X166224417Y-117517415D01*
X166416437Y-117478769D01*
X166578317Y-117462637D01*
X166795974Y-117454365D01*
X166903366Y-117505596D01*
X166958293Y-117655160D01*
X166973870Y-117728370D01*
X167119591Y-118076919D01*
X167370242Y-118326203D01*
X167687690Y-118463141D01*
X168033803Y-118474656D01*
X168370448Y-118347670D01*
X168498353Y-118251223D01*
X168664739Y-118074539D01*
X168755270Y-117880808D01*
X168800573Y-117599478D01*
X168805499Y-117543699D01*
X168803276Y-117130604D01*
X168803276Y-117130604D01*
G37*
X168803276Y-117130604D02*
X168710539Y-116844411D01*
X168518520Y-116663727D01*
X168427758Y-116622031D01*
X168199238Y-116587948D01*
X168009572Y-116670369D01*
X167871235Y-116812800D01*
X167812994Y-116973759D01*
X167843411Y-117098783D01*
X167936334Y-117136333D01*
X168048956Y-117087503D01*
X168063334Y-117045778D01*
X168133473Y-116985681D01*
X168253834Y-116982278D01*
X168379310Y-117029264D01*
X168443415Y-117155291D01*
X168470321Y-117368194D01*
X168465013Y-117636681D01*
X168382230Y-117827381D01*
X168283670Y-117939694D01*
X168013295Y-118116576D01*
X167738780Y-118140479D01*
X167497145Y-118019184D01*
X167325404Y-117760475D01*
X167316588Y-117736365D01*
X167272266Y-117547984D01*
X167301334Y-117488576D01*
X167301334Y-117009333D01*
X167228851Y-116990139D01*
X167216667Y-116929663D01*
X167260872Y-116813821D01*
X167301334Y-116797666D01*
X167383577Y-116858434D01*
X167386000Y-116877336D01*
X167324456Y-116992004D01*
X167301334Y-117009333D01*
X167301334Y-117488576D01*
X167330246Y-117429485D01*
X167434683Y-117351626D01*
X167601053Y-117161029D01*
X167654458Y-116920987D01*
X167596054Y-116690303D01*
X167427000Y-116527783D01*
X167418388Y-116523729D01*
X167246453Y-116469156D01*
X167123210Y-116524249D01*
X167033684Y-116624165D01*
X166930714Y-116801016D01*
X166913973Y-116938620D01*
X166894682Y-117013240D01*
X166745701Y-117047202D01*
X166597849Y-117051666D01*
X166225509Y-117098452D01*
X165987183Y-117243468D01*
X165874234Y-117493703D01*
X165862000Y-117647182D01*
X165891005Y-117901380D01*
X165998307Y-118061943D01*
X166068772Y-118114578D01*
X166315310Y-118216849D01*
X166530079Y-118204471D01*
X166668538Y-118085317D01*
X166693389Y-118004166D01*
X166685857Y-117868354D01*
X166579160Y-117818358D01*
X166469614Y-117813666D01*
X166269930Y-117774911D01*
X166171090Y-117689378D01*
X166153200Y-117581735D01*
X166224417Y-117517415D01*
X166416437Y-117478769D01*
X166578317Y-117462637D01*
X166795974Y-117454365D01*
X166903366Y-117505596D01*
X166958293Y-117655160D01*
X166973870Y-117728370D01*
X167119591Y-118076919D01*
X167370242Y-118326203D01*
X167687690Y-118463141D01*
X168033803Y-118474656D01*
X168370448Y-118347670D01*
X168498353Y-118251223D01*
X168664739Y-118074539D01*
X168755270Y-117880808D01*
X168800573Y-117599478D01*
X168805499Y-117543699D01*
X168803276Y-117130604D01*
G36*
X168492505Y-114818541D02*
X168668941Y-114533062D01*
X168845377Y-114247582D01*
X168651264Y-114040958D01*
X168570935Y-113962205D01*
X168482866Y-113906524D01*
X168358209Y-113869919D01*
X168168119Y-113848394D01*
X167883751Y-113837954D01*
X167476259Y-113834603D01*
X167159575Y-113834333D01*
X166665409Y-113835401D01*
X166315683Y-113840770D01*
X166085507Y-113853688D01*
X165949991Y-113877403D01*
X165884246Y-113915163D01*
X165863382Y-113970217D01*
X165862000Y-114003666D01*
X165870536Y-114069628D01*
X165913174Y-114115800D01*
X166015468Y-114145700D01*
X166202966Y-114162845D01*
X166501219Y-114170751D01*
X166935779Y-114172935D01*
X167092324Y-114173000D01*
X167619936Y-114176986D01*
X167996053Y-114193471D01*
X168238416Y-114229245D01*
X168364769Y-114291100D01*
X168392852Y-114385826D01*
X168340408Y-114520213D01*
X168275589Y-114625885D01*
X168186161Y-114790478D01*
X168198894Y-114919875D01*
X168278465Y-115055405D01*
X168356288Y-115232621D01*
X168371471Y-115393307D01*
X168331420Y-115492043D01*
X168243542Y-115483407D01*
X168212958Y-115457158D01*
X168078875Y-115405144D01*
X167825861Y-115369807D01*
X167538400Y-115358333D01*
X167211107Y-115348479D01*
X167027655Y-115315683D01*
X166963521Y-115255095D01*
X166962667Y-115244455D01*
X166904646Y-115105871D01*
X166795495Y-114979289D01*
X166655066Y-114882598D01*
X166507272Y-114885231D01*
X166368169Y-114935759D01*
X166156625Y-115075019D01*
X165987325Y-115275746D01*
X165887452Y-115490224D01*
X165884187Y-115670734D01*
X165918445Y-115725222D01*
X166020430Y-115747025D01*
X166256772Y-115764913D01*
X166449670Y-115771896D01*
X166449670Y-115358333D01*
X166332600Y-115325740D01*
X166327667Y-115273666D01*
X166450169Y-115195762D01*
X166501997Y-115189000D01*
X166611424Y-115236339D01*
X166624000Y-115273666D01*
X166552875Y-115341792D01*
X166449670Y-115358333D01*
X166449670Y-115771896D01*
X166592505Y-115777067D01*
X166992666Y-115781664D01*
X167002178Y-115781666D01*
X167512348Y-115790275D01*
X167877007Y-115815549D01*
X168086661Y-115856662D01*
X168127479Y-115879678D01*
X168252255Y-115922842D01*
X168407327Y-115821751D01*
X168602330Y-115569052D01*
X168666432Y-115468455D01*
X168848243Y-115174279D01*
X168492505Y-114818541D01*
X168492505Y-114818541D01*
G37*
X168492505Y-114818541D02*
X168668941Y-114533062D01*
X168845377Y-114247582D01*
X168651264Y-114040958D01*
X168570935Y-113962205D01*
X168482866Y-113906524D01*
X168358209Y-113869919D01*
X168168119Y-113848394D01*
X167883751Y-113837954D01*
X167476259Y-113834603D01*
X167159575Y-113834333D01*
X166665409Y-113835401D01*
X166315683Y-113840770D01*
X166085507Y-113853688D01*
X165949991Y-113877403D01*
X165884246Y-113915163D01*
X165863382Y-113970217D01*
X165862000Y-114003666D01*
X165870536Y-114069628D01*
X165913174Y-114115800D01*
X166015468Y-114145700D01*
X166202966Y-114162845D01*
X166501219Y-114170751D01*
X166935779Y-114172935D01*
X167092324Y-114173000D01*
X167619936Y-114176986D01*
X167996053Y-114193471D01*
X168238416Y-114229245D01*
X168364769Y-114291100D01*
X168392852Y-114385826D01*
X168340408Y-114520213D01*
X168275589Y-114625885D01*
X168186161Y-114790478D01*
X168198894Y-114919875D01*
X168278465Y-115055405D01*
X168356288Y-115232621D01*
X168371471Y-115393307D01*
X168331420Y-115492043D01*
X168243542Y-115483407D01*
X168212958Y-115457158D01*
X168078875Y-115405144D01*
X167825861Y-115369807D01*
X167538400Y-115358333D01*
X167211107Y-115348479D01*
X167027655Y-115315683D01*
X166963521Y-115255095D01*
X166962667Y-115244455D01*
X166904646Y-115105871D01*
X166795495Y-114979289D01*
X166655066Y-114882598D01*
X166507272Y-114885231D01*
X166368169Y-114935759D01*
X166156625Y-115075019D01*
X165987325Y-115275746D01*
X165887452Y-115490224D01*
X165884187Y-115670734D01*
X165918445Y-115725222D01*
X166020430Y-115747025D01*
X166256772Y-115764913D01*
X166449670Y-115771896D01*
X166449670Y-115358333D01*
X166332600Y-115325740D01*
X166327667Y-115273666D01*
X166450169Y-115195762D01*
X166501997Y-115189000D01*
X166611424Y-115236339D01*
X166624000Y-115273666D01*
X166552875Y-115341792D01*
X166449670Y-115358333D01*
X166449670Y-115771896D01*
X166592505Y-115777067D01*
X166992666Y-115781664D01*
X167002178Y-115781666D01*
X167512348Y-115790275D01*
X167877007Y-115815549D01*
X168086661Y-115856662D01*
X168127479Y-115879678D01*
X168252255Y-115922842D01*
X168407327Y-115821751D01*
X168602330Y-115569052D01*
X168666432Y-115468455D01*
X168848243Y-115174279D01*
X168492505Y-114818541D01*
G36*
X168728064Y-112682288D02*
X168707762Y-112659418D01*
X168600512Y-112502855D01*
X168571334Y-112409500D01*
X168516306Y-112320971D01*
X168400198Y-112326569D01*
X168296468Y-112417600D01*
X168284363Y-112443467D01*
X168280540Y-112620902D01*
X168324157Y-112746416D01*
X168376311Y-112938961D01*
X168363478Y-113050599D01*
X168310796Y-113113861D01*
X168214691Y-113075980D01*
X168042184Y-112923522D01*
X168035428Y-112916983D01*
X167837014Y-112753766D01*
X167663501Y-112658809D01*
X167614803Y-112649000D01*
X167538086Y-112624525D01*
X167494105Y-112528112D01*
X167474475Y-112325281D01*
X167470667Y-112056333D01*
X167483846Y-111705592D01*
X167531820Y-111513523D01*
X167627250Y-111470922D01*
X167782795Y-111568580D01*
X167936334Y-111717666D01*
X168111472Y-111877188D01*
X168251728Y-111965465D01*
X168279590Y-111971666D01*
X168380964Y-111906420D01*
X168526848Y-111740396D01*
X168608653Y-111625391D01*
X168741325Y-111411550D01*
X168784270Y-111281824D01*
X168747705Y-111183636D01*
X168704570Y-111131891D01*
X168597607Y-110956315D01*
X168571334Y-110843166D01*
X168528674Y-110717650D01*
X168418585Y-110734019D01*
X168314939Y-110831553D01*
X168250772Y-110962100D01*
X168294832Y-111123218D01*
X168319794Y-111171930D01*
X168387848Y-111347476D01*
X168348300Y-111463423D01*
X168326667Y-111486544D01*
X168230830Y-111530505D01*
X168111998Y-111457298D01*
X168019172Y-111357833D01*
X167902321Y-111238486D01*
X167777229Y-111168759D01*
X167595991Y-111135473D01*
X167310707Y-111125451D01*
X167172829Y-111125000D01*
X166735431Y-111141728D01*
X166423345Y-111200729D01*
X166195061Y-111315223D01*
X166012050Y-111494743D01*
X165904375Y-111735070D01*
X165865914Y-112055614D01*
X165897449Y-112381705D01*
X165999761Y-112638670D01*
X166000066Y-112639105D01*
X166262717Y-112871303D01*
X166655687Y-113018081D01*
X167132000Y-113069278D01*
X167132000Y-112649000D01*
X166806456Y-112649000D01*
X166491516Y-112583730D01*
X166272018Y-112413414D01*
X166163438Y-112176296D01*
X166181251Y-111910619D01*
X166340935Y-111654624D01*
X166386737Y-111611833D01*
X166591961Y-111507219D01*
X166844878Y-111463667D01*
X166845047Y-111463666D01*
X167132000Y-111463666D01*
X167132000Y-112649000D01*
X167132000Y-113069278D01*
X167159085Y-113072190D01*
X167188750Y-113072333D01*
X167485411Y-113083942D01*
X167683804Y-113135244D01*
X167854330Y-113250955D01*
X167950000Y-113339579D01*
X168134460Y-113493794D01*
X168280362Y-113532643D01*
X168420918Y-113445037D01*
X168589341Y-113219890D01*
X168664406Y-113101066D01*
X168773769Y-112906799D01*
X168792914Y-112788334D01*
X168728064Y-112682288D01*
X168728064Y-112682288D01*
G37*
X168728064Y-112682288D02*
X168707762Y-112659418D01*
X168600512Y-112502855D01*
X168571334Y-112409500D01*
X168516306Y-112320971D01*
X168400198Y-112326569D01*
X168296468Y-112417600D01*
X168284363Y-112443467D01*
X168280540Y-112620902D01*
X168324157Y-112746416D01*
X168376311Y-112938961D01*
X168363478Y-113050599D01*
X168310796Y-113113861D01*
X168214691Y-113075980D01*
X168042184Y-112923522D01*
X168035428Y-112916983D01*
X167837014Y-112753766D01*
X167663501Y-112658809D01*
X167614803Y-112649000D01*
X167538086Y-112624525D01*
X167494105Y-112528112D01*
X167474475Y-112325281D01*
X167470667Y-112056333D01*
X167483846Y-111705592D01*
X167531820Y-111513523D01*
X167627250Y-111470922D01*
X167782795Y-111568580D01*
X167936334Y-111717666D01*
X168111472Y-111877188D01*
X168251728Y-111965465D01*
X168279590Y-111971666D01*
X168380964Y-111906420D01*
X168526848Y-111740396D01*
X168608653Y-111625391D01*
X168741325Y-111411550D01*
X168784270Y-111281824D01*
X168747705Y-111183636D01*
X168704570Y-111131891D01*
X168597607Y-110956315D01*
X168571334Y-110843166D01*
X168528674Y-110717650D01*
X168418585Y-110734019D01*
X168314939Y-110831553D01*
X168250772Y-110962100D01*
X168294832Y-111123218D01*
X168319794Y-111171930D01*
X168387848Y-111347476D01*
X168348300Y-111463423D01*
X168326667Y-111486544D01*
X168230830Y-111530505D01*
X168111998Y-111457298D01*
X168019172Y-111357833D01*
X167902321Y-111238486D01*
X167777229Y-111168759D01*
X167595991Y-111135473D01*
X167310707Y-111125451D01*
X167172829Y-111125000D01*
X166735431Y-111141728D01*
X166423345Y-111200729D01*
X166195061Y-111315223D01*
X166012050Y-111494743D01*
X165904375Y-111735070D01*
X165865914Y-112055614D01*
X165897449Y-112381705D01*
X165999761Y-112638670D01*
X166000066Y-112639105D01*
X166262717Y-112871303D01*
X166655687Y-113018081D01*
X167132000Y-113069278D01*
X167132000Y-112649000D01*
X166806456Y-112649000D01*
X166491516Y-112583730D01*
X166272018Y-112413414D01*
X166163438Y-112176296D01*
X166181251Y-111910619D01*
X166340935Y-111654624D01*
X166386737Y-111611833D01*
X166591961Y-111507219D01*
X166844878Y-111463667D01*
X166845047Y-111463666D01*
X167132000Y-111463666D01*
X167132000Y-112649000D01*
X167132000Y-113069278D01*
X167159085Y-113072190D01*
X167188750Y-113072333D01*
X167485411Y-113083942D01*
X167683804Y-113135244D01*
X167854330Y-113250955D01*
X167950000Y-113339579D01*
X168134460Y-113493794D01*
X168280362Y-113532643D01*
X168420918Y-113445037D01*
X168589341Y-113219890D01*
X168664406Y-113101066D01*
X168773769Y-112906799D01*
X168792914Y-112788334D01*
X168728064Y-112682288D01*
G36*
X168600040Y-107555702D02*
X168348649Y-106934000D01*
X167105325Y-106910570D01*
X166623476Y-106902512D01*
X166285463Y-106901551D01*
X166065837Y-106910719D01*
X165939150Y-106933050D01*
X165879951Y-106971575D01*
X165862793Y-107029329D01*
X165862000Y-107058736D01*
X165870643Y-107127824D01*
X165914293Y-107175367D01*
X166019531Y-107205377D01*
X166212940Y-107221867D01*
X166521103Y-107228847D01*
X166970602Y-107230331D01*
X166998917Y-107230333D01*
X168135834Y-107230333D01*
X168498200Y-108198843D01*
X168111358Y-109024767D01*
X168290806Y-109336566D01*
X168399921Y-109554317D01*
X168418321Y-109706016D01*
X168363273Y-109848261D01*
X168302906Y-109942087D01*
X168219791Y-109999695D01*
X168077146Y-110028643D01*
X167838190Y-110036489D01*
X167474104Y-110030966D01*
X166990534Y-110010256D01*
X166648176Y-109967322D01*
X166419476Y-109893804D01*
X166276881Y-109781345D01*
X166201244Y-109644851D01*
X166171733Y-109395524D01*
X166232296Y-109130981D01*
X166361599Y-108932028D01*
X166396464Y-108905519D01*
X166573884Y-108844926D01*
X166753667Y-108852707D01*
X166866822Y-108920883D01*
X166878000Y-108961199D01*
X166950446Y-109114735D01*
X167120842Y-109241041D01*
X167318781Y-109294757D01*
X167320907Y-109294516D01*
X167320907Y-108997321D01*
X167227255Y-108972316D01*
X167216667Y-108939749D01*
X167287364Y-108856212D01*
X167390835Y-108813203D01*
X167520890Y-108810612D01*
X167531986Y-108866829D01*
X167448381Y-108956170D01*
X167320907Y-108997321D01*
X167320907Y-109294516D01*
X167384211Y-109287333D01*
X167612268Y-109157207D01*
X167808111Y-108931480D01*
X167910997Y-108681467D01*
X167912967Y-108666552D01*
X167916593Y-108559794D01*
X167874836Y-108495629D01*
X167753275Y-108460772D01*
X167517490Y-108441936D01*
X167307393Y-108432819D01*
X166754655Y-108451818D01*
X166340705Y-108561880D01*
X166058738Y-108767601D01*
X165901948Y-109073578D01*
X165862000Y-109409218D01*
X165884745Y-109676885D01*
X165977459Y-109879464D01*
X166149867Y-110075133D01*
X166289603Y-110209148D01*
X166412302Y-110293374D01*
X166561493Y-110339375D01*
X166780706Y-110358711D01*
X167113469Y-110362946D01*
X167233600Y-110363000D01*
X167648906Y-110373755D01*
X167951307Y-110404140D01*
X168115087Y-110451335D01*
X168127479Y-110461012D01*
X168245545Y-110510173D01*
X168377326Y-110421664D01*
X168533125Y-110185421D01*
X168651478Y-109949322D01*
X168847754Y-109530264D01*
X168664788Y-109234218D01*
X168481821Y-108938171D01*
X168666625Y-108557788D01*
X168851430Y-108177405D01*
X168600040Y-107555702D01*
X168600040Y-107555702D01*
G37*
X168600040Y-107555702D02*
X168348649Y-106934000D01*
X167105325Y-106910570D01*
X166623476Y-106902512D01*
X166285463Y-106901551D01*
X166065837Y-106910719D01*
X165939150Y-106933050D01*
X165879951Y-106971575D01*
X165862793Y-107029329D01*
X165862000Y-107058736D01*
X165870643Y-107127824D01*
X165914293Y-107175367D01*
X166019531Y-107205377D01*
X166212940Y-107221867D01*
X166521103Y-107228847D01*
X166970602Y-107230331D01*
X166998917Y-107230333D01*
X168135834Y-107230333D01*
X168498200Y-108198843D01*
X168111358Y-109024767D01*
X168290806Y-109336566D01*
X168399921Y-109554317D01*
X168418321Y-109706016D01*
X168363273Y-109848261D01*
X168302906Y-109942087D01*
X168219791Y-109999695D01*
X168077146Y-110028643D01*
X167838190Y-110036489D01*
X167474104Y-110030966D01*
X166990534Y-110010256D01*
X166648176Y-109967322D01*
X166419476Y-109893804D01*
X166276881Y-109781345D01*
X166201244Y-109644851D01*
X166171733Y-109395524D01*
X166232296Y-109130981D01*
X166361599Y-108932028D01*
X166396464Y-108905519D01*
X166573884Y-108844926D01*
X166753667Y-108852707D01*
X166866822Y-108920883D01*
X166878000Y-108961199D01*
X166950446Y-109114735D01*
X167120842Y-109241041D01*
X167318781Y-109294757D01*
X167320907Y-109294516D01*
X167320907Y-108997321D01*
X167227255Y-108972316D01*
X167216667Y-108939749D01*
X167287364Y-108856212D01*
X167390835Y-108813203D01*
X167520890Y-108810612D01*
X167531986Y-108866829D01*
X167448381Y-108956170D01*
X167320907Y-108997321D01*
X167320907Y-109294516D01*
X167384211Y-109287333D01*
X167612268Y-109157207D01*
X167808111Y-108931480D01*
X167910997Y-108681467D01*
X167912967Y-108666552D01*
X167916593Y-108559794D01*
X167874836Y-108495629D01*
X167753275Y-108460772D01*
X167517490Y-108441936D01*
X167307393Y-108432819D01*
X166754655Y-108451818D01*
X166340705Y-108561880D01*
X166058738Y-108767601D01*
X165901948Y-109073578D01*
X165862000Y-109409218D01*
X165884745Y-109676885D01*
X165977459Y-109879464D01*
X166149867Y-110075133D01*
X166289603Y-110209148D01*
X166412302Y-110293374D01*
X166561493Y-110339375D01*
X166780706Y-110358711D01*
X167113469Y-110362946D01*
X167233600Y-110363000D01*
X167648906Y-110373755D01*
X167951307Y-110404140D01*
X168115087Y-110451335D01*
X168127479Y-110461012D01*
X168245545Y-110510173D01*
X168377326Y-110421664D01*
X168533125Y-110185421D01*
X168651478Y-109949322D01*
X168847754Y-109530264D01*
X168664788Y-109234218D01*
X168481821Y-108938171D01*
X168666625Y-108557788D01*
X168851430Y-108177405D01*
X168600040Y-107555702D01*
D13*
X143752100Y-81473600D02*
X142482100Y-81473600D01*
X142482100Y-81473600D02*
X141847100Y-80838600D01*
X141847100Y-80838600D02*
X141212100Y-81473600D01*
X141212100Y-81473600D02*
X139942100Y-81473600D01*
X139942100Y-81473600D02*
X139307100Y-80838600D01*
X139307100Y-80838600D02*
X138672100Y-81473600D01*
X138672100Y-81473600D02*
X137402100Y-81473600D01*
X137402100Y-81473600D02*
X136767100Y-80838600D01*
X136767100Y-80838600D02*
X136132100Y-81473600D01*
X136132100Y-81473600D02*
X134862100Y-81473600D01*
X134862100Y-81473600D02*
X134227100Y-80838600D01*
X134227100Y-80838600D02*
X133592100Y-81473600D01*
X133592100Y-81473600D02*
X132449100Y-81473600D01*
X132449100Y-81473600D02*
X132322100Y-81473600D01*
X132322100Y-81473600D02*
X131687100Y-80838600D01*
X131687100Y-80838600D02*
X131052100Y-81473600D01*
X131052100Y-81473600D02*
X129782100Y-81473600D01*
X129782100Y-81473600D02*
X129147100Y-80838600D01*
X129147100Y-80838600D02*
X128512100Y-81473600D01*
X128512100Y-81473600D02*
X127242100Y-81473600D01*
X127242100Y-81473600D02*
X126607100Y-80838600D01*
X126607100Y-80838600D02*
X125972100Y-81473600D01*
X125972100Y-81473600D02*
X124702100Y-81473600D01*
X124702100Y-81473600D02*
X124067100Y-80838600D01*
X124067100Y-80838600D02*
X123432100Y-81473600D01*
X123432100Y-81473600D02*
X122162100Y-81473600D01*
X122162100Y-81473600D02*
X121527100Y-80838600D01*
X121527100Y-79568600D02*
X121527100Y-80838600D01*
X128512100Y-78933600D02*
X127242100Y-78933600D01*
X127242100Y-78933600D02*
X126607100Y-79568600D01*
X126607100Y-79568600D02*
X125972100Y-78933600D01*
X125972100Y-78933600D02*
X124702100Y-78933600D01*
X124702100Y-78933600D02*
X124067100Y-79568600D01*
X124067100Y-79568600D02*
X123432100Y-78933600D01*
X123432100Y-78933600D02*
X122162100Y-78933600D01*
X122162100Y-78933600D02*
X121527100Y-79568600D01*
X143752100Y-78933600D02*
X142482100Y-78933600D01*
X142482100Y-78933600D02*
X141847100Y-79568600D01*
X141847100Y-79568600D02*
X141212100Y-78933600D01*
X141212100Y-78933600D02*
X139942100Y-78933600D01*
X139942100Y-78933600D02*
X139307100Y-79568600D01*
X139307100Y-79568600D02*
X138672100Y-78933600D01*
X138672100Y-78933600D02*
X137402100Y-78933600D01*
X137402100Y-78933600D02*
X136767100Y-79568600D01*
X136767100Y-79568600D02*
X136132100Y-78933600D01*
X136132100Y-78933600D02*
X134989100Y-78933600D01*
X134989100Y-78933600D02*
X134354100Y-79568600D01*
X134354100Y-79568600D02*
X133719100Y-78933600D01*
X133719100Y-78933600D02*
X132322100Y-78933600D01*
X132322100Y-78933600D02*
X131687100Y-79568600D01*
X131687100Y-79568600D02*
X131052100Y-78933600D01*
X131052100Y-78933600D02*
X129782100Y-78933600D01*
X129782100Y-78933600D02*
X129147100Y-79568600D01*
X129147100Y-79568600D02*
X128512100Y-78933600D01*
X145022100Y-78933600D02*
X146165100Y-78933600D01*
X146292100Y-81473600D02*
X145022100Y-81473600D01*
X146927100Y-80838600D02*
X146927100Y-79441600D01*
X146927100Y-80838600D02*
X146292100Y-81473600D01*
X145022100Y-81473600D02*
X144387100Y-80838600D01*
X144387100Y-80838600D02*
X143752100Y-81473600D01*
X144387100Y-79568600D02*
X143752100Y-78933600D01*
X145022100Y-78933600D02*
X144387100Y-79568600D01*
X146927100Y-79441600D02*
X146419100Y-78933600D01*
X146419100Y-78933600D02*
X146165100Y-78933600D01*
X165596100Y-81473600D02*
X164326100Y-81473600D01*
X164326100Y-81473600D02*
X163691100Y-80838600D01*
X163691100Y-80838600D02*
X163056100Y-81473600D01*
X163056100Y-81473600D02*
X161786100Y-81473600D01*
X161786100Y-81473600D02*
X161151100Y-80838600D01*
X161151100Y-80838600D02*
X160516100Y-81473600D01*
X160516100Y-81473600D02*
X159246100Y-81473600D01*
X159246100Y-81473600D02*
X158611100Y-80838600D01*
X158611100Y-80838600D02*
X157976100Y-81473600D01*
X157976100Y-81473600D02*
X156706100Y-81473600D01*
X156706100Y-81473600D02*
X156071100Y-80838600D01*
X156071100Y-80838600D02*
X155436100Y-81473600D01*
X155436100Y-81473600D02*
X154166100Y-81473600D01*
X154166100Y-81473600D02*
X153531100Y-80838600D01*
X153531100Y-80838600D02*
X152896100Y-81473600D01*
X152896100Y-81473600D02*
X151626100Y-81473600D01*
X151626100Y-81473600D02*
X150991100Y-80838600D01*
X150991100Y-80838600D02*
X150356100Y-81473600D01*
X150356100Y-81473600D02*
X149086100Y-81473600D01*
X149086100Y-81473600D02*
X148451100Y-80838600D01*
X148451100Y-80838600D02*
X148451100Y-79568600D01*
X148451100Y-79568600D02*
X149086100Y-78933600D01*
X149086100Y-78933600D02*
X150356100Y-78933600D01*
X150356100Y-78933600D02*
X150991100Y-79568600D01*
X150991100Y-79568600D02*
X151626100Y-78933600D01*
X151626100Y-78933600D02*
X152896100Y-78933600D01*
X152896100Y-78933600D02*
X153531100Y-79568600D01*
X153531100Y-79568600D02*
X154166100Y-78933600D01*
X154166100Y-78933600D02*
X155436100Y-78933600D01*
X155436100Y-78933600D02*
X156071100Y-79568600D01*
X156071100Y-79568600D02*
X156706100Y-78933600D01*
X156706100Y-78933600D02*
X157976100Y-78933600D01*
X157976100Y-78933600D02*
X158611100Y-79568600D01*
X158611100Y-79568600D02*
X159246100Y-78933600D01*
X159246100Y-78933600D02*
X160516100Y-78933600D01*
X160516100Y-78933600D02*
X161151100Y-79568600D01*
X161151100Y-79568600D02*
X161786100Y-78933600D01*
X161786100Y-78933600D02*
X163056100Y-78933600D01*
X163056100Y-78933600D02*
X163691100Y-79568600D01*
X163691100Y-79568600D02*
X164326100Y-78933600D01*
X164326100Y-78933600D02*
X165596100Y-78933600D01*
X165596100Y-78933600D02*
X166231100Y-79568600D01*
X166231100Y-79568600D02*
X166866100Y-78933600D01*
X166866100Y-78933600D02*
X168136100Y-78933600D01*
X168136100Y-78933600D02*
X168771100Y-79568600D01*
X165596100Y-81473600D02*
X166231100Y-80838600D01*
X166231100Y-80838600D02*
X165596100Y-81473600D01*
X166866100Y-81473600D02*
X168136100Y-81473600D01*
X168771100Y-79568600D02*
X168771100Y-80838600D01*
X168771100Y-80838600D02*
X168136100Y-81473600D01*
X166866100Y-81473600D02*
X166231100Y-80838600D01*
X160516100Y-127193600D02*
X159246100Y-127193600D01*
X159246100Y-127193600D02*
X158611100Y-127828600D01*
X158611100Y-127828600D02*
X157976100Y-127193600D01*
X157976100Y-127193600D02*
X156706100Y-127193600D01*
X156706100Y-127193600D02*
X156071100Y-127828600D01*
X156071100Y-127828600D02*
X155436100Y-127193600D01*
X155436100Y-127193600D02*
X154166100Y-127193600D01*
X154166100Y-127193600D02*
X153531100Y-127828600D01*
X161786100Y-127193600D02*
X163056100Y-127193600D01*
X161151100Y-129098600D02*
X161786100Y-129733600D01*
X161786100Y-129733600D02*
X163056100Y-129733600D01*
X163056100Y-129733600D02*
X163691100Y-129098600D01*
X163691100Y-129098600D02*
X164326100Y-129733600D01*
X164326100Y-129733600D02*
X165596100Y-129733600D01*
X165596100Y-129733600D02*
X166231100Y-129098600D01*
X166231100Y-129098600D02*
X166866100Y-129733600D01*
X166866100Y-129733600D02*
X168136100Y-129733600D01*
X168136100Y-129733600D02*
X168771100Y-129098600D01*
X168771100Y-129098600D02*
X168771100Y-127828600D01*
X168771100Y-127828600D02*
X168136100Y-127193600D01*
X168136100Y-127193600D02*
X166866100Y-127193600D01*
X166866100Y-127193600D02*
X166231100Y-127828600D01*
X166231100Y-127828600D02*
X165596100Y-127193600D01*
X165596100Y-127193600D02*
X164326100Y-127193600D01*
X164326100Y-127193600D02*
X163691100Y-127828600D01*
X163691100Y-127828600D02*
X163056100Y-127193600D01*
X161786100Y-127193600D02*
X161151100Y-127828600D01*
X161151100Y-127828600D02*
X160516100Y-127193600D01*
X156706100Y-129733600D02*
X157976100Y-129733600D01*
X157976100Y-129733600D02*
X158611100Y-129098600D01*
X158611100Y-129098600D02*
X159246100Y-129733600D01*
X159246100Y-129733600D02*
X160516100Y-129733600D01*
X160516100Y-129733600D02*
X161151100Y-129098600D01*
X153531100Y-127828600D02*
X153531100Y-129098600D01*
X153531100Y-129098600D02*
X154166100Y-129733600D01*
X154166100Y-129733600D02*
X155436100Y-129733600D01*
X155436100Y-129733600D02*
X156071100Y-129098600D01*
X156071100Y-129098600D02*
X156706100Y-129733600D01*
X135751100Y-129098600D02*
X135116100Y-129733600D01*
X135116100Y-129733600D02*
X133846100Y-129733600D01*
X133846100Y-129733600D02*
X133211100Y-129098600D01*
X136386100Y-129733600D02*
X137656100Y-129733600D01*
X142736100Y-129733600D02*
X141466100Y-129733600D01*
X141466100Y-129733600D02*
X140831100Y-129098600D01*
X140831100Y-129098600D02*
X140196100Y-129733600D01*
X140196100Y-129733600D02*
X138926100Y-129733600D01*
X138926100Y-129733600D02*
X138291100Y-129098600D01*
X138291100Y-129098600D02*
X137656100Y-129733600D01*
X136386100Y-129733600D02*
X135751100Y-129098600D01*
X145276100Y-127193600D02*
X145911100Y-127828600D01*
X145911100Y-127828600D02*
X146546100Y-127193600D01*
X146546100Y-127193600D02*
X147816100Y-127193600D01*
X147816100Y-127193600D02*
X148451100Y-127828600D01*
X148451100Y-127828600D02*
X149086100Y-127193600D01*
X149086100Y-127193600D02*
X150356100Y-127193600D01*
X150356100Y-127193600D02*
X150991100Y-127828600D01*
X150991100Y-127828600D02*
X150991100Y-129098600D01*
X150991100Y-129098600D02*
X150356100Y-129733600D01*
X150356100Y-129733600D02*
X149086100Y-129733600D01*
X149086100Y-129733600D02*
X148451100Y-129098600D01*
X148451100Y-129098600D02*
X147816100Y-129733600D01*
X147816100Y-129733600D02*
X146546100Y-129733600D01*
X146546100Y-129733600D02*
X145911100Y-129098600D01*
X145911100Y-129098600D02*
X145276100Y-129733600D01*
X145276100Y-129733600D02*
X144006100Y-129733600D01*
X144006100Y-129733600D02*
X143371100Y-129098600D01*
X143371100Y-129098600D02*
X142736100Y-129733600D01*
X133211100Y-127828600D02*
X133846100Y-127193600D01*
X133846100Y-127193600D02*
X135116100Y-127193600D01*
X135116100Y-127193600D02*
X135751100Y-127828600D01*
X135751100Y-127828600D02*
X136386100Y-127193600D01*
X136386100Y-127193600D02*
X137656100Y-127193600D01*
X137656100Y-127193600D02*
X138291100Y-127828600D01*
X138291100Y-127828600D02*
X138926100Y-127193600D01*
X138926100Y-127193600D02*
X140196100Y-127193600D01*
X140196100Y-127193600D02*
X140831100Y-127828600D01*
X140831100Y-127828600D02*
X141466100Y-127193600D01*
X141466100Y-127193600D02*
X142736100Y-127193600D01*
X142736100Y-127193600D02*
X143371100Y-127828600D01*
X143371100Y-127828600D02*
X144006100Y-127193600D01*
X144006100Y-127193600D02*
X145276100Y-127193600D01*
X132576100Y-129733600D02*
X131306100Y-129733600D01*
X131306100Y-129733600D02*
X130671100Y-129098600D01*
X130671100Y-129098600D02*
X130671100Y-127828600D01*
X130671100Y-127828600D02*
X131306100Y-127193600D01*
X131306100Y-127193600D02*
X132576100Y-127193600D01*
X132576100Y-127193600D02*
X133211100Y-127828600D01*
X133211100Y-127828600D02*
X133211100Y-129098600D01*
X133211100Y-129098600D02*
X132576100Y-129733600D01*
D12*
G36*
X159532814Y-89386477D02*
X155785958Y-85640330D01*
X152039810Y-89387186D01*
X148293663Y-93134043D01*
X155711967Y-100550941D01*
X155711967Y-100268241D01*
X155670959Y-100262733D01*
X155589873Y-100185629D01*
X155400098Y-99999597D01*
X155112595Y-99715532D01*
X154738324Y-99344328D01*
X154288247Y-98896881D01*
X153773324Y-98384086D01*
X153204516Y-97816838D01*
X152592784Y-97206033D01*
X152040600Y-96654089D01*
X148534221Y-93147512D01*
X152160077Y-89520921D01*
X155785933Y-85894329D01*
X163025671Y-93132599D01*
X159410305Y-96748699D01*
X158645367Y-97512763D01*
X157990758Y-98164076D01*
X157438029Y-98710579D01*
X156978734Y-99160208D01*
X156604423Y-99520904D01*
X156306649Y-99800605D01*
X156076965Y-100007251D01*
X155906922Y-100148779D01*
X155788072Y-100233130D01*
X155711967Y-100268241D01*
X155711967Y-100550941D01*
X155787377Y-100626337D01*
X159533524Y-96879481D01*
X163279671Y-93132624D01*
X159532814Y-89386477D01*
X159532814Y-89386477D01*
G37*
X159532814Y-89386477D02*
X155785958Y-85640330D01*
X152039810Y-89387186D01*
X148293663Y-93134043D01*
X155711967Y-100550941D01*
X155711967Y-100268241D01*
X155670959Y-100262733D01*
X155589873Y-100185629D01*
X155400098Y-99999597D01*
X155112595Y-99715532D01*
X154738324Y-99344328D01*
X154288247Y-98896881D01*
X153773324Y-98384086D01*
X153204516Y-97816838D01*
X152592784Y-97206033D01*
X152040600Y-96654089D01*
X148534221Y-93147512D01*
X152160077Y-89520921D01*
X155785933Y-85894329D01*
X163025671Y-93132599D01*
X159410305Y-96748699D01*
X158645367Y-97512763D01*
X157990758Y-98164076D01*
X157438029Y-98710579D01*
X156978734Y-99160208D01*
X156604423Y-99520904D01*
X156306649Y-99800605D01*
X156076965Y-100007251D01*
X155906922Y-100148779D01*
X155788072Y-100233130D01*
X155711967Y-100268241D01*
X155711967Y-100550941D01*
X155787377Y-100626337D01*
X159533524Y-96879481D01*
X163279671Y-93132624D01*
X159532814Y-89386477D01*
G36*
X152844500Y-119356228D02*
X152399622Y-119369749D01*
X152098782Y-119388683D01*
X151916697Y-119416705D01*
X151828079Y-119457491D01*
X151807334Y-119507000D01*
X151841255Y-119570089D01*
X151961016Y-119615155D01*
X152193610Y-119647903D01*
X152566031Y-119674036D01*
X152608752Y-119676333D01*
X152973489Y-119697824D01*
X153189956Y-119718772D01*
X153279112Y-119744543D01*
X153261918Y-119780506D01*
X153180252Y-119822685D01*
X152993072Y-119949364D01*
X152974770Y-120081912D01*
X153125098Y-120217864D01*
X153225500Y-120269499D01*
X153341315Y-120326355D01*
X153378599Y-120364109D01*
X153316812Y-120387984D01*
X153135413Y-120403199D01*
X152813862Y-120414974D01*
X152632834Y-120420129D01*
X152219998Y-120437141D01*
X151953215Y-120463210D01*
X151809292Y-120502053D01*
X151765031Y-120557389D01*
X151765000Y-120559237D01*
X151833519Y-120685767D01*
X151898925Y-120725608D01*
X152035215Y-120746644D01*
X152299579Y-120763516D01*
X152650771Y-120774220D01*
X152957259Y-120777000D01*
X153362086Y-120775859D01*
X153627167Y-120768050D01*
X153782089Y-120746996D01*
X153856439Y-120706118D01*
X153879804Y-120638839D01*
X153881667Y-120571479D01*
X153811950Y-120361243D01*
X153665125Y-120195625D01*
X153448583Y-120025293D01*
X153665125Y-119883409D01*
X153840371Y-119695026D01*
X153881667Y-119536990D01*
X153881667Y-119332455D01*
X152844500Y-119356228D01*
X152844500Y-119356228D01*
G37*
X152844500Y-119356228D02*
X152399622Y-119369749D01*
X152098782Y-119388683D01*
X151916697Y-119416705D01*
X151828079Y-119457491D01*
X151807334Y-119507000D01*
X151841255Y-119570089D01*
X151961016Y-119615155D01*
X152193610Y-119647903D01*
X152566031Y-119674036D01*
X152608752Y-119676333D01*
X152973489Y-119697824D01*
X153189956Y-119718772D01*
X153279112Y-119744543D01*
X153261918Y-119780506D01*
X153180252Y-119822685D01*
X152993072Y-119949364D01*
X152974770Y-120081912D01*
X153125098Y-120217864D01*
X153225500Y-120269499D01*
X153341315Y-120326355D01*
X153378599Y-120364109D01*
X153316812Y-120387984D01*
X153135413Y-120403199D01*
X152813862Y-120414974D01*
X152632834Y-120420129D01*
X152219998Y-120437141D01*
X151953215Y-120463210D01*
X151809292Y-120502053D01*
X151765031Y-120557389D01*
X151765000Y-120559237D01*
X151833519Y-120685767D01*
X151898925Y-120725608D01*
X152035215Y-120746644D01*
X152299579Y-120763516D01*
X152650771Y-120774220D01*
X152957259Y-120777000D01*
X153362086Y-120775859D01*
X153627167Y-120768050D01*
X153782089Y-120746996D01*
X153856439Y-120706118D01*
X153879804Y-120638839D01*
X153881667Y-120571479D01*
X153811950Y-120361243D01*
X153665125Y-120195625D01*
X153448583Y-120025293D01*
X153665125Y-119883409D01*
X153840371Y-119695026D01*
X153881667Y-119536990D01*
X153881667Y-119332455D01*
X152844500Y-119356228D01*
G36*
X153257019Y-117820941D02*
X153147812Y-117633004D01*
X152922082Y-117523981D01*
X152557649Y-117476045D01*
X152484667Y-117472842D01*
X152199063Y-117464752D01*
X151980279Y-117462320D01*
X151892000Y-117464926D01*
X151828868Y-117548851D01*
X151792400Y-117746931D01*
X151782332Y-118006145D01*
X151798401Y-118273469D01*
X151840344Y-118495880D01*
X151897693Y-118611597D01*
X152096172Y-118716782D01*
X152273000Y-118732603D01*
X152273000Y-118406333D01*
X152145240Y-118362468D01*
X152105241Y-118203944D01*
X152104964Y-118173500D01*
X152131809Y-117956101D01*
X152180164Y-117823986D01*
X152283487Y-117744779D01*
X152375925Y-117808113D01*
X152433779Y-117987684D01*
X152442334Y-118114997D01*
X152422674Y-118317131D01*
X152346295Y-118397630D01*
X152273000Y-118406333D01*
X152273000Y-118732603D01*
X152344124Y-118738967D01*
X152556498Y-118674270D01*
X152594734Y-118643400D01*
X152654666Y-118503337D01*
X152691155Y-118263564D01*
X152696334Y-118128345D01*
X152722639Y-117857778D01*
X152786184Y-117746512D01*
X152863918Y-117795609D01*
X152932786Y-118006134D01*
X152950334Y-118116618D01*
X153016158Y-118367117D01*
X153110039Y-118459242D01*
X153202809Y-118393990D01*
X153265303Y-118172359D01*
X153271882Y-118105619D01*
X153257019Y-117820941D01*
X153257019Y-117820941D01*
G37*
X153257019Y-117820941D02*
X153147812Y-117633004D01*
X152922082Y-117523981D01*
X152557649Y-117476045D01*
X152484667Y-117472842D01*
X152199063Y-117464752D01*
X151980279Y-117462320D01*
X151892000Y-117464926D01*
X151828868Y-117548851D01*
X151792400Y-117746931D01*
X151782332Y-118006145D01*
X151798401Y-118273469D01*
X151840344Y-118495880D01*
X151897693Y-118611597D01*
X152096172Y-118716782D01*
X152273000Y-118732603D01*
X152273000Y-118406333D01*
X152145240Y-118362468D01*
X152105241Y-118203944D01*
X152104964Y-118173500D01*
X152131809Y-117956101D01*
X152180164Y-117823986D01*
X152283487Y-117744779D01*
X152375925Y-117808113D01*
X152433779Y-117987684D01*
X152442334Y-118114997D01*
X152422674Y-118317131D01*
X152346295Y-118397630D01*
X152273000Y-118406333D01*
X152273000Y-118732603D01*
X152344124Y-118738967D01*
X152556498Y-118674270D01*
X152594734Y-118643400D01*
X152654666Y-118503337D01*
X152691155Y-118263564D01*
X152696334Y-118128345D01*
X152722639Y-117857778D01*
X152786184Y-117746512D01*
X152863918Y-117795609D01*
X152932786Y-118006134D01*
X152950334Y-118116618D01*
X153016158Y-118367117D01*
X153110039Y-118459242D01*
X153202809Y-118393990D01*
X153265303Y-118172359D01*
X153271882Y-118105619D01*
X153257019Y-117820941D01*
G36*
X153751113Y-116602142D02*
X153595230Y-116556174D01*
X153302019Y-116529346D01*
X153241106Y-116526369D01*
X152685212Y-116501333D01*
X152998470Y-116135931D01*
X153175809Y-115911438D01*
X153243378Y-115769492D01*
X153215780Y-115677725D01*
X153208557Y-115670265D01*
X153118063Y-115637299D01*
X152993575Y-115713369D01*
X152835160Y-115879664D01*
X152564937Y-116189327D01*
X152287188Y-115858497D01*
X152082884Y-115651244D01*
X151909978Y-115540211D01*
X151795770Y-115537866D01*
X151765000Y-115620041D01*
X151816397Y-115732124D01*
X151948176Y-115919582D01*
X152058766Y-116055614D01*
X152243316Y-116296569D01*
X152295875Y-116446736D01*
X152214864Y-116523340D01*
X152014004Y-116543667D01*
X151816035Y-116582166D01*
X151765000Y-116670667D01*
X151790474Y-116725422D01*
X151884166Y-116762259D01*
X152071979Y-116784416D01*
X152379820Y-116795130D01*
X152781000Y-116797667D01*
X153221261Y-116794256D01*
X153517592Y-116781978D01*
X153695297Y-116757767D01*
X153779680Y-116718556D01*
X153797000Y-116674535D01*
X153751113Y-116602142D01*
X153751113Y-116602142D01*
G37*
X153751113Y-116602142D02*
X153595230Y-116556174D01*
X153302019Y-116529346D01*
X153241106Y-116526369D01*
X152685212Y-116501333D01*
X152998470Y-116135931D01*
X153175809Y-115911438D01*
X153243378Y-115769492D01*
X153215780Y-115677725D01*
X153208557Y-115670265D01*
X153118063Y-115637299D01*
X152993575Y-115713369D01*
X152835160Y-115879664D01*
X152564937Y-116189327D01*
X152287188Y-115858497D01*
X152082884Y-115651244D01*
X151909978Y-115540211D01*
X151795770Y-115537866D01*
X151765000Y-115620041D01*
X151816397Y-115732124D01*
X151948176Y-115919582D01*
X152058766Y-116055614D01*
X152243316Y-116296569D01*
X152295875Y-116446736D01*
X152214864Y-116523340D01*
X152014004Y-116543667D01*
X151816035Y-116582166D01*
X151765000Y-116670667D01*
X151790474Y-116725422D01*
X151884166Y-116762259D01*
X152071979Y-116784416D01*
X152379820Y-116795130D01*
X152781000Y-116797667D01*
X153221261Y-116794256D01*
X153517592Y-116781978D01*
X153695297Y-116757767D01*
X153779680Y-116718556D01*
X153797000Y-116674535D01*
X153751113Y-116602142D01*
G36*
X153183926Y-113837267D02*
X153010685Y-113619302D01*
X152765547Y-113503685D01*
X152674782Y-113495667D01*
X152456037Y-113542676D01*
X152327897Y-113698321D01*
X152275913Y-113984529D01*
X152273000Y-114105267D01*
X152257174Y-114341143D01*
X152216869Y-114487774D01*
X152188334Y-114511667D01*
X152139525Y-114435629D01*
X152108930Y-114241678D01*
X152103667Y-114098700D01*
X152076455Y-113823329D01*
X152006436Y-113620561D01*
X151911039Y-113524016D01*
X151820710Y-113552846D01*
X151773758Y-113690764D01*
X151761732Y-113931752D01*
X151780403Y-114214136D01*
X151825539Y-114476239D01*
X151892910Y-114656390D01*
X151896801Y-114662161D01*
X152085756Y-114800303D01*
X152365650Y-114862673D01*
X152676182Y-114849661D01*
X152759834Y-114823450D01*
X152759834Y-114495549D01*
X152664403Y-114484376D01*
X152620903Y-114376421D01*
X152611667Y-114173000D01*
X152624138Y-113949276D01*
X152673234Y-113855659D01*
X152759834Y-113850452D01*
X152869062Y-113929458D01*
X152907415Y-114130988D01*
X152908000Y-114173000D01*
X152878786Y-114395372D01*
X152780949Y-114490320D01*
X152759834Y-114495549D01*
X152759834Y-114823450D01*
X152957051Y-114761655D01*
X153104909Y-114654377D01*
X153247775Y-114399891D01*
X153268535Y-114112492D01*
X153183926Y-113837267D01*
X153183926Y-113837267D01*
G37*
X153183926Y-113837267D02*
X153010685Y-113619302D01*
X152765547Y-113503685D01*
X152674782Y-113495667D01*
X152456037Y-113542676D01*
X152327897Y-113698321D01*
X152275913Y-113984529D01*
X152273000Y-114105267D01*
X152257174Y-114341143D01*
X152216869Y-114487774D01*
X152188334Y-114511667D01*
X152139525Y-114435629D01*
X152108930Y-114241678D01*
X152103667Y-114098700D01*
X152076455Y-113823329D01*
X152006436Y-113620561D01*
X151911039Y-113524016D01*
X151820710Y-113552846D01*
X151773758Y-113690764D01*
X151761732Y-113931752D01*
X151780403Y-114214136D01*
X151825539Y-114476239D01*
X151892910Y-114656390D01*
X151896801Y-114662161D01*
X152085756Y-114800303D01*
X152365650Y-114862673D01*
X152676182Y-114849661D01*
X152759834Y-114823450D01*
X152759834Y-114495549D01*
X152664403Y-114484376D01*
X152620903Y-114376421D01*
X152611667Y-114173000D01*
X152624138Y-113949276D01*
X152673234Y-113855659D01*
X152759834Y-113850452D01*
X152869062Y-113929458D01*
X152907415Y-114130988D01*
X152908000Y-114173000D01*
X152878786Y-114395372D01*
X152780949Y-114490320D01*
X152759834Y-114495549D01*
X152759834Y-114823450D01*
X152957051Y-114761655D01*
X153104909Y-114654377D01*
X153247775Y-114399891D01*
X153268535Y-114112492D01*
X153183926Y-113837267D01*
G36*
X153237866Y-111881139D02*
X153105605Y-111704429D01*
X152960032Y-111646999D01*
X152774796Y-111654270D01*
X152660473Y-111714095D01*
X152648261Y-111793458D01*
X152761294Y-111857315D01*
X152916868Y-111960847D01*
X152931274Y-112142759D01*
X152804137Y-112387353D01*
X152774855Y-112425915D01*
X152634325Y-112566368D01*
X152460910Y-112632341D01*
X152187759Y-112648997D01*
X152182189Y-112649000D01*
X151918130Y-112662975D01*
X151790297Y-112711248D01*
X151765000Y-112776000D01*
X151795856Y-112839683D01*
X151908135Y-112878574D01*
X152131405Y-112897926D01*
X152479670Y-112903000D01*
X152854641Y-112889815D01*
X153121301Y-112853772D01*
X153263263Y-112800136D01*
X153264141Y-112734172D01*
X153167827Y-112681854D01*
X153087706Y-112630374D01*
X153099077Y-112536473D01*
X153179518Y-112388146D01*
X153267311Y-112125279D01*
X153237866Y-111881139D01*
X153237866Y-111881139D01*
G37*
X153237866Y-111881139D02*
X153105605Y-111704429D01*
X152960032Y-111646999D01*
X152774796Y-111654270D01*
X152660473Y-111714095D01*
X152648261Y-111793458D01*
X152761294Y-111857315D01*
X152916868Y-111960847D01*
X152931274Y-112142759D01*
X152804137Y-112387353D01*
X152774855Y-112425915D01*
X152634325Y-112566368D01*
X152460910Y-112632341D01*
X152187759Y-112648997D01*
X152182189Y-112649000D01*
X151918130Y-112662975D01*
X151790297Y-112711248D01*
X151765000Y-112776000D01*
X151795856Y-112839683D01*
X151908135Y-112878574D01*
X152131405Y-112897926D01*
X152479670Y-112903000D01*
X152854641Y-112889815D01*
X153121301Y-112853772D01*
X153263263Y-112800136D01*
X153264141Y-112734172D01*
X153167827Y-112681854D01*
X153087706Y-112630374D01*
X153099077Y-112536473D01*
X153179518Y-112388146D01*
X153267311Y-112125279D01*
X153237866Y-111881139D01*
G36*
X153863118Y-108836412D02*
X153806172Y-108793394D01*
X153666514Y-108768604D01*
X153415817Y-108757199D01*
X153025755Y-108754339D01*
X152998875Y-108754333D01*
X152103667Y-108754333D01*
X152103667Y-108255392D01*
X152087218Y-107931445D01*
X152035057Y-107754511D01*
X151984945Y-107710892D01*
X151882611Y-107690921D01*
X151817556Y-107743549D01*
X151781716Y-107895230D01*
X151767026Y-108172417D01*
X151765000Y-108432384D01*
X151765000Y-109098212D01*
X152801136Y-109074439D01*
X153240436Y-109061736D01*
X153538256Y-109044456D01*
X153722450Y-109018100D01*
X153820871Y-108978171D01*
X153861373Y-108920169D01*
X153865678Y-108902500D01*
X153863118Y-108836412D01*
X153863118Y-108836412D01*
G37*
X153863118Y-108836412D02*
X153806172Y-108793394D01*
X153666514Y-108768604D01*
X153415817Y-108757199D01*
X153025755Y-108754339D01*
X152998875Y-108754333D01*
X152103667Y-108754333D01*
X152103667Y-108255392D01*
X152087218Y-107931445D01*
X152035057Y-107754511D01*
X151984945Y-107710892D01*
X151882611Y-107690921D01*
X151817556Y-107743549D01*
X151781716Y-107895230D01*
X151767026Y-108172417D01*
X151765000Y-108432384D01*
X151765000Y-109098212D01*
X152801136Y-109074439D01*
X153240436Y-109061736D01*
X153538256Y-109044456D01*
X153722450Y-109018100D01*
X153820871Y-108978171D01*
X153861373Y-108920169D01*
X153865678Y-108902500D01*
X153863118Y-108836412D01*
G36*
X153265028Y-106149421D02*
X153168740Y-105956712D01*
X152962615Y-105844409D01*
X152624696Y-105796185D01*
X152402034Y-105791000D01*
X151795312Y-105791000D01*
X151783719Y-106277833D01*
X151791652Y-106572148D01*
X151824375Y-106813088D01*
X151857437Y-106912833D01*
X152002297Y-107018649D01*
X152228606Y-107060600D01*
X152251834Y-107057900D01*
X152251834Y-106791348D01*
X152148466Y-106775179D01*
X152108239Y-106647800D01*
X152104964Y-106538042D01*
X152129075Y-106303528D01*
X152185330Y-106131613D01*
X152186105Y-106130375D01*
X152285526Y-106053996D01*
X152372421Y-106115346D01*
X152425035Y-106283072D01*
X152427334Y-106478041D01*
X152362009Y-106712296D01*
X152251834Y-106791348D01*
X152251834Y-107057900D01*
X152459086Y-107033805D01*
X152594734Y-106959400D01*
X152658122Y-106815940D01*
X152693602Y-106580230D01*
X152696334Y-106493733D01*
X152727187Y-106236490D01*
X152799861Y-106120283D01*
X152884529Y-106150255D01*
X152951365Y-106331550D01*
X152966390Y-106447167D01*
X153021342Y-106688570D01*
X153111680Y-106775781D01*
X153204776Y-106709682D01*
X153268004Y-106491156D01*
X153273440Y-106438862D01*
X153265028Y-106149421D01*
X153265028Y-106149421D01*
G37*
X153265028Y-106149421D02*
X153168740Y-105956712D01*
X152962615Y-105844409D01*
X152624696Y-105796185D01*
X152402034Y-105791000D01*
X151795312Y-105791000D01*
X151783719Y-106277833D01*
X151791652Y-106572148D01*
X151824375Y-106813088D01*
X151857437Y-106912833D01*
X152002297Y-107018649D01*
X152228606Y-107060600D01*
X152251834Y-107057900D01*
X152251834Y-106791348D01*
X152148466Y-106775179D01*
X152108239Y-106647800D01*
X152104964Y-106538042D01*
X152129075Y-106303528D01*
X152185330Y-106131613D01*
X152186105Y-106130375D01*
X152285526Y-106053996D01*
X152372421Y-106115346D01*
X152425035Y-106283072D01*
X152427334Y-106478041D01*
X152362009Y-106712296D01*
X152251834Y-106791348D01*
X152251834Y-107057900D01*
X152459086Y-107033805D01*
X152594734Y-106959400D01*
X152658122Y-106815940D01*
X152693602Y-106580230D01*
X152696334Y-106493733D01*
X152727187Y-106236490D01*
X152799861Y-106120283D01*
X152884529Y-106150255D01*
X152951365Y-106331550D01*
X152966390Y-106447167D01*
X153021342Y-106688570D01*
X153111680Y-106775781D01*
X153204776Y-106709682D01*
X153268004Y-106491156D01*
X153273440Y-106438862D01*
X153265028Y-106149421D01*
G36*
X153693248Y-104852245D02*
X153494586Y-104818032D01*
X153445420Y-104817333D01*
X153247265Y-104806206D01*
X153184298Y-104759171D01*
X153212587Y-104674733D01*
X153286352Y-104396741D01*
X153222383Y-104146767D01*
X153052036Y-103943768D01*
X152806667Y-103806698D01*
X152517632Y-103754514D01*
X152216287Y-103806172D01*
X151988085Y-103934479D01*
X151827674Y-104143000D01*
X151760123Y-104403600D01*
X151795335Y-104649147D01*
X151866600Y-104758067D01*
X151925505Y-104841962D01*
X151866600Y-104859667D01*
X151774281Y-104910442D01*
X151790454Y-105011850D01*
X151876558Y-105077123D01*
X152004023Y-105092747D01*
X152259488Y-105100941D01*
X152533567Y-105100938D01*
X152533567Y-104775000D01*
X152273198Y-104715693D01*
X152135890Y-104546090D01*
X152121195Y-104352262D01*
X152154548Y-104220635D01*
X152246061Y-104158523D01*
X152444213Y-104140568D01*
X152527000Y-104140000D01*
X152766321Y-104151127D01*
X152885110Y-104199844D01*
X152931541Y-104309156D01*
X152935667Y-104335160D01*
X152901784Y-104581403D01*
X152736039Y-104735664D01*
X152533567Y-104775000D01*
X152533567Y-105100938D01*
X152601748Y-105100937D01*
X152871391Y-105095633D01*
X153277925Y-105080163D01*
X153541956Y-105057471D01*
X153690294Y-105022965D01*
X153749751Y-104972053D01*
X153754667Y-104944333D01*
X153693248Y-104852245D01*
X153693248Y-104852245D01*
G37*
X153693248Y-104852245D02*
X153494586Y-104818032D01*
X153445420Y-104817333D01*
X153247265Y-104806206D01*
X153184298Y-104759171D01*
X153212587Y-104674733D01*
X153286352Y-104396741D01*
X153222383Y-104146767D01*
X153052036Y-103943768D01*
X152806667Y-103806698D01*
X152517632Y-103754514D01*
X152216287Y-103806172D01*
X151988085Y-103934479D01*
X151827674Y-104143000D01*
X151760123Y-104403600D01*
X151795335Y-104649147D01*
X151866600Y-104758067D01*
X151925505Y-104841962D01*
X151866600Y-104859667D01*
X151774281Y-104910442D01*
X151790454Y-105011850D01*
X151876558Y-105077123D01*
X152004023Y-105092747D01*
X152259488Y-105100941D01*
X152533567Y-105100938D01*
X152533567Y-104775000D01*
X152273198Y-104715693D01*
X152135890Y-104546090D01*
X152121195Y-104352262D01*
X152154548Y-104220635D01*
X152246061Y-104158523D01*
X152444213Y-104140568D01*
X152527000Y-104140000D01*
X152766321Y-104151127D01*
X152885110Y-104199844D01*
X152931541Y-104309156D01*
X152935667Y-104335160D01*
X152901784Y-104581403D01*
X152736039Y-104735664D01*
X152533567Y-104775000D01*
X152533567Y-105100938D01*
X152601748Y-105100937D01*
X152871391Y-105095633D01*
X153277925Y-105080163D01*
X153541956Y-105057471D01*
X153690294Y-105022965D01*
X153749751Y-104972053D01*
X153754667Y-104944333D01*
X153693248Y-104852245D01*
G36*
X159383622Y-116885377D02*
X159379700Y-116227062D01*
X159373554Y-115639160D01*
X159365504Y-115141613D01*
X159355871Y-114754357D01*
X159344974Y-114497334D01*
X159333609Y-114391592D01*
X159271096Y-114321199D01*
X159128165Y-114279655D01*
X158871708Y-114260753D01*
X158618939Y-114257667D01*
X158299401Y-114267674D01*
X158049486Y-114294196D01*
X157913990Y-114331981D01*
X157903866Y-114341472D01*
X157812640Y-114353157D01*
X157671238Y-114256806D01*
X157454341Y-114116385D01*
X157267850Y-114106217D01*
X157148146Y-114228140D01*
X157147281Y-114230365D01*
X157146847Y-114391250D01*
X157235679Y-114520694D01*
X157364208Y-114570400D01*
X157395334Y-114556120D01*
X157395334Y-114342333D01*
X157353000Y-114300000D01*
X157395334Y-114257667D01*
X157437667Y-114300000D01*
X157395334Y-114342333D01*
X157395334Y-114556120D01*
X157453996Y-114529205D01*
X157566567Y-114440283D01*
X157602767Y-114426967D01*
X157612709Y-114508515D01*
X157620699Y-114740754D01*
X157626598Y-115105051D01*
X157630267Y-115582771D01*
X157631567Y-116155284D01*
X157630359Y-116803954D01*
X157626504Y-117510150D01*
X157626143Y-117559633D01*
X157602953Y-120692333D01*
X156506334Y-120692333D01*
X156506334Y-117549300D01*
X156507091Y-116727245D01*
X156509737Y-116060027D01*
X156514834Y-115533157D01*
X156522944Y-115132143D01*
X156534627Y-114842495D01*
X156550446Y-114649722D01*
X156570963Y-114539334D01*
X156596738Y-114496840D01*
X156624364Y-114504222D01*
X156718000Y-114528093D01*
X156718000Y-114342333D01*
X156675667Y-114300000D01*
X156718000Y-114257667D01*
X156760334Y-114300000D01*
X156718000Y-114342333D01*
X156718000Y-114528093D01*
X156767909Y-114540818D01*
X156897873Y-114465373D01*
X156961546Y-114330596D01*
X156922223Y-114206363D01*
X156749030Y-114095383D01*
X156565990Y-114151756D01*
X156525952Y-114187248D01*
X156389799Y-114237683D01*
X156113559Y-114273725D01*
X155726126Y-114291918D01*
X155641186Y-114293082D01*
X154855334Y-114300000D01*
X154811008Y-120756220D01*
X155030511Y-120900044D01*
X155258553Y-120996956D01*
X155292778Y-120989580D01*
X155292778Y-120833445D01*
X155242444Y-120821822D01*
X155236334Y-120777000D01*
X155267312Y-120707310D01*
X155292778Y-120720556D01*
X155302911Y-120821035D01*
X155292778Y-120833445D01*
X155292778Y-120989580D01*
X155420506Y-120962048D01*
X155489560Y-120802492D01*
X155490334Y-120777000D01*
X155426855Y-120604117D01*
X155276409Y-120541813D01*
X155108256Y-120608562D01*
X155075499Y-120620175D01*
X155048874Y-120585284D01*
X155027765Y-120488997D01*
X155011554Y-120316425D01*
X154999623Y-120052675D01*
X154991356Y-119682856D01*
X154986136Y-119192077D01*
X154983346Y-118565447D01*
X154982368Y-117788074D01*
X154982334Y-117570034D01*
X154982334Y-114427000D01*
X156167667Y-114427000D01*
X156167667Y-117523039D01*
X156167355Y-118328193D01*
X156165872Y-118979867D01*
X156162400Y-119493911D01*
X156156120Y-119886178D01*
X156146212Y-120172519D01*
X156131858Y-120368786D01*
X156112239Y-120490832D01*
X156086535Y-120554508D01*
X156053927Y-120575666D01*
X156013598Y-120570158D01*
X156010287Y-120569127D01*
X155832665Y-120575701D01*
X155716646Y-120682607D01*
X155705157Y-120835794D01*
X155744334Y-120904000D01*
X155860655Y-121011221D01*
X155974445Y-121001192D01*
X156141127Y-120868210D01*
X156147238Y-120862528D01*
X156294887Y-120763903D01*
X156379866Y-120777861D01*
X156483030Y-120820801D01*
X156697972Y-120848396D01*
X156976846Y-120860874D01*
X157271804Y-120858461D01*
X157535003Y-120841384D01*
X157718595Y-120809871D01*
X157776334Y-120771235D01*
X157829237Y-120757304D01*
X157829237Y-119465970D01*
X157824738Y-119412563D01*
X157820904Y-119213852D01*
X157817867Y-118877847D01*
X157815755Y-118412557D01*
X157814699Y-117825993D01*
X157814602Y-117559667D01*
X157815200Y-116926912D01*
X157816905Y-116412233D01*
X157819589Y-116023640D01*
X157823120Y-115769143D01*
X157827369Y-115656751D01*
X157832205Y-115694475D01*
X157837499Y-115890323D01*
X157839711Y-116014500D01*
X157847013Y-116668572D01*
X157849992Y-117414595D01*
X157848648Y-118175241D01*
X157842981Y-118873182D01*
X157839711Y-119104833D01*
X157834271Y-119366064D01*
X157829237Y-119465970D01*
X157829237Y-120757304D01*
X157835226Y-120755726D01*
X157981761Y-120828922D01*
X158033339Y-120863807D01*
X158262715Y-120980622D01*
X158340778Y-120983066D01*
X158340778Y-120833445D01*
X158290444Y-120821822D01*
X158284334Y-120777000D01*
X158315312Y-120707310D01*
X158340778Y-120720556D01*
X158350911Y-120821035D01*
X158340778Y-120833445D01*
X158340778Y-120983066D01*
X158440975Y-120986205D01*
X158532871Y-120882750D01*
X158538334Y-120832358D01*
X158478490Y-120681567D01*
X158411334Y-120607667D01*
X158275821Y-120544948D01*
X158157334Y-120607667D01*
X158124317Y-120620029D01*
X158097485Y-120586883D01*
X158076213Y-120493298D01*
X158059876Y-120324344D01*
X158047851Y-120065090D01*
X158039513Y-119700607D01*
X158034238Y-119215964D01*
X158031401Y-118596232D01*
X158030380Y-117826479D01*
X158030334Y-117570034D01*
X158030334Y-114427000D01*
X159131000Y-114427000D01*
X159131000Y-120578779D01*
X158940500Y-120572056D01*
X158778185Y-120620496D01*
X158722896Y-120756212D01*
X158749863Y-120936847D01*
X158873082Y-121004174D01*
X158933445Y-120986327D01*
X158933445Y-120833445D01*
X158883111Y-120821822D01*
X158877000Y-120777000D01*
X158907979Y-120707310D01*
X158933445Y-120720556D01*
X158943578Y-120821035D01*
X158933445Y-120833445D01*
X158933445Y-120986327D01*
X159056096Y-120950063D01*
X159177642Y-120857620D01*
X159385000Y-120662816D01*
X159385000Y-117594166D01*
X159383622Y-116885377D01*
X159383622Y-116885377D01*
G37*
X159383622Y-116885377D02*
X159379700Y-116227062D01*
X159373554Y-115639160D01*
X159365504Y-115141613D01*
X159355871Y-114754357D01*
X159344974Y-114497334D01*
X159333609Y-114391592D01*
X159271096Y-114321199D01*
X159128165Y-114279655D01*
X158871708Y-114260753D01*
X158618939Y-114257667D01*
X158299401Y-114267674D01*
X158049486Y-114294196D01*
X157913990Y-114331981D01*
X157903866Y-114341472D01*
X157812640Y-114353157D01*
X157671238Y-114256806D01*
X157454341Y-114116385D01*
X157267850Y-114106217D01*
X157148146Y-114228140D01*
X157147281Y-114230365D01*
X157146847Y-114391250D01*
X157235679Y-114520694D01*
X157364208Y-114570400D01*
X157395334Y-114556120D01*
X157395334Y-114342333D01*
X157353000Y-114300000D01*
X157395334Y-114257667D01*
X157437667Y-114300000D01*
X157395334Y-114342333D01*
X157395334Y-114556120D01*
X157453996Y-114529205D01*
X157566567Y-114440283D01*
X157602767Y-114426967D01*
X157612709Y-114508515D01*
X157620699Y-114740754D01*
X157626598Y-115105051D01*
X157630267Y-115582771D01*
X157631567Y-116155284D01*
X157630359Y-116803954D01*
X157626504Y-117510150D01*
X157626143Y-117559633D01*
X157602953Y-120692333D01*
X156506334Y-120692333D01*
X156506334Y-117549300D01*
X156507091Y-116727245D01*
X156509737Y-116060027D01*
X156514834Y-115533157D01*
X156522944Y-115132143D01*
X156534627Y-114842495D01*
X156550446Y-114649722D01*
X156570963Y-114539334D01*
X156596738Y-114496840D01*
X156624364Y-114504222D01*
X156718000Y-114528093D01*
X156718000Y-114342333D01*
X156675667Y-114300000D01*
X156718000Y-114257667D01*
X156760334Y-114300000D01*
X156718000Y-114342333D01*
X156718000Y-114528093D01*
X156767909Y-114540818D01*
X156897873Y-114465373D01*
X156961546Y-114330596D01*
X156922223Y-114206363D01*
X156749030Y-114095383D01*
X156565990Y-114151756D01*
X156525952Y-114187248D01*
X156389799Y-114237683D01*
X156113559Y-114273725D01*
X155726126Y-114291918D01*
X155641186Y-114293082D01*
X154855334Y-114300000D01*
X154811008Y-120756220D01*
X155030511Y-120900044D01*
X155258553Y-120996956D01*
X155292778Y-120989580D01*
X155292778Y-120833445D01*
X155242444Y-120821822D01*
X155236334Y-120777000D01*
X155267312Y-120707310D01*
X155292778Y-120720556D01*
X155302911Y-120821035D01*
X155292778Y-120833445D01*
X155292778Y-120989580D01*
X155420506Y-120962048D01*
X155489560Y-120802492D01*
X155490334Y-120777000D01*
X155426855Y-120604117D01*
X155276409Y-120541813D01*
X155108256Y-120608562D01*
X155075499Y-120620175D01*
X155048874Y-120585284D01*
X155027765Y-120488997D01*
X155011554Y-120316425D01*
X154999623Y-120052675D01*
X154991356Y-119682856D01*
X154986136Y-119192077D01*
X154983346Y-118565447D01*
X154982368Y-117788074D01*
X154982334Y-117570034D01*
X154982334Y-114427000D01*
X156167667Y-114427000D01*
X156167667Y-117523039D01*
X156167355Y-118328193D01*
X156165872Y-118979867D01*
X156162400Y-119493911D01*
X156156120Y-119886178D01*
X156146212Y-120172519D01*
X156131858Y-120368786D01*
X156112239Y-120490832D01*
X156086535Y-120554508D01*
X156053927Y-120575666D01*
X156013598Y-120570158D01*
X156010287Y-120569127D01*
X155832665Y-120575701D01*
X155716646Y-120682607D01*
X155705157Y-120835794D01*
X155744334Y-120904000D01*
X155860655Y-121011221D01*
X155974445Y-121001192D01*
X156141127Y-120868210D01*
X156147238Y-120862528D01*
X156294887Y-120763903D01*
X156379866Y-120777861D01*
X156483030Y-120820801D01*
X156697972Y-120848396D01*
X156976846Y-120860874D01*
X157271804Y-120858461D01*
X157535003Y-120841384D01*
X157718595Y-120809871D01*
X157776334Y-120771235D01*
X157829237Y-120757304D01*
X157829237Y-119465970D01*
X157824738Y-119412563D01*
X157820904Y-119213852D01*
X157817867Y-118877847D01*
X157815755Y-118412557D01*
X157814699Y-117825993D01*
X157814602Y-117559667D01*
X157815200Y-116926912D01*
X157816905Y-116412233D01*
X157819589Y-116023640D01*
X157823120Y-115769143D01*
X157827369Y-115656751D01*
X157832205Y-115694475D01*
X157837499Y-115890323D01*
X157839711Y-116014500D01*
X157847013Y-116668572D01*
X157849992Y-117414595D01*
X157848648Y-118175241D01*
X157842981Y-118873182D01*
X157839711Y-119104833D01*
X157834271Y-119366064D01*
X157829237Y-119465970D01*
X157829237Y-120757304D01*
X157835226Y-120755726D01*
X157981761Y-120828922D01*
X158033339Y-120863807D01*
X158262715Y-120980622D01*
X158340778Y-120983066D01*
X158340778Y-120833445D01*
X158290444Y-120821822D01*
X158284334Y-120777000D01*
X158315312Y-120707310D01*
X158340778Y-120720556D01*
X158350911Y-120821035D01*
X158340778Y-120833445D01*
X158340778Y-120983066D01*
X158440975Y-120986205D01*
X158532871Y-120882750D01*
X158538334Y-120832358D01*
X158478490Y-120681567D01*
X158411334Y-120607667D01*
X158275821Y-120544948D01*
X158157334Y-120607667D01*
X158124317Y-120620029D01*
X158097485Y-120586883D01*
X158076213Y-120493298D01*
X158059876Y-120324344D01*
X158047851Y-120065090D01*
X158039513Y-119700607D01*
X158034238Y-119215964D01*
X158031401Y-118596232D01*
X158030380Y-117826479D01*
X158030334Y-117570034D01*
X158030334Y-114427000D01*
X159131000Y-114427000D01*
X159131000Y-120578779D01*
X158940500Y-120572056D01*
X158778185Y-120620496D01*
X158722896Y-120756212D01*
X158749863Y-120936847D01*
X158873082Y-121004174D01*
X158933445Y-120986327D01*
X158933445Y-120833445D01*
X158883111Y-120821822D01*
X158877000Y-120777000D01*
X158907979Y-120707310D01*
X158933445Y-120720556D01*
X158943578Y-120821035D01*
X158933445Y-120833445D01*
X158933445Y-120986327D01*
X159056096Y-120950063D01*
X159177642Y-120857620D01*
X159385000Y-120662816D01*
X159385000Y-117594166D01*
X159383622Y-116885377D01*
G36*
X159266923Y-111017531D02*
X159215291Y-110663273D01*
X159123557Y-110383297D01*
X158983781Y-110146182D01*
X158788024Y-109920506D01*
X158720360Y-109853402D01*
X158368986Y-109566086D01*
X157995539Y-109383106D01*
X157552730Y-109287783D01*
X157046844Y-109263161D01*
X156428444Y-109333536D01*
X155887736Y-109535303D01*
X155443615Y-109857196D01*
X155114980Y-110287947D01*
X155029159Y-110466114D01*
X154973737Y-110679110D01*
X154931862Y-110997116D01*
X154903687Y-111384962D01*
X154889366Y-111807480D01*
X154889051Y-112229503D01*
X154902895Y-112615861D01*
X154931053Y-112931386D01*
X154973676Y-113140911D01*
X155017219Y-113208191D01*
X155067000Y-113214662D01*
X155067000Y-113078926D01*
X155067473Y-112038463D01*
X155075280Y-111599467D01*
X155096136Y-111189576D01*
X155126790Y-110856746D01*
X155160984Y-110659333D01*
X155321532Y-110326947D01*
X155595600Y-109997517D01*
X155933640Y-109719626D01*
X156286102Y-109541859D01*
X156307470Y-109535184D01*
X156755419Y-109453311D01*
X157268630Y-109438846D01*
X157756818Y-109492279D01*
X157903054Y-109526553D01*
X158244562Y-109690148D01*
X158580800Y-109965001D01*
X158860157Y-110299501D01*
X159031020Y-110642034D01*
X159036115Y-110659613D01*
X159073343Y-110878796D01*
X159103680Y-111219204D01*
X159123828Y-111632766D01*
X159130528Y-112035167D01*
X159131000Y-113072333D01*
X158162331Y-113072333D01*
X157701988Y-113064236D01*
X157366949Y-113040981D01*
X157174564Y-113004125D01*
X157136775Y-112980291D01*
X157018641Y-112922446D01*
X156920112Y-112930031D01*
X156822960Y-112934641D01*
X156775507Y-112856571D01*
X156760858Y-112658103D01*
X156760334Y-112573340D01*
X156731683Y-112251803D01*
X156630714Y-112064030D01*
X156434903Y-111981942D01*
X156277734Y-111971667D01*
X155998334Y-111971667D01*
X155998334Y-111510721D01*
X156017805Y-111193354D01*
X156089976Y-110971703D01*
X156202670Y-110812221D01*
X156315359Y-110694310D01*
X156433273Y-110623617D01*
X156601696Y-110588139D01*
X156865911Y-110575876D01*
X157099000Y-110574667D01*
X157445801Y-110578534D01*
X157668594Y-110598138D01*
X157812662Y-110645480D01*
X157923289Y-110732561D01*
X157995331Y-110812221D01*
X158125985Y-111008038D01*
X158187047Y-111241834D01*
X158199667Y-111510721D01*
X158199667Y-111971667D01*
X157865997Y-111971667D01*
X157640511Y-111951931D01*
X157495926Y-111902912D01*
X157479859Y-111886771D01*
X157377820Y-111848759D01*
X157237349Y-111905377D01*
X157125158Y-112018521D01*
X157099000Y-112104303D01*
X157166769Y-112242678D01*
X157334484Y-112293167D01*
X157353000Y-112288550D01*
X157353000Y-112141000D01*
X157283310Y-112110022D01*
X157296556Y-112084556D01*
X157397036Y-112074423D01*
X157409445Y-112084556D01*
X157397823Y-112134890D01*
X157353000Y-112141000D01*
X157353000Y-112288550D01*
X157548759Y-112239736D01*
X157549212Y-112239507D01*
X157764492Y-112167171D01*
X158026068Y-112122773D01*
X158030334Y-112122423D01*
X158326667Y-112098667D01*
X158351576Y-111532691D01*
X158358787Y-111219167D01*
X158335701Y-111014944D01*
X158266467Y-110860603D01*
X158135231Y-110696731D01*
X158125688Y-110686024D01*
X158001864Y-110554010D01*
X157889081Y-110471650D01*
X157744493Y-110427232D01*
X157525249Y-110409039D01*
X157188505Y-110405359D01*
X157099000Y-110405333D01*
X156732187Y-110407457D01*
X156491858Y-110421636D01*
X156335167Y-110459586D01*
X156219266Y-110533020D01*
X156101307Y-110653653D01*
X156072313Y-110686024D01*
X155937120Y-110852197D01*
X155864820Y-111005497D01*
X155839560Y-111205340D01*
X155845488Y-111511141D01*
X155846425Y-111532691D01*
X155871334Y-112098667D01*
X156210000Y-112141000D01*
X156548667Y-112183333D01*
X156548667Y-113030000D01*
X155807834Y-113054463D01*
X155067000Y-113078926D01*
X155067000Y-113214662D01*
X155150788Y-113225556D01*
X155408617Y-113233693D01*
X155745837Y-113231691D01*
X155927386Y-113226701D01*
X156324674Y-113219148D01*
X156584977Y-113231766D01*
X156739817Y-113268011D01*
X156815323Y-113324028D01*
X156919017Y-113403005D01*
X156972000Y-113390587D01*
X156972000Y-113241667D01*
X156929667Y-113199333D01*
X156972000Y-113157000D01*
X157014334Y-113199333D01*
X156972000Y-113241667D01*
X156972000Y-113390587D01*
X157064481Y-113368911D01*
X157111657Y-113345564D01*
X157281793Y-113299778D01*
X157582017Y-113260600D01*
X157973097Y-113232200D01*
X158284334Y-113220869D01*
X159258000Y-113199333D01*
X159281645Y-112074583D01*
X159286395Y-111477493D01*
X159266923Y-111017531D01*
X159266923Y-111017531D01*
G37*
X159266923Y-111017531D02*
X159215291Y-110663273D01*
X159123557Y-110383297D01*
X158983781Y-110146182D01*
X158788024Y-109920506D01*
X158720360Y-109853402D01*
X158368986Y-109566086D01*
X157995539Y-109383106D01*
X157552730Y-109287783D01*
X157046844Y-109263161D01*
X156428444Y-109333536D01*
X155887736Y-109535303D01*
X155443615Y-109857196D01*
X155114980Y-110287947D01*
X155029159Y-110466114D01*
X154973737Y-110679110D01*
X154931862Y-110997116D01*
X154903687Y-111384962D01*
X154889366Y-111807480D01*
X154889051Y-112229503D01*
X154902895Y-112615861D01*
X154931053Y-112931386D01*
X154973676Y-113140911D01*
X155017219Y-113208191D01*
X155067000Y-113214662D01*
X155067000Y-113078926D01*
X155067473Y-112038463D01*
X155075280Y-111599467D01*
X155096136Y-111189576D01*
X155126790Y-110856746D01*
X155160984Y-110659333D01*
X155321532Y-110326947D01*
X155595600Y-109997517D01*
X155933640Y-109719626D01*
X156286102Y-109541859D01*
X156307470Y-109535184D01*
X156755419Y-109453311D01*
X157268630Y-109438846D01*
X157756818Y-109492279D01*
X157903054Y-109526553D01*
X158244562Y-109690148D01*
X158580800Y-109965001D01*
X158860157Y-110299501D01*
X159031020Y-110642034D01*
X159036115Y-110659613D01*
X159073343Y-110878796D01*
X159103680Y-111219204D01*
X159123828Y-111632766D01*
X159130528Y-112035167D01*
X159131000Y-113072333D01*
X158162331Y-113072333D01*
X157701988Y-113064236D01*
X157366949Y-113040981D01*
X157174564Y-113004125D01*
X157136775Y-112980291D01*
X157018641Y-112922446D01*
X156920112Y-112930031D01*
X156822960Y-112934641D01*
X156775507Y-112856571D01*
X156760858Y-112658103D01*
X156760334Y-112573340D01*
X156731683Y-112251803D01*
X156630714Y-112064030D01*
X156434903Y-111981942D01*
X156277734Y-111971667D01*
X155998334Y-111971667D01*
X155998334Y-111510721D01*
X156017805Y-111193354D01*
X156089976Y-110971703D01*
X156202670Y-110812221D01*
X156315359Y-110694310D01*
X156433273Y-110623617D01*
X156601696Y-110588139D01*
X156865911Y-110575876D01*
X157099000Y-110574667D01*
X157445801Y-110578534D01*
X157668594Y-110598138D01*
X157812662Y-110645480D01*
X157923289Y-110732561D01*
X157995331Y-110812221D01*
X158125985Y-111008038D01*
X158187047Y-111241834D01*
X158199667Y-111510721D01*
X158199667Y-111971667D01*
X157865997Y-111971667D01*
X157640511Y-111951931D01*
X157495926Y-111902912D01*
X157479859Y-111886771D01*
X157377820Y-111848759D01*
X157237349Y-111905377D01*
X157125158Y-112018521D01*
X157099000Y-112104303D01*
X157166769Y-112242678D01*
X157334484Y-112293167D01*
X157353000Y-112288550D01*
X157353000Y-112141000D01*
X157283310Y-112110022D01*
X157296556Y-112084556D01*
X157397036Y-112074423D01*
X157409445Y-112084556D01*
X157397823Y-112134890D01*
X157353000Y-112141000D01*
X157353000Y-112288550D01*
X157548759Y-112239736D01*
X157549212Y-112239507D01*
X157764492Y-112167171D01*
X158026068Y-112122773D01*
X158030334Y-112122423D01*
X158326667Y-112098667D01*
X158351576Y-111532691D01*
X158358787Y-111219167D01*
X158335701Y-111014944D01*
X158266467Y-110860603D01*
X158135231Y-110696731D01*
X158125688Y-110686024D01*
X158001864Y-110554010D01*
X157889081Y-110471650D01*
X157744493Y-110427232D01*
X157525249Y-110409039D01*
X157188505Y-110405359D01*
X157099000Y-110405333D01*
X156732187Y-110407457D01*
X156491858Y-110421636D01*
X156335167Y-110459586D01*
X156219266Y-110533020D01*
X156101307Y-110653653D01*
X156072313Y-110686024D01*
X155937120Y-110852197D01*
X155864820Y-111005497D01*
X155839560Y-111205340D01*
X155845488Y-111511141D01*
X155846425Y-111532691D01*
X155871334Y-112098667D01*
X156210000Y-112141000D01*
X156548667Y-112183333D01*
X156548667Y-113030000D01*
X155807834Y-113054463D01*
X155067000Y-113078926D01*
X155067000Y-113214662D01*
X155150788Y-113225556D01*
X155408617Y-113233693D01*
X155745837Y-113231691D01*
X155927386Y-113226701D01*
X156324674Y-113219148D01*
X156584977Y-113231766D01*
X156739817Y-113268011D01*
X156815323Y-113324028D01*
X156919017Y-113403005D01*
X156972000Y-113390587D01*
X156972000Y-113241667D01*
X156929667Y-113199333D01*
X156972000Y-113157000D01*
X157014334Y-113199333D01*
X156972000Y-113241667D01*
X156972000Y-113390587D01*
X157064481Y-113368911D01*
X157111657Y-113345564D01*
X157281793Y-113299778D01*
X157582017Y-113260600D01*
X157973097Y-113232200D01*
X158284334Y-113220869D01*
X159258000Y-113199333D01*
X159281645Y-112074583D01*
X159286395Y-111477493D01*
X159266923Y-111017531D01*
G36*
X159284049Y-106879228D02*
X159237857Y-106647644D01*
X159194500Y-106577573D01*
X159065295Y-106510548D01*
X158809825Y-106403301D01*
X158453798Y-106264823D01*
X158022921Y-106104107D01*
X157542900Y-105930142D01*
X157039442Y-105751922D01*
X156538254Y-105578436D01*
X156065042Y-105418677D01*
X155645514Y-105281636D01*
X155305377Y-105176303D01*
X155070337Y-105111671D01*
X154966100Y-105096731D01*
X154964179Y-105097955D01*
X154929910Y-105215114D01*
X154912143Y-105450128D01*
X154914674Y-105750312D01*
X154940000Y-106327838D01*
X155299834Y-106447475D01*
X155659667Y-106567111D01*
X155659667Y-107978222D01*
X155299834Y-108097884D01*
X154940000Y-108217545D01*
X154915125Y-108824606D01*
X154908770Y-109151651D01*
X154926152Y-109340681D01*
X154972015Y-109421944D01*
X155010313Y-109431667D01*
X155158498Y-109403597D01*
X155392104Y-109332800D01*
X155500856Y-109294259D01*
X155778019Y-109211696D01*
X156028872Y-109169381D01*
X156094865Y-109167895D01*
X156125334Y-109160497D01*
X156125334Y-109008333D01*
X156083000Y-108966000D01*
X156125334Y-108923667D01*
X156167667Y-108966000D01*
X156125334Y-109008333D01*
X156125334Y-109160497D01*
X156286694Y-109121313D01*
X156394343Y-108993253D01*
X156376131Y-108833854D01*
X156374612Y-108831360D01*
X156249955Y-108762797D01*
X156075272Y-108769505D01*
X155951670Y-108846007D01*
X155854448Y-108919618D01*
X155660521Y-109027536D01*
X155430041Y-109140275D01*
X155223161Y-109228352D01*
X155102315Y-109262333D01*
X155082224Y-109186098D01*
X155069432Y-108991059D01*
X155067000Y-108835991D01*
X155073765Y-108581323D01*
X155120266Y-108435500D01*
X155245815Y-108338034D01*
X155451087Y-108245011D01*
X155835173Y-108080372D01*
X155810920Y-107260858D01*
X155786667Y-106441345D01*
X155426834Y-106310342D01*
X155067000Y-106179340D01*
X155067000Y-105221796D01*
X157077834Y-105962867D01*
X159088667Y-106703939D01*
X159088667Y-107748091D01*
X157924500Y-108197336D01*
X156760334Y-108646582D01*
X156760334Y-107760066D01*
X156765340Y-107346340D01*
X156782094Y-107080840D01*
X156813201Y-106942705D01*
X156861267Y-106911074D01*
X156866167Y-106912610D01*
X157001368Y-106959424D01*
X157237237Y-107038537D01*
X157428870Y-107101914D01*
X157885739Y-107252159D01*
X157606098Y-107369740D01*
X157378121Y-107437260D01*
X157195360Y-107444993D01*
X157182349Y-107441582D01*
X157011620Y-107452713D01*
X156900983Y-107565215D01*
X156894138Y-107720446D01*
X156929667Y-107780667D01*
X157092149Y-107893761D01*
X157099000Y-107893064D01*
X157099000Y-107738333D01*
X157029310Y-107707355D01*
X157042556Y-107681889D01*
X157143036Y-107671756D01*
X157155445Y-107681889D01*
X157143823Y-107732223D01*
X157099000Y-107738333D01*
X157099000Y-107893064D01*
X157246557Y-107878033D01*
X157320790Y-107784818D01*
X157423206Y-107683142D01*
X157627994Y-107567435D01*
X157741466Y-107519316D01*
X157961721Y-107414191D01*
X158095891Y-107309649D01*
X158115000Y-107268167D01*
X158042171Y-107179337D01*
X157856087Y-107071722D01*
X157712834Y-107011949D01*
X157407755Y-106898141D01*
X157115757Y-106786492D01*
X157026506Y-106751508D01*
X156818859Y-106688586D01*
X156678331Y-106680603D01*
X156666673Y-106685559D01*
X156634934Y-106785634D01*
X156612031Y-107013854D01*
X156597939Y-107329260D01*
X156592635Y-107690897D01*
X156596097Y-108057807D01*
X156608301Y-108389033D01*
X156629224Y-108643618D01*
X156658842Y-108780605D01*
X156667870Y-108791848D01*
X156764636Y-108777377D01*
X156985430Y-108712862D01*
X157296752Y-108610378D01*
X157665104Y-108482003D01*
X158056984Y-108339812D01*
X158438895Y-108195880D01*
X158777335Y-108062286D01*
X159038808Y-107951104D01*
X159152167Y-107896284D01*
X159234403Y-107817820D01*
X159280303Y-107666831D01*
X159298688Y-107404116D01*
X159300334Y-107237722D01*
X159284049Y-106879228D01*
X159284049Y-106879228D01*
G37*
X159284049Y-106879228D02*
X159237857Y-106647644D01*
X159194500Y-106577573D01*
X159065295Y-106510548D01*
X158809825Y-106403301D01*
X158453798Y-106264823D01*
X158022921Y-106104107D01*
X157542900Y-105930142D01*
X157039442Y-105751922D01*
X156538254Y-105578436D01*
X156065042Y-105418677D01*
X155645514Y-105281636D01*
X155305377Y-105176303D01*
X155070337Y-105111671D01*
X154966100Y-105096731D01*
X154964179Y-105097955D01*
X154929910Y-105215114D01*
X154912143Y-105450128D01*
X154914674Y-105750312D01*
X154940000Y-106327838D01*
X155299834Y-106447475D01*
X155659667Y-106567111D01*
X155659667Y-107978222D01*
X155299834Y-108097884D01*
X154940000Y-108217545D01*
X154915125Y-108824606D01*
X154908770Y-109151651D01*
X154926152Y-109340681D01*
X154972015Y-109421944D01*
X155010313Y-109431667D01*
X155158498Y-109403597D01*
X155392104Y-109332800D01*
X155500856Y-109294259D01*
X155778019Y-109211696D01*
X156028872Y-109169381D01*
X156094865Y-109167895D01*
X156125334Y-109160497D01*
X156125334Y-109008333D01*
X156083000Y-108966000D01*
X156125334Y-108923667D01*
X156167667Y-108966000D01*
X156125334Y-109008333D01*
X156125334Y-109160497D01*
X156286694Y-109121313D01*
X156394343Y-108993253D01*
X156376131Y-108833854D01*
X156374612Y-108831360D01*
X156249955Y-108762797D01*
X156075272Y-108769505D01*
X155951670Y-108846007D01*
X155854448Y-108919618D01*
X155660521Y-109027536D01*
X155430041Y-109140275D01*
X155223161Y-109228352D01*
X155102315Y-109262333D01*
X155082224Y-109186098D01*
X155069432Y-108991059D01*
X155067000Y-108835991D01*
X155073765Y-108581323D01*
X155120266Y-108435500D01*
X155245815Y-108338034D01*
X155451087Y-108245011D01*
X155835173Y-108080372D01*
X155810920Y-107260858D01*
X155786667Y-106441345D01*
X155426834Y-106310342D01*
X155067000Y-106179340D01*
X155067000Y-105221796D01*
X157077834Y-105962867D01*
X159088667Y-106703939D01*
X159088667Y-107748091D01*
X157924500Y-108197336D01*
X156760334Y-108646582D01*
X156760334Y-107760066D01*
X156765340Y-107346340D01*
X156782094Y-107080840D01*
X156813201Y-106942705D01*
X156861267Y-106911074D01*
X156866167Y-106912610D01*
X157001368Y-106959424D01*
X157237237Y-107038537D01*
X157428870Y-107101914D01*
X157885739Y-107252159D01*
X157606098Y-107369740D01*
X157378121Y-107437260D01*
X157195360Y-107444993D01*
X157182349Y-107441582D01*
X157011620Y-107452713D01*
X156900983Y-107565215D01*
X156894138Y-107720446D01*
X156929667Y-107780667D01*
X157092149Y-107893761D01*
X157099000Y-107893064D01*
X157099000Y-107738333D01*
X157029310Y-107707355D01*
X157042556Y-107681889D01*
X157143036Y-107671756D01*
X157155445Y-107681889D01*
X157143823Y-107732223D01*
X157099000Y-107738333D01*
X157099000Y-107893064D01*
X157246557Y-107878033D01*
X157320790Y-107784818D01*
X157423206Y-107683142D01*
X157627994Y-107567435D01*
X157741466Y-107519316D01*
X157961721Y-107414191D01*
X158095891Y-107309649D01*
X158115000Y-107268167D01*
X158042171Y-107179337D01*
X157856087Y-107071722D01*
X157712834Y-107011949D01*
X157407755Y-106898141D01*
X157115757Y-106786492D01*
X157026506Y-106751508D01*
X156818859Y-106688586D01*
X156678331Y-106680603D01*
X156666673Y-106685559D01*
X156634934Y-106785634D01*
X156612031Y-107013854D01*
X156597939Y-107329260D01*
X156592635Y-107690897D01*
X156596097Y-108057807D01*
X156608301Y-108389033D01*
X156629224Y-108643618D01*
X156658842Y-108780605D01*
X156667870Y-108791848D01*
X156764636Y-108777377D01*
X156985430Y-108712862D01*
X157296752Y-108610378D01*
X157665104Y-108482003D01*
X158056984Y-108339812D01*
X158438895Y-108195880D01*
X158777335Y-108062286D01*
X159038808Y-107951104D01*
X159152167Y-107896284D01*
X159234403Y-107817820D01*
X159280303Y-107666831D01*
X159298688Y-107404116D01*
X159300334Y-107237722D01*
X159284049Y-106879228D01*
G36*
X159296143Y-104055471D02*
X159261658Y-103789996D01*
X159195763Y-103613526D01*
X159175669Y-103591605D01*
X158987158Y-103499731D01*
X158764913Y-103472790D01*
X158572290Y-103509030D01*
X158472644Y-103606698D01*
X158471643Y-103611090D01*
X158507494Y-103755469D01*
X158646830Y-103827314D01*
X158707667Y-103819167D01*
X158707667Y-103674333D01*
X158637977Y-103643355D01*
X158651223Y-103617889D01*
X158751702Y-103607756D01*
X158764112Y-103617889D01*
X158752489Y-103668223D01*
X158707667Y-103674333D01*
X158707667Y-103819167D01*
X158830919Y-103802659D01*
X158879088Y-103777345D01*
X159011771Y-103721476D01*
X159089213Y-103773965D01*
X159124442Y-103956487D01*
X159131000Y-104196445D01*
X159131000Y-104605667D01*
X155067000Y-104605667D01*
X155067000Y-103674333D01*
X156489400Y-103674333D01*
X157120813Y-103680429D01*
X157584903Y-103698694D01*
X157881140Y-103729093D01*
X158007709Y-103770242D01*
X158157334Y-103827731D01*
X158157334Y-103674333D01*
X158115000Y-103632000D01*
X158157334Y-103589667D01*
X158199667Y-103632000D01*
X158157334Y-103674333D01*
X158157334Y-103827731D01*
X158159868Y-103828705D01*
X158305307Y-103764737D01*
X158369051Y-103613491D01*
X158358530Y-103561446D01*
X158312216Y-103523576D01*
X158208046Y-103498181D01*
X158023956Y-103483560D01*
X157737881Y-103478010D01*
X157327757Y-103479830D01*
X156771520Y-103487320D01*
X156739218Y-103487817D01*
X156226048Y-103497438D01*
X155768016Y-103509247D01*
X155393241Y-103522259D01*
X155129838Y-103535486D01*
X155005924Y-103547945D01*
X155003500Y-103548659D01*
X154936878Y-103650577D01*
X154899109Y-103865901D01*
X154889008Y-104141389D01*
X154905387Y-104423799D01*
X154947057Y-104659890D01*
X155012833Y-104796420D01*
X155031592Y-104808275D01*
X155178111Y-104831930D01*
X155457567Y-104849107D01*
X155840970Y-104860156D01*
X156299333Y-104865425D01*
X156803666Y-104865265D01*
X157324982Y-104860023D01*
X157834291Y-104850050D01*
X158302606Y-104835695D01*
X158700937Y-104817306D01*
X159000296Y-104795234D01*
X159171694Y-104769828D01*
X159198734Y-104758067D01*
X159265923Y-104602292D01*
X159297979Y-104347165D01*
X159296143Y-104055471D01*
X159296143Y-104055471D01*
G37*
X159296143Y-104055471D02*
X159261658Y-103789996D01*
X159195763Y-103613526D01*
X159175669Y-103591605D01*
X158987158Y-103499731D01*
X158764913Y-103472790D01*
X158572290Y-103509030D01*
X158472644Y-103606698D01*
X158471643Y-103611090D01*
X158507494Y-103755469D01*
X158646830Y-103827314D01*
X158707667Y-103819167D01*
X158707667Y-103674333D01*
X158637977Y-103643355D01*
X158651223Y-103617889D01*
X158751702Y-103607756D01*
X158764112Y-103617889D01*
X158752489Y-103668223D01*
X158707667Y-103674333D01*
X158707667Y-103819167D01*
X158830919Y-103802659D01*
X158879088Y-103777345D01*
X159011771Y-103721476D01*
X159089213Y-103773965D01*
X159124442Y-103956487D01*
X159131000Y-104196445D01*
X159131000Y-104605667D01*
X155067000Y-104605667D01*
X155067000Y-103674333D01*
X156489400Y-103674333D01*
X157120813Y-103680429D01*
X157584903Y-103698694D01*
X157881140Y-103729093D01*
X158007709Y-103770242D01*
X158157334Y-103827731D01*
X158157334Y-103674333D01*
X158115000Y-103632000D01*
X158157334Y-103589667D01*
X158199667Y-103632000D01*
X158157334Y-103674333D01*
X158157334Y-103827731D01*
X158159868Y-103828705D01*
X158305307Y-103764737D01*
X158369051Y-103613491D01*
X158358530Y-103561446D01*
X158312216Y-103523576D01*
X158208046Y-103498181D01*
X158023956Y-103483560D01*
X157737881Y-103478010D01*
X157327757Y-103479830D01*
X156771520Y-103487320D01*
X156739218Y-103487817D01*
X156226048Y-103497438D01*
X155768016Y-103509247D01*
X155393241Y-103522259D01*
X155129838Y-103535486D01*
X155005924Y-103547945D01*
X155003500Y-103548659D01*
X154936878Y-103650577D01*
X154899109Y-103865901D01*
X154889008Y-104141389D01*
X154905387Y-104423799D01*
X154947057Y-104659890D01*
X155012833Y-104796420D01*
X155031592Y-104808275D01*
X155178111Y-104831930D01*
X155457567Y-104849107D01*
X155840970Y-104860156D01*
X156299333Y-104865425D01*
X156803666Y-104865265D01*
X157324982Y-104860023D01*
X157834291Y-104850050D01*
X158302606Y-104835695D01*
X158700937Y-104817306D01*
X159000296Y-104795234D01*
X159171694Y-104769828D01*
X159198734Y-104758067D01*
X159265923Y-104602292D01*
X159297979Y-104347165D01*
X159296143Y-104055471D01*
G36*
X159321375Y-89598625D02*
X155744591Y-86021841D01*
X152230796Y-89534872D01*
X151593638Y-90173308D01*
X150993670Y-90777226D01*
X150441398Y-91335868D01*
X149947328Y-91838472D01*
X149521968Y-92274280D01*
X149175822Y-92632533D01*
X148919399Y-92902469D01*
X148763204Y-93073330D01*
X148717000Y-93133333D01*
X148775282Y-93207139D01*
X148943101Y-93389547D01*
X149209919Y-93669766D01*
X149565199Y-94037000D01*
X149998401Y-94480457D01*
X150052978Y-94535938D01*
X150052978Y-93345000D01*
X149920254Y-93291676D01*
X149768326Y-93166685D01*
X149648890Y-93022503D01*
X149613640Y-92911604D01*
X149617542Y-92902992D01*
X149703592Y-92899937D01*
X149849330Y-92996860D01*
X149868599Y-93014411D01*
X150033149Y-93131880D01*
X150129811Y-93140318D01*
X150127203Y-93053716D01*
X150042926Y-92936686D01*
X149928003Y-92763379D01*
X149910891Y-92630501D01*
X149987000Y-92583000D01*
X150067277Y-92648894D01*
X150071667Y-92679500D01*
X150133097Y-92804649D01*
X150209387Y-92876702D01*
X150299584Y-92984877D01*
X150264215Y-93131267D01*
X150248741Y-93161203D01*
X150137660Y-93302651D01*
X150052978Y-93345000D01*
X150052978Y-94535938D01*
X150498989Y-94989342D01*
X150880901Y-95375424D01*
X150880901Y-94511672D01*
X150868379Y-94388360D01*
X150881248Y-94327903D01*
X150885218Y-94161218D01*
X150827136Y-94059198D01*
X150740959Y-94065292D01*
X150707521Y-94105619D01*
X150610303Y-94181830D01*
X150515273Y-94177419D01*
X150495000Y-94133624D01*
X150547387Y-94037408D01*
X150673945Y-93885125D01*
X150679092Y-93879624D01*
X150859106Y-93718616D01*
X150930697Y-93709260D01*
X150930697Y-92469833D01*
X150805501Y-92414665D01*
X150704185Y-92326668D01*
X150550031Y-92169927D01*
X150511785Y-92060743D01*
X150579423Y-91933467D01*
X150633450Y-91863333D01*
X150727921Y-91750118D01*
X150738805Y-91780320D01*
X150705654Y-91897308D01*
X150679240Y-92039881D01*
X150741159Y-92061059D01*
X150790990Y-92044514D01*
X150896378Y-92032325D01*
X150891261Y-92108096D01*
X150881616Y-92253674D01*
X150973840Y-92282689D01*
X151058710Y-92233232D01*
X151155183Y-92188957D01*
X151172334Y-92223600D01*
X151113922Y-92342756D01*
X151042852Y-92415727D01*
X150930697Y-92469833D01*
X150930697Y-93709260D01*
X150959667Y-93705473D01*
X150983750Y-93840141D01*
X150980836Y-93874167D01*
X150998593Y-94017468D01*
X151124935Y-94046843D01*
X151151167Y-94044498D01*
X151304187Y-94049913D01*
X151322580Y-94123414D01*
X151206698Y-94280872D01*
X151157575Y-94334377D01*
X150979317Y-94493725D01*
X150880901Y-94511672D01*
X150880901Y-95375424D01*
X151056423Y-95552863D01*
X151660166Y-96160226D01*
X151843395Y-96343769D01*
X151843395Y-95368586D01*
X151661254Y-95317753D01*
X151612600Y-95275400D01*
X151517261Y-95140487D01*
X151547568Y-95081268D01*
X151675196Y-95120250D01*
X151840137Y-95155979D01*
X151915904Y-95058567D01*
X151891760Y-94868243D01*
X151883627Y-94733222D01*
X151927015Y-94699667D01*
X152019757Y-94771066D01*
X152071228Y-94937337D01*
X152069557Y-95126589D01*
X152018088Y-95251100D01*
X151843395Y-95368586D01*
X151843395Y-96343769D01*
X152209879Y-96710883D01*
X152604702Y-97104744D01*
X152604702Y-96244223D01*
X152499340Y-96159721D01*
X152377975Y-96023688D01*
X152391418Y-95980960D01*
X152539808Y-96016065D01*
X152669601Y-96036791D01*
X152678329Y-95961507D01*
X152671120Y-95941416D01*
X152667016Y-95847873D01*
X152752750Y-95859786D01*
X152841378Y-95868094D01*
X152837737Y-95764961D01*
X152820892Y-95707972D01*
X152786564Y-95570710D01*
X152830926Y-95570295D01*
X152895788Y-95620864D01*
X153010430Y-95744962D01*
X153008999Y-95867072D01*
X152885373Y-96036775D01*
X152838007Y-96088835D01*
X152697557Y-96225131D01*
X152604702Y-96244223D01*
X152604702Y-97104744D01*
X152846497Y-97345950D01*
X153448550Y-97943805D01*
X153611140Y-98104470D01*
X153611140Y-97253657D01*
X153407737Y-97062570D01*
X153248379Y-96901249D01*
X153218915Y-96831847D01*
X153316398Y-96841272D01*
X153360941Y-96854628D01*
X153484387Y-96851177D01*
X153567929Y-96721269D01*
X153593775Y-96641386D01*
X153670000Y-96378438D01*
X153881667Y-96607902D01*
X154012746Y-96755574D01*
X154031638Y-96807588D01*
X153942817Y-96791022D01*
X153910294Y-96781179D01*
X153776559Y-96768435D01*
X153702683Y-96864691D01*
X153669197Y-96989324D01*
X153611140Y-97253657D01*
X153611140Y-98104470D01*
X154005245Y-98493912D01*
X154505788Y-98985736D01*
X154533767Y-99013031D01*
X154533767Y-97986768D01*
X154347649Y-97960227D01*
X154190376Y-97847677D01*
X154135667Y-97720367D01*
X154175995Y-97682675D01*
X154237267Y-97730733D01*
X154400896Y-97831701D01*
X154514325Y-97776113D01*
X154558912Y-97573783D01*
X154559000Y-97561400D01*
X154575343Y-97385948D01*
X154628922Y-97363637D01*
X154650286Y-97381753D01*
X154718315Y-97541464D01*
X154707102Y-97745766D01*
X154631069Y-97919779D01*
X154533767Y-97986768D01*
X154533767Y-99013031D01*
X154939386Y-99408740D01*
X155295245Y-99752390D01*
X155562573Y-100006151D01*
X155730576Y-100159485D01*
X155787428Y-100203000D01*
X155861053Y-100144716D01*
X155886526Y-100121259D01*
X155886526Y-99365568D01*
X155479271Y-98964437D01*
X155258311Y-98732336D01*
X155153597Y-98578687D01*
X155148740Y-98476668D01*
X155165409Y-98450776D01*
X155279078Y-98383771D01*
X155374491Y-98434260D01*
X155450461Y-98462776D01*
X155450461Y-97410239D01*
X153311397Y-95272409D01*
X152818154Y-94778306D01*
X152365043Y-94322203D01*
X151965526Y-93917820D01*
X151633062Y-93578873D01*
X151381109Y-93319082D01*
X151223128Y-93152163D01*
X151172334Y-93092234D01*
X151230075Y-93024694D01*
X151394328Y-92851375D01*
X151647513Y-92590262D01*
X151647513Y-91718682D01*
X151516869Y-91612144D01*
X151475491Y-91573408D01*
X151301993Y-91378951D01*
X151279662Y-91256120D01*
X151410778Y-91195881D01*
X151573255Y-91186000D01*
X151821431Y-91226349D01*
X151920199Y-91344191D01*
X151866804Y-91534716D01*
X151816604Y-91610971D01*
X151727757Y-91716125D01*
X151647513Y-91718682D01*
X151647513Y-92590262D01*
X151651640Y-92586005D01*
X151988558Y-92242311D01*
X152391627Y-91834021D01*
X152530299Y-91694318D01*
X152530299Y-90889667D01*
X152418703Y-90830956D01*
X152270051Y-90696111D01*
X152145328Y-90547063D01*
X152103667Y-90456416D01*
X152157054Y-90352931D01*
X152236715Y-90260714D01*
X152388435Y-90153020D01*
X152475956Y-90127667D01*
X152600139Y-90178999D01*
X152741622Y-90300078D01*
X152856170Y-90441528D01*
X152899547Y-90553973D01*
X152883350Y-90582405D01*
X152774848Y-90563967D01*
X152652194Y-90464337D01*
X152497468Y-90341265D01*
X152354394Y-90296610D01*
X152276209Y-90343821D01*
X152273000Y-90368545D01*
X152329613Y-90473054D01*
X152442334Y-90593333D01*
X152581661Y-90753746D01*
X152601717Y-90861053D01*
X152530299Y-90889667D01*
X152530299Y-91694318D01*
X152847395Y-91374864D01*
X153309556Y-90911433D01*
X153429072Y-90791849D01*
X153429072Y-89936226D01*
X153302730Y-89838760D01*
X153206798Y-89748328D01*
X153048093Y-89586266D01*
X153002231Y-89490388D01*
X153054505Y-89415503D01*
X153089691Y-89388495D01*
X153282137Y-89298579D01*
X153389849Y-89281000D01*
X153518011Y-89338687D01*
X153543000Y-89408000D01*
X153588718Y-89520672D01*
X153627667Y-89535000D01*
X153707172Y-89587280D01*
X153657345Y-89737488D01*
X153591623Y-89836318D01*
X153508918Y-89931650D01*
X153429072Y-89936226D01*
X153429072Y-90791849D01*
X154350941Y-89869448D01*
X154350941Y-89082685D01*
X154239994Y-89055376D01*
X154093000Y-88942020D01*
X153946149Y-88801964D01*
X153892539Y-88720971D01*
X153906047Y-88637998D01*
X153933059Y-88568258D01*
X154047289Y-88451310D01*
X154119326Y-88434333D01*
X154205385Y-88457939D01*
X154153193Y-88535341D01*
X154108206Y-88638701D01*
X154185994Y-88776219D01*
X154235371Y-88831340D01*
X154357800Y-89001476D01*
X154350941Y-89082685D01*
X154350941Y-89869448D01*
X155127975Y-89091966D01*
X155127975Y-88316914D01*
X155039203Y-88302023D01*
X154883439Y-88210946D01*
X154716316Y-88084275D01*
X154593465Y-87962604D01*
X154563685Y-87905167D01*
X154626644Y-87847023D01*
X154671242Y-87841667D01*
X154794219Y-87893779D01*
X154944081Y-88017427D01*
X155073706Y-88163577D01*
X155135970Y-88283198D01*
X155127975Y-88316914D01*
X155127975Y-89091966D01*
X155446779Y-88772977D01*
X155587158Y-88913277D01*
X155587158Y-87582526D01*
X155443055Y-87555151D01*
X155333405Y-87432994D01*
X155345318Y-87210334D01*
X155372392Y-87128925D01*
X155455644Y-87003333D01*
X155521979Y-87022718D01*
X155533127Y-87164077D01*
X155522037Y-87218877D01*
X155497862Y-87376649D01*
X155568262Y-87417204D01*
X155693113Y-87399310D01*
X155859329Y-87393494D01*
X155888840Y-87450600D01*
X155779157Y-87549375D01*
X155587158Y-87582526D01*
X155587158Y-88913277D01*
X156776769Y-90102228D01*
X156776769Y-89384793D01*
X156651896Y-89184730D01*
X156459704Y-88858770D01*
X156361091Y-88627359D01*
X156348405Y-88449302D01*
X156413991Y-88283406D01*
X156468801Y-88199172D01*
X156617316Y-88057818D01*
X156745481Y-88011000D01*
X156909898Y-88057863D01*
X157123155Y-88173720D01*
X157331463Y-88321478D01*
X157481034Y-88464040D01*
X157522334Y-88546758D01*
X157465657Y-88658563D01*
X157318395Y-88841623D01*
X157149552Y-89018935D01*
X156776769Y-89384793D01*
X156776769Y-90102228D01*
X157533496Y-90858536D01*
X157533496Y-90100344D01*
X157316248Y-89883096D01*
X157155280Y-89707970D01*
X157105407Y-89599241D01*
X157148348Y-89514059D01*
X157155630Y-89506593D01*
X157252960Y-89511431D01*
X157358891Y-89582664D01*
X157502587Y-89649228D01*
X157585275Y-89592600D01*
X157559573Y-89458372D01*
X157530357Y-89417668D01*
X157479996Y-89288805D01*
X157547755Y-89237544D01*
X157659002Y-89289024D01*
X157798164Y-89344664D01*
X157890072Y-89296534D01*
X157880592Y-89182440D01*
X157857823Y-89150171D01*
X157803967Y-89004945D01*
X157820310Y-88939675D01*
X157907737Y-88928695D01*
X158048189Y-89007575D01*
X158188636Y-89134167D01*
X158276050Y-89266324D01*
X158284334Y-89308481D01*
X158227034Y-89406346D01*
X158078207Y-89576881D01*
X157908915Y-89745728D01*
X157533496Y-90100344D01*
X157533496Y-90858536D01*
X157607614Y-90932613D01*
X158289793Y-91614413D01*
X158289793Y-90839646D01*
X158075397Y-90638231D01*
X157912032Y-90467161D01*
X157867168Y-90355807D01*
X157917630Y-90268593D01*
X158014960Y-90273431D01*
X158120891Y-90344664D01*
X158264587Y-90411228D01*
X158347275Y-90354600D01*
X158321573Y-90220372D01*
X158292357Y-90179668D01*
X158241996Y-90050805D01*
X158309755Y-89999544D01*
X158421002Y-90051024D01*
X158566419Y-90110785D01*
X158645057Y-90044244D01*
X158614514Y-89892668D01*
X158603305Y-89873592D01*
X158538107Y-89712116D01*
X158584803Y-89651167D01*
X158714321Y-89697458D01*
X158856880Y-89815062D01*
X159085629Y-90043810D01*
X158289793Y-90839646D01*
X158289793Y-91614413D01*
X159404324Y-92728326D01*
X159404324Y-91890978D01*
X159317228Y-91881211D01*
X159303974Y-91867720D01*
X159276685Y-91747068D01*
X159385299Y-91609063D01*
X159510965Y-91474764D01*
X159554334Y-91394300D01*
X159478052Y-91350983D01*
X159281214Y-91303947D01*
X159088755Y-91274341D01*
X158623177Y-91216171D01*
X158975009Y-90798919D01*
X159165802Y-90583980D01*
X159317764Y-90433345D01*
X159393257Y-90381667D01*
X159501804Y-90438962D01*
X159502831Y-90578257D01*
X159396259Y-90750668D01*
X159393871Y-90753225D01*
X159250339Y-90927741D01*
X159246958Y-91021297D01*
X159394971Y-91059057D01*
X159533167Y-91064951D01*
X159854256Y-91083856D01*
X160015696Y-91138691D01*
X160026410Y-91249344D01*
X159895320Y-91435705D01*
X159764098Y-91579702D01*
X159545286Y-91795479D01*
X159404324Y-91890978D01*
X159404324Y-92728326D01*
X159768450Y-93092250D01*
X157609455Y-95251244D01*
X155450461Y-97410239D01*
X155450461Y-98462776D01*
X155514433Y-98486790D01*
X155722180Y-98434100D01*
X155736576Y-98428214D01*
X155973500Y-98369430D01*
X156159986Y-98420889D01*
X156303947Y-98548001D01*
X156315000Y-98720095D01*
X156191433Y-98960228D01*
X156111763Y-99070267D01*
X155886526Y-99365568D01*
X155886526Y-100121259D01*
X156043322Y-99976867D01*
X156323480Y-99709959D01*
X156690768Y-99354499D01*
X156726305Y-99319776D01*
X156726305Y-98512118D01*
X155912101Y-97710156D01*
X156157897Y-97464360D01*
X156340221Y-97318153D01*
X156479510Y-97272081D01*
X156502862Y-97279854D01*
X156545412Y-97366458D01*
X156455924Y-97502591D01*
X156362375Y-97660324D01*
X156404345Y-97737142D01*
X156555590Y-97702198D01*
X156602830Y-97675261D01*
X156719133Y-97614267D01*
X156749260Y-97659670D01*
X156719253Y-97826633D01*
X156704275Y-98025141D01*
X156769799Y-98082869D01*
X156905357Y-97992111D01*
X157041635Y-97941492D01*
X157098566Y-97959065D01*
X157122379Y-98050231D01*
X157007337Y-98217199D01*
X156961929Y-98266180D01*
X156726305Y-98512118D01*
X156726305Y-99319776D01*
X157134430Y-98920992D01*
X157498192Y-98563110D01*
X157498192Y-97561517D01*
X157328442Y-97544765D01*
X157042181Y-97419481D01*
X156878094Y-97204772D01*
X156848544Y-96940115D01*
X156965894Y-96664986D01*
X157029092Y-96588957D01*
X157265728Y-96434657D01*
X157546708Y-96385447D01*
X157811137Y-96441824D01*
X157983200Y-96581172D01*
X158099531Y-96829173D01*
X158069194Y-97060792D01*
X157886332Y-97311450D01*
X157857608Y-97340751D01*
X157665173Y-97505992D01*
X157498192Y-97561517D01*
X157498192Y-98563110D01*
X157643709Y-98419945D01*
X158207848Y-97861864D01*
X158559426Y-97512386D01*
X158559426Y-96686300D01*
X158173260Y-96306817D01*
X157946388Y-96079372D01*
X157826137Y-95935926D01*
X157796808Y-95843385D01*
X157842700Y-95768654D01*
X157895796Y-95721923D01*
X158021542Y-95670641D01*
X158070240Y-95711739D01*
X158189058Y-95760191D01*
X158420631Y-95752987D01*
X158458319Y-95747436D01*
X158754663Y-95744118D01*
X158961702Y-95829877D01*
X159045905Y-95990058D01*
X159046334Y-96004399D01*
X158995712Y-96125087D01*
X158868290Y-96312691D01*
X158802880Y-96394682D01*
X158559426Y-96686300D01*
X158559426Y-97512386D01*
X158816090Y-97257254D01*
X159385129Y-96689205D01*
X159473466Y-96600849D01*
X159473466Y-95734592D01*
X159375577Y-95707507D01*
X159220753Y-95585442D01*
X159033132Y-95406330D01*
X158624430Y-95003774D01*
X158851757Y-94766495D01*
X159034756Y-94615307D01*
X159153937Y-94604917D01*
X159160721Y-94610854D01*
X159182933Y-94738899D01*
X159126246Y-94832395D01*
X159072594Y-94929506D01*
X159104254Y-95032222D01*
X159240806Y-95182163D01*
X159329919Y-95265361D01*
X159515666Y-95450422D01*
X159585230Y-95571966D01*
X159558112Y-95667781D01*
X159545769Y-95683654D01*
X159473466Y-95734592D01*
X159473466Y-96600849D01*
X160144013Y-95930156D01*
X160144013Y-95070658D01*
X159764507Y-94698201D01*
X159566945Y-94496614D01*
X159429684Y-94341854D01*
X159385000Y-94273464D01*
X159440597Y-94185557D01*
X159575898Y-94041975D01*
X159590399Y-94028222D01*
X159759995Y-93912139D01*
X159887672Y-93890914D01*
X159935982Y-93953211D01*
X159867477Y-94087695D01*
X159850667Y-94107000D01*
X159780485Y-94252877D01*
X159831869Y-94338780D01*
X159962647Y-94317863D01*
X160010333Y-94284357D01*
X160138203Y-94232928D01*
X160188603Y-94299604D01*
X160132921Y-94420298D01*
X160082223Y-94550057D01*
X160144239Y-94639755D01*
X160243773Y-94698446D01*
X160291639Y-94636167D01*
X160378101Y-94552335D01*
X160498822Y-94532581D01*
X160569272Y-94587800D01*
X160570334Y-94600242D01*
X160514171Y-94700166D01*
X160376973Y-94851502D01*
X160357173Y-94870404D01*
X160144013Y-95070658D01*
X160144013Y-95930156D01*
X160786737Y-95287293D01*
X160786737Y-93292469D01*
X160715934Y-93270467D01*
X160685368Y-93161324D01*
X160789317Y-93001857D01*
X160812922Y-92976147D01*
X161002468Y-92774385D01*
X160807568Y-92722182D01*
X160578928Y-92683840D01*
X160337500Y-92668823D01*
X160151365Y-92650983D01*
X160066652Y-92609067D01*
X160066128Y-92604167D01*
X160120647Y-92513116D01*
X160259578Y-92336724D01*
X160443942Y-92123273D01*
X160648696Y-91904837D01*
X160773848Y-91803535D01*
X160844602Y-91803502D01*
X160874193Y-91852414D01*
X160857575Y-92034755D01*
X160742293Y-92199206D01*
X160554162Y-92399462D01*
X161031566Y-92459109D01*
X161284599Y-92501378D01*
X161447743Y-92549342D01*
X161484152Y-92582968D01*
X161417481Y-92676448D01*
X161271340Y-92850592D01*
X161133912Y-93005101D01*
X160924148Y-93213708D01*
X160786737Y-93292469D01*
X160786737Y-95287293D01*
X161267454Y-94806471D01*
X161267454Y-93807485D01*
X161204050Y-93767268D01*
X161141361Y-93692529D01*
X161155418Y-93603216D01*
X161263223Y-93464175D01*
X161437629Y-93284266D01*
X161691954Y-93057588D01*
X161871792Y-92964713D01*
X161950922Y-92969418D01*
X162055244Y-93024230D01*
X162075120Y-93098122D01*
X161998370Y-93219304D01*
X161812812Y-93415986D01*
X161717343Y-93510399D01*
X161502762Y-93710808D01*
X161364988Y-93803737D01*
X161267454Y-93807485D01*
X161267454Y-94806471D01*
X162898159Y-93175410D01*
X159321375Y-89598625D01*
X159321375Y-89598625D01*
G37*
X159321375Y-89598625D02*
X155744591Y-86021841D01*
X152230796Y-89534872D01*
X151593638Y-90173308D01*
X150993670Y-90777226D01*
X150441398Y-91335868D01*
X149947328Y-91838472D01*
X149521968Y-92274280D01*
X149175822Y-92632533D01*
X148919399Y-92902469D01*
X148763204Y-93073330D01*
X148717000Y-93133333D01*
X148775282Y-93207139D01*
X148943101Y-93389547D01*
X149209919Y-93669766D01*
X149565199Y-94037000D01*
X149998401Y-94480457D01*
X150052978Y-94535938D01*
X150052978Y-93345000D01*
X149920254Y-93291676D01*
X149768326Y-93166685D01*
X149648890Y-93022503D01*
X149613640Y-92911604D01*
X149617542Y-92902992D01*
X149703592Y-92899937D01*
X149849330Y-92996860D01*
X149868599Y-93014411D01*
X150033149Y-93131880D01*
X150129811Y-93140318D01*
X150127203Y-93053716D01*
X150042926Y-92936686D01*
X149928003Y-92763379D01*
X149910891Y-92630501D01*
X149987000Y-92583000D01*
X150067277Y-92648894D01*
X150071667Y-92679500D01*
X150133097Y-92804649D01*
X150209387Y-92876702D01*
X150299584Y-92984877D01*
X150264215Y-93131267D01*
X150248741Y-93161203D01*
X150137660Y-93302651D01*
X150052978Y-93345000D01*
X150052978Y-94535938D01*
X150498989Y-94989342D01*
X150880901Y-95375424D01*
X150880901Y-94511672D01*
X150868379Y-94388360D01*
X150881248Y-94327903D01*
X150885218Y-94161218D01*
X150827136Y-94059198D01*
X150740959Y-94065292D01*
X150707521Y-94105619D01*
X150610303Y-94181830D01*
X150515273Y-94177419D01*
X150495000Y-94133624D01*
X150547387Y-94037408D01*
X150673945Y-93885125D01*
X150679092Y-93879624D01*
X150859106Y-93718616D01*
X150930697Y-93709260D01*
X150930697Y-92469833D01*
X150805501Y-92414665D01*
X150704185Y-92326668D01*
X150550031Y-92169927D01*
X150511785Y-92060743D01*
X150579423Y-91933467D01*
X150633450Y-91863333D01*
X150727921Y-91750118D01*
X150738805Y-91780320D01*
X150705654Y-91897308D01*
X150679240Y-92039881D01*
X150741159Y-92061059D01*
X150790990Y-92044514D01*
X150896378Y-92032325D01*
X150891261Y-92108096D01*
X150881616Y-92253674D01*
X150973840Y-92282689D01*
X151058710Y-92233232D01*
X151155183Y-92188957D01*
X151172334Y-92223600D01*
X151113922Y-92342756D01*
X151042852Y-92415727D01*
X150930697Y-92469833D01*
X150930697Y-93709260D01*
X150959667Y-93705473D01*
X150983750Y-93840141D01*
X150980836Y-93874167D01*
X150998593Y-94017468D01*
X151124935Y-94046843D01*
X151151167Y-94044498D01*
X151304187Y-94049913D01*
X151322580Y-94123414D01*
X151206698Y-94280872D01*
X151157575Y-94334377D01*
X150979317Y-94493725D01*
X150880901Y-94511672D01*
X150880901Y-95375424D01*
X151056423Y-95552863D01*
X151660166Y-96160226D01*
X151843395Y-96343769D01*
X151843395Y-95368586D01*
X151661254Y-95317753D01*
X151612600Y-95275400D01*
X151517261Y-95140487D01*
X151547568Y-95081268D01*
X151675196Y-95120250D01*
X151840137Y-95155979D01*
X151915904Y-95058567D01*
X151891760Y-94868243D01*
X151883627Y-94733222D01*
X151927015Y-94699667D01*
X152019757Y-94771066D01*
X152071228Y-94937337D01*
X152069557Y-95126589D01*
X152018088Y-95251100D01*
X151843395Y-95368586D01*
X151843395Y-96343769D01*
X152209879Y-96710883D01*
X152604702Y-97104744D01*
X152604702Y-96244223D01*
X152499340Y-96159721D01*
X152377975Y-96023688D01*
X152391418Y-95980960D01*
X152539808Y-96016065D01*
X152669601Y-96036791D01*
X152678329Y-95961507D01*
X152671120Y-95941416D01*
X152667016Y-95847873D01*
X152752750Y-95859786D01*
X152841378Y-95868094D01*
X152837737Y-95764961D01*
X152820892Y-95707972D01*
X152786564Y-95570710D01*
X152830926Y-95570295D01*
X152895788Y-95620864D01*
X153010430Y-95744962D01*
X153008999Y-95867072D01*
X152885373Y-96036775D01*
X152838007Y-96088835D01*
X152697557Y-96225131D01*
X152604702Y-96244223D01*
X152604702Y-97104744D01*
X152846497Y-97345950D01*
X153448550Y-97943805D01*
X153611140Y-98104470D01*
X153611140Y-97253657D01*
X153407737Y-97062570D01*
X153248379Y-96901249D01*
X153218915Y-96831847D01*
X153316398Y-96841272D01*
X153360941Y-96854628D01*
X153484387Y-96851177D01*
X153567929Y-96721269D01*
X153593775Y-96641386D01*
X153670000Y-96378438D01*
X153881667Y-96607902D01*
X154012746Y-96755574D01*
X154031638Y-96807588D01*
X153942817Y-96791022D01*
X153910294Y-96781179D01*
X153776559Y-96768435D01*
X153702683Y-96864691D01*
X153669197Y-96989324D01*
X153611140Y-97253657D01*
X153611140Y-98104470D01*
X154005245Y-98493912D01*
X154505788Y-98985736D01*
X154533767Y-99013031D01*
X154533767Y-97986768D01*
X154347649Y-97960227D01*
X154190376Y-97847677D01*
X154135667Y-97720367D01*
X154175995Y-97682675D01*
X154237267Y-97730733D01*
X154400896Y-97831701D01*
X154514325Y-97776113D01*
X154558912Y-97573783D01*
X154559000Y-97561400D01*
X154575343Y-97385948D01*
X154628922Y-97363637D01*
X154650286Y-97381753D01*
X154718315Y-97541464D01*
X154707102Y-97745766D01*
X154631069Y-97919779D01*
X154533767Y-97986768D01*
X154533767Y-99013031D01*
X154939386Y-99408740D01*
X155295245Y-99752390D01*
X155562573Y-100006151D01*
X155730576Y-100159485D01*
X155787428Y-100203000D01*
X155861053Y-100144716D01*
X155886526Y-100121259D01*
X155886526Y-99365568D01*
X155479271Y-98964437D01*
X155258311Y-98732336D01*
X155153597Y-98578687D01*
X155148740Y-98476668D01*
X155165409Y-98450776D01*
X155279078Y-98383771D01*
X155374491Y-98434260D01*
X155450461Y-98462776D01*
X155450461Y-97410239D01*
X153311397Y-95272409D01*
X152818154Y-94778306D01*
X152365043Y-94322203D01*
X151965526Y-93917820D01*
X151633062Y-93578873D01*
X151381109Y-93319082D01*
X151223128Y-93152163D01*
X151172334Y-93092234D01*
X151230075Y-93024694D01*
X151394328Y-92851375D01*
X151647513Y-92590262D01*
X151647513Y-91718682D01*
X151516869Y-91612144D01*
X151475491Y-91573408D01*
X151301993Y-91378951D01*
X151279662Y-91256120D01*
X151410778Y-91195881D01*
X151573255Y-91186000D01*
X151821431Y-91226349D01*
X151920199Y-91344191D01*
X151866804Y-91534716D01*
X151816604Y-91610971D01*
X151727757Y-91716125D01*
X151647513Y-91718682D01*
X151647513Y-92590262D01*
X151651640Y-92586005D01*
X151988558Y-92242311D01*
X152391627Y-91834021D01*
X152530299Y-91694318D01*
X152530299Y-90889667D01*
X152418703Y-90830956D01*
X152270051Y-90696111D01*
X152145328Y-90547063D01*
X152103667Y-90456416D01*
X152157054Y-90352931D01*
X152236715Y-90260714D01*
X152388435Y-90153020D01*
X152475956Y-90127667D01*
X152600139Y-90178999D01*
X152741622Y-90300078D01*
X152856170Y-90441528D01*
X152899547Y-90553973D01*
X152883350Y-90582405D01*
X152774848Y-90563967D01*
X152652194Y-90464337D01*
X152497468Y-90341265D01*
X152354394Y-90296610D01*
X152276209Y-90343821D01*
X152273000Y-90368545D01*
X152329613Y-90473054D01*
X152442334Y-90593333D01*
X152581661Y-90753746D01*
X152601717Y-90861053D01*
X152530299Y-90889667D01*
X152530299Y-91694318D01*
X152847395Y-91374864D01*
X153309556Y-90911433D01*
X153429072Y-90791849D01*
X153429072Y-89936226D01*
X153302730Y-89838760D01*
X153206798Y-89748328D01*
X153048093Y-89586266D01*
X153002231Y-89490388D01*
X153054505Y-89415503D01*
X153089691Y-89388495D01*
X153282137Y-89298579D01*
X153389849Y-89281000D01*
X153518011Y-89338687D01*
X153543000Y-89408000D01*
X153588718Y-89520672D01*
X153627667Y-89535000D01*
X153707172Y-89587280D01*
X153657345Y-89737488D01*
X153591623Y-89836318D01*
X153508918Y-89931650D01*
X153429072Y-89936226D01*
X153429072Y-90791849D01*
X154350941Y-89869448D01*
X154350941Y-89082685D01*
X154239994Y-89055376D01*
X154093000Y-88942020D01*
X153946149Y-88801964D01*
X153892539Y-88720971D01*
X153906047Y-88637998D01*
X153933059Y-88568258D01*
X154047289Y-88451310D01*
X154119326Y-88434333D01*
X154205385Y-88457939D01*
X154153193Y-88535341D01*
X154108206Y-88638701D01*
X154185994Y-88776219D01*
X154235371Y-88831340D01*
X154357800Y-89001476D01*
X154350941Y-89082685D01*
X154350941Y-89869448D01*
X155127975Y-89091966D01*
X155127975Y-88316914D01*
X155039203Y-88302023D01*
X154883439Y-88210946D01*
X154716316Y-88084275D01*
X154593465Y-87962604D01*
X154563685Y-87905167D01*
X154626644Y-87847023D01*
X154671242Y-87841667D01*
X154794219Y-87893779D01*
X154944081Y-88017427D01*
X155073706Y-88163577D01*
X155135970Y-88283198D01*
X155127975Y-88316914D01*
X155127975Y-89091966D01*
X155446779Y-88772977D01*
X155587158Y-88913277D01*
X155587158Y-87582526D01*
X155443055Y-87555151D01*
X155333405Y-87432994D01*
X155345318Y-87210334D01*
X155372392Y-87128925D01*
X155455644Y-87003333D01*
X155521979Y-87022718D01*
X155533127Y-87164077D01*
X155522037Y-87218877D01*
X155497862Y-87376649D01*
X155568262Y-87417204D01*
X155693113Y-87399310D01*
X155859329Y-87393494D01*
X155888840Y-87450600D01*
X155779157Y-87549375D01*
X155587158Y-87582526D01*
X155587158Y-88913277D01*
X156776769Y-90102228D01*
X156776769Y-89384793D01*
X156651896Y-89184730D01*
X156459704Y-88858770D01*
X156361091Y-88627359D01*
X156348405Y-88449302D01*
X156413991Y-88283406D01*
X156468801Y-88199172D01*
X156617316Y-88057818D01*
X156745481Y-88011000D01*
X156909898Y-88057863D01*
X157123155Y-88173720D01*
X157331463Y-88321478D01*
X157481034Y-88464040D01*
X157522334Y-88546758D01*
X157465657Y-88658563D01*
X157318395Y-88841623D01*
X157149552Y-89018935D01*
X156776769Y-89384793D01*
X156776769Y-90102228D01*
X157533496Y-90858536D01*
X157533496Y-90100344D01*
X157316248Y-89883096D01*
X157155280Y-89707970D01*
X157105407Y-89599241D01*
X157148348Y-89514059D01*
X157155630Y-89506593D01*
X157252960Y-89511431D01*
X157358891Y-89582664D01*
X157502587Y-89649228D01*
X157585275Y-89592600D01*
X157559573Y-89458372D01*
X157530357Y-89417668D01*
X157479996Y-89288805D01*
X157547755Y-89237544D01*
X157659002Y-89289024D01*
X157798164Y-89344664D01*
X157890072Y-89296534D01*
X157880592Y-89182440D01*
X157857823Y-89150171D01*
X157803967Y-89004945D01*
X157820310Y-88939675D01*
X157907737Y-88928695D01*
X158048189Y-89007575D01*
X158188636Y-89134167D01*
X158276050Y-89266324D01*
X158284334Y-89308481D01*
X158227034Y-89406346D01*
X158078207Y-89576881D01*
X157908915Y-89745728D01*
X157533496Y-90100344D01*
X157533496Y-90858536D01*
X157607614Y-90932613D01*
X158289793Y-91614413D01*
X158289793Y-90839646D01*
X158075397Y-90638231D01*
X157912032Y-90467161D01*
X157867168Y-90355807D01*
X157917630Y-90268593D01*
X158014960Y-90273431D01*
X158120891Y-90344664D01*
X158264587Y-90411228D01*
X158347275Y-90354600D01*
X158321573Y-90220372D01*
X158292357Y-90179668D01*
X158241996Y-90050805D01*
X158309755Y-89999544D01*
X158421002Y-90051024D01*
X158566419Y-90110785D01*
X158645057Y-90044244D01*
X158614514Y-89892668D01*
X158603305Y-89873592D01*
X158538107Y-89712116D01*
X158584803Y-89651167D01*
X158714321Y-89697458D01*
X158856880Y-89815062D01*
X159085629Y-90043810D01*
X158289793Y-90839646D01*
X158289793Y-91614413D01*
X159404324Y-92728326D01*
X159404324Y-91890978D01*
X159317228Y-91881211D01*
X159303974Y-91867720D01*
X159276685Y-91747068D01*
X159385299Y-91609063D01*
X159510965Y-91474764D01*
X159554334Y-91394300D01*
X159478052Y-91350983D01*
X159281214Y-91303947D01*
X159088755Y-91274341D01*
X158623177Y-91216171D01*
X158975009Y-90798919D01*
X159165802Y-90583980D01*
X159317764Y-90433345D01*
X159393257Y-90381667D01*
X159501804Y-90438962D01*
X159502831Y-90578257D01*
X159396259Y-90750668D01*
X159393871Y-90753225D01*
X159250339Y-90927741D01*
X159246958Y-91021297D01*
X159394971Y-91059057D01*
X159533167Y-91064951D01*
X159854256Y-91083856D01*
X160015696Y-91138691D01*
X160026410Y-91249344D01*
X159895320Y-91435705D01*
X159764098Y-91579702D01*
X159545286Y-91795479D01*
X159404324Y-91890978D01*
X159404324Y-92728326D01*
X159768450Y-93092250D01*
X157609455Y-95251244D01*
X155450461Y-97410239D01*
X155450461Y-98462776D01*
X155514433Y-98486790D01*
X155722180Y-98434100D01*
X155736576Y-98428214D01*
X155973500Y-98369430D01*
X156159986Y-98420889D01*
X156303947Y-98548001D01*
X156315000Y-98720095D01*
X156191433Y-98960228D01*
X156111763Y-99070267D01*
X155886526Y-99365568D01*
X155886526Y-100121259D01*
X156043322Y-99976867D01*
X156323480Y-99709959D01*
X156690768Y-99354499D01*
X156726305Y-99319776D01*
X156726305Y-98512118D01*
X155912101Y-97710156D01*
X156157897Y-97464360D01*
X156340221Y-97318153D01*
X156479510Y-97272081D01*
X156502862Y-97279854D01*
X156545412Y-97366458D01*
X156455924Y-97502591D01*
X156362375Y-97660324D01*
X156404345Y-97737142D01*
X156555590Y-97702198D01*
X156602830Y-97675261D01*
X156719133Y-97614267D01*
X156749260Y-97659670D01*
X156719253Y-97826633D01*
X156704275Y-98025141D01*
X156769799Y-98082869D01*
X156905357Y-97992111D01*
X157041635Y-97941492D01*
X157098566Y-97959065D01*
X157122379Y-98050231D01*
X157007337Y-98217199D01*
X156961929Y-98266180D01*
X156726305Y-98512118D01*
X156726305Y-99319776D01*
X157134430Y-98920992D01*
X157498192Y-98563110D01*
X157498192Y-97561517D01*
X157328442Y-97544765D01*
X157042181Y-97419481D01*
X156878094Y-97204772D01*
X156848544Y-96940115D01*
X156965894Y-96664986D01*
X157029092Y-96588957D01*
X157265728Y-96434657D01*
X157546708Y-96385447D01*
X157811137Y-96441824D01*
X157983200Y-96581172D01*
X158099531Y-96829173D01*
X158069194Y-97060792D01*
X157886332Y-97311450D01*
X157857608Y-97340751D01*
X157665173Y-97505992D01*
X157498192Y-97561517D01*
X157498192Y-98563110D01*
X157643709Y-98419945D01*
X158207848Y-97861864D01*
X158559426Y-97512386D01*
X158559426Y-96686300D01*
X158173260Y-96306817D01*
X157946388Y-96079372D01*
X157826137Y-95935926D01*
X157796808Y-95843385D01*
X157842700Y-95768654D01*
X157895796Y-95721923D01*
X158021542Y-95670641D01*
X158070240Y-95711739D01*
X158189058Y-95760191D01*
X158420631Y-95752987D01*
X158458319Y-95747436D01*
X158754663Y-95744118D01*
X158961702Y-95829877D01*
X159045905Y-95990058D01*
X159046334Y-96004399D01*
X158995712Y-96125087D01*
X158868290Y-96312691D01*
X158802880Y-96394682D01*
X158559426Y-96686300D01*
X158559426Y-97512386D01*
X158816090Y-97257254D01*
X159385129Y-96689205D01*
X159473466Y-96600849D01*
X159473466Y-95734592D01*
X159375577Y-95707507D01*
X159220753Y-95585442D01*
X159033132Y-95406330D01*
X158624430Y-95003774D01*
X158851757Y-94766495D01*
X159034756Y-94615307D01*
X159153937Y-94604917D01*
X159160721Y-94610854D01*
X159182933Y-94738899D01*
X159126246Y-94832395D01*
X159072594Y-94929506D01*
X159104254Y-95032222D01*
X159240806Y-95182163D01*
X159329919Y-95265361D01*
X159515666Y-95450422D01*
X159585230Y-95571966D01*
X159558112Y-95667781D01*
X159545769Y-95683654D01*
X159473466Y-95734592D01*
X159473466Y-96600849D01*
X160144013Y-95930156D01*
X160144013Y-95070658D01*
X159764507Y-94698201D01*
X159566945Y-94496614D01*
X159429684Y-94341854D01*
X159385000Y-94273464D01*
X159440597Y-94185557D01*
X159575898Y-94041975D01*
X159590399Y-94028222D01*
X159759995Y-93912139D01*
X159887672Y-93890914D01*
X159935982Y-93953211D01*
X159867477Y-94087695D01*
X159850667Y-94107000D01*
X159780485Y-94252877D01*
X159831869Y-94338780D01*
X159962647Y-94317863D01*
X160010333Y-94284357D01*
X160138203Y-94232928D01*
X160188603Y-94299604D01*
X160132921Y-94420298D01*
X160082223Y-94550057D01*
X160144239Y-94639755D01*
X160243773Y-94698446D01*
X160291639Y-94636167D01*
X160378101Y-94552335D01*
X160498822Y-94532581D01*
X160569272Y-94587800D01*
X160570334Y-94600242D01*
X160514171Y-94700166D01*
X160376973Y-94851502D01*
X160357173Y-94870404D01*
X160144013Y-95070658D01*
X160144013Y-95930156D01*
X160786737Y-95287293D01*
X160786737Y-93292469D01*
X160715934Y-93270467D01*
X160685368Y-93161324D01*
X160789317Y-93001857D01*
X160812922Y-92976147D01*
X161002468Y-92774385D01*
X160807568Y-92722182D01*
X160578928Y-92683840D01*
X160337500Y-92668823D01*
X160151365Y-92650983D01*
X160066652Y-92609067D01*
X160066128Y-92604167D01*
X160120647Y-92513116D01*
X160259578Y-92336724D01*
X160443942Y-92123273D01*
X160648696Y-91904837D01*
X160773848Y-91803535D01*
X160844602Y-91803502D01*
X160874193Y-91852414D01*
X160857575Y-92034755D01*
X160742293Y-92199206D01*
X160554162Y-92399462D01*
X161031566Y-92459109D01*
X161284599Y-92501378D01*
X161447743Y-92549342D01*
X161484152Y-92582968D01*
X161417481Y-92676448D01*
X161271340Y-92850592D01*
X161133912Y-93005101D01*
X160924148Y-93213708D01*
X160786737Y-93292469D01*
X160786737Y-95287293D01*
X161267454Y-94806471D01*
X161267454Y-93807485D01*
X161204050Y-93767268D01*
X161141361Y-93692529D01*
X161155418Y-93603216D01*
X161263223Y-93464175D01*
X161437629Y-93284266D01*
X161691954Y-93057588D01*
X161871792Y-92964713D01*
X161950922Y-92969418D01*
X162055244Y-93024230D01*
X162075120Y-93098122D01*
X161998370Y-93219304D01*
X161812812Y-93415986D01*
X161717343Y-93510399D01*
X161502762Y-93710808D01*
X161364988Y-93803737D01*
X161267454Y-93807485D01*
X161267454Y-94806471D01*
X162898159Y-93175410D01*
X159321375Y-89598625D01*
G36*
X156188834Y-90256680D02*
X155742014Y-90200031D01*
X155427703Y-90165436D01*
X155209994Y-90157376D01*
X155052977Y-90180328D01*
X154920742Y-90238771D01*
X154777382Y-90337184D01*
X154625202Y-90451697D01*
X154343634Y-90651550D01*
X154071764Y-90827953D01*
X153907395Y-90921962D01*
X153647356Y-91081956D01*
X153408198Y-91270482D01*
X153239762Y-91409918D01*
X153119564Y-91480281D01*
X153107304Y-91482333D01*
X153035454Y-91526743D01*
X153072164Y-91618343D01*
X153174490Y-91687077D01*
X153325078Y-91720507D01*
X153588980Y-91757748D01*
X153910574Y-91791018D01*
X153928132Y-91792520D01*
X154262338Y-91814240D01*
X154319777Y-91811749D01*
X154319777Y-91631535D01*
X154009108Y-91614906D01*
X153927934Y-91606630D01*
X153647083Y-91573163D01*
X153447675Y-91542930D01*
X153373667Y-91522849D01*
X153439799Y-91470066D01*
X153608629Y-91362292D01*
X153735873Y-91286157D01*
X153975262Y-91159812D01*
X154163680Y-91116304D01*
X154389107Y-91141690D01*
X154497873Y-91165376D01*
X154767574Y-91241465D01*
X154877655Y-91319852D01*
X154837175Y-91417724D01*
X154689934Y-91529875D01*
X154529048Y-91604971D01*
X154319777Y-91631535D01*
X154319777Y-91811749D01*
X154483354Y-91804655D01*
X154645764Y-91755364D01*
X154804156Y-91657965D01*
X154804642Y-91657619D01*
X154878640Y-91604928D01*
X154878640Y-91062432D01*
X154574615Y-91025233D01*
X154495500Y-91005636D01*
X154340917Y-90930729D01*
X154315918Y-90850157D01*
X154428478Y-90805909D01*
X154457400Y-90805000D01*
X154632704Y-90762835D01*
X154691694Y-90723107D01*
X154842416Y-90670064D01*
X155016680Y-90716809D01*
X155067000Y-90765809D01*
X155067000Y-90508667D01*
X154988982Y-90501954D01*
X154982334Y-90471330D01*
X155043794Y-90385112D01*
X155067000Y-90381667D01*
X155149466Y-90410554D01*
X155151667Y-90419003D01*
X155092338Y-90491289D01*
X155067000Y-90508667D01*
X155067000Y-90765809D01*
X155136395Y-90833386D01*
X155151667Y-90899542D01*
X155079270Y-91019197D01*
X154878640Y-91062432D01*
X154878640Y-91604928D01*
X155067000Y-91470803D01*
X155067000Y-92633729D01*
X155680834Y-92653340D01*
X155885445Y-92663289D01*
X155885445Y-92498333D01*
X155556966Y-92491657D01*
X155362805Y-92460120D01*
X155268120Y-92386465D01*
X155238066Y-92253432D01*
X155236334Y-92176811D01*
X155251142Y-92043355D01*
X155327753Y-91997086D01*
X155514443Y-92014258D01*
X155553834Y-92020657D01*
X155852197Y-92057386D01*
X156093584Y-92071476D01*
X156093584Y-91905667D01*
X155684025Y-91887622D01*
X155426236Y-91830161D01*
X155306186Y-91728294D01*
X155297552Y-91622568D01*
X155330692Y-91524343D01*
X155409573Y-91473030D01*
X155574836Y-91457813D01*
X155867121Y-91467880D01*
X155871334Y-91468098D01*
X155871334Y-91313000D01*
X155591184Y-91304091D01*
X155393210Y-91280780D01*
X155321653Y-91249500D01*
X155389028Y-91173360D01*
X155448000Y-91131838D01*
X155448000Y-90920285D01*
X155338674Y-90907693D01*
X155321000Y-90847333D01*
X155377926Y-90764427D01*
X155448000Y-90774382D01*
X155559247Y-90829643D01*
X155575000Y-90847333D01*
X155509075Y-90893844D01*
X155448000Y-90920285D01*
X155448000Y-91131838D01*
X155558725Y-91053876D01*
X155659212Y-90993609D01*
X155766748Y-90948445D01*
X155766748Y-90596381D01*
X155384500Y-90559590D01*
X155325071Y-90483243D01*
X155320885Y-90445167D01*
X155379905Y-90382669D01*
X155570533Y-90361154D01*
X155790238Y-90368550D01*
X156054697Y-90392532D01*
X156176743Y-90428424D01*
X156183288Y-90486483D01*
X156165298Y-90511522D01*
X156027974Y-90581735D01*
X155766748Y-90596381D01*
X155766748Y-90948445D01*
X155964264Y-90865490D01*
X156210865Y-90849868D01*
X156337000Y-90922457D01*
X156337000Y-90720333D01*
X156254535Y-90691447D01*
X156252334Y-90682997D01*
X156311663Y-90610711D01*
X156337000Y-90593333D01*
X156415019Y-90600046D01*
X156421667Y-90630670D01*
X156360207Y-90716888D01*
X156337000Y-90720333D01*
X156337000Y-90922457D01*
X156372005Y-90942602D01*
X156421667Y-91110512D01*
X156410811Y-91219433D01*
X156352789Y-91280109D01*
X156209424Y-91306587D01*
X155942535Y-91312916D01*
X155871334Y-91313000D01*
X155871334Y-91468098D01*
X155876962Y-91468391D01*
X156171379Y-91488328D01*
X156334781Y-91520190D01*
X156405426Y-91580333D01*
X156421575Y-91685110D01*
X156421667Y-91701225D01*
X156401131Y-91834688D01*
X156307628Y-91892898D01*
X156093584Y-91905667D01*
X156093584Y-92071476D01*
X156136916Y-92074006D01*
X156146500Y-92074068D01*
X156337679Y-92093671D01*
X156411998Y-92176798D01*
X156421667Y-92286667D01*
X156411670Y-92401586D01*
X156355850Y-92464964D01*
X156215468Y-92492094D01*
X155951783Y-92498268D01*
X155885445Y-92498333D01*
X155885445Y-92663289D01*
X156005856Y-92669145D01*
X156277552Y-92692069D01*
X156439168Y-92717271D01*
X156442834Y-92718348D01*
X156500676Y-92723894D01*
X156541204Y-92682976D01*
X156567459Y-92571316D01*
X156582482Y-92364635D01*
X156589314Y-92038657D01*
X156590997Y-91569104D01*
X156591000Y-91535560D01*
X156591000Y-90307376D01*
X156188834Y-90256680D01*
X156188834Y-90256680D01*
G37*
X156188834Y-90256680D02*
X155742014Y-90200031D01*
X155427703Y-90165436D01*
X155209994Y-90157376D01*
X155052977Y-90180328D01*
X154920742Y-90238771D01*
X154777382Y-90337184D01*
X154625202Y-90451697D01*
X154343634Y-90651550D01*
X154071764Y-90827953D01*
X153907395Y-90921962D01*
X153647356Y-91081956D01*
X153408198Y-91270482D01*
X153239762Y-91409918D01*
X153119564Y-91480281D01*
X153107304Y-91482333D01*
X153035454Y-91526743D01*
X153072164Y-91618343D01*
X153174490Y-91687077D01*
X153325078Y-91720507D01*
X153588980Y-91757748D01*
X153910574Y-91791018D01*
X153928132Y-91792520D01*
X154262338Y-91814240D01*
X154319777Y-91811749D01*
X154319777Y-91631535D01*
X154009108Y-91614906D01*
X153927934Y-91606630D01*
X153647083Y-91573163D01*
X153447675Y-91542930D01*
X153373667Y-91522849D01*
X153439799Y-91470066D01*
X153608629Y-91362292D01*
X153735873Y-91286157D01*
X153975262Y-91159812D01*
X154163680Y-91116304D01*
X154389107Y-91141690D01*
X154497873Y-91165376D01*
X154767574Y-91241465D01*
X154877655Y-91319852D01*
X154837175Y-91417724D01*
X154689934Y-91529875D01*
X154529048Y-91604971D01*
X154319777Y-91631535D01*
X154319777Y-91811749D01*
X154483354Y-91804655D01*
X154645764Y-91755364D01*
X154804156Y-91657965D01*
X154804642Y-91657619D01*
X154878640Y-91604928D01*
X154878640Y-91062432D01*
X154574615Y-91025233D01*
X154495500Y-91005636D01*
X154340917Y-90930729D01*
X154315918Y-90850157D01*
X154428478Y-90805909D01*
X154457400Y-90805000D01*
X154632704Y-90762835D01*
X154691694Y-90723107D01*
X154842416Y-90670064D01*
X155016680Y-90716809D01*
X155067000Y-90765809D01*
X155067000Y-90508667D01*
X154988982Y-90501954D01*
X154982334Y-90471330D01*
X155043794Y-90385112D01*
X155067000Y-90381667D01*
X155149466Y-90410554D01*
X155151667Y-90419003D01*
X155092338Y-90491289D01*
X155067000Y-90508667D01*
X155067000Y-90765809D01*
X155136395Y-90833386D01*
X155151667Y-90899542D01*
X155079270Y-91019197D01*
X154878640Y-91062432D01*
X154878640Y-91604928D01*
X155067000Y-91470803D01*
X155067000Y-92633729D01*
X155680834Y-92653340D01*
X155885445Y-92663289D01*
X155885445Y-92498333D01*
X155556966Y-92491657D01*
X155362805Y-92460120D01*
X155268120Y-92386465D01*
X155238066Y-92253432D01*
X155236334Y-92176811D01*
X155251142Y-92043355D01*
X155327753Y-91997086D01*
X155514443Y-92014258D01*
X155553834Y-92020657D01*
X155852197Y-92057386D01*
X156093584Y-92071476D01*
X156093584Y-91905667D01*
X155684025Y-91887622D01*
X155426236Y-91830161D01*
X155306186Y-91728294D01*
X155297552Y-91622568D01*
X155330692Y-91524343D01*
X155409573Y-91473030D01*
X155574836Y-91457813D01*
X155867121Y-91467880D01*
X155871334Y-91468098D01*
X155871334Y-91313000D01*
X155591184Y-91304091D01*
X155393210Y-91280780D01*
X155321653Y-91249500D01*
X155389028Y-91173360D01*
X155448000Y-91131838D01*
X155448000Y-90920285D01*
X155338674Y-90907693D01*
X155321000Y-90847333D01*
X155377926Y-90764427D01*
X155448000Y-90774382D01*
X155559247Y-90829643D01*
X155575000Y-90847333D01*
X155509075Y-90893844D01*
X155448000Y-90920285D01*
X155448000Y-91131838D01*
X155558725Y-91053876D01*
X155659212Y-90993609D01*
X155766748Y-90948445D01*
X155766748Y-90596381D01*
X155384500Y-90559590D01*
X155325071Y-90483243D01*
X155320885Y-90445167D01*
X155379905Y-90382669D01*
X155570533Y-90361154D01*
X155790238Y-90368550D01*
X156054697Y-90392532D01*
X156176743Y-90428424D01*
X156183288Y-90486483D01*
X156165298Y-90511522D01*
X156027974Y-90581735D01*
X155766748Y-90596381D01*
X155766748Y-90948445D01*
X155964264Y-90865490D01*
X156210865Y-90849868D01*
X156337000Y-90922457D01*
X156337000Y-90720333D01*
X156254535Y-90691447D01*
X156252334Y-90682997D01*
X156311663Y-90610711D01*
X156337000Y-90593333D01*
X156415019Y-90600046D01*
X156421667Y-90630670D01*
X156360207Y-90716888D01*
X156337000Y-90720333D01*
X156337000Y-90922457D01*
X156372005Y-90942602D01*
X156421667Y-91110512D01*
X156410811Y-91219433D01*
X156352789Y-91280109D01*
X156209424Y-91306587D01*
X155942535Y-91312916D01*
X155871334Y-91313000D01*
X155871334Y-91468098D01*
X155876962Y-91468391D01*
X156171379Y-91488328D01*
X156334781Y-91520190D01*
X156405426Y-91580333D01*
X156421575Y-91685110D01*
X156421667Y-91701225D01*
X156401131Y-91834688D01*
X156307628Y-91892898D01*
X156093584Y-91905667D01*
X156093584Y-92071476D01*
X156136916Y-92074006D01*
X156146500Y-92074068D01*
X156337679Y-92093671D01*
X156411998Y-92176798D01*
X156421667Y-92286667D01*
X156411670Y-92401586D01*
X156355850Y-92464964D01*
X156215468Y-92492094D01*
X155951783Y-92498268D01*
X155885445Y-92498333D01*
X155885445Y-92663289D01*
X156005856Y-92669145D01*
X156277552Y-92692069D01*
X156439168Y-92717271D01*
X156442834Y-92718348D01*
X156500676Y-92723894D01*
X156541204Y-92682976D01*
X156567459Y-92571316D01*
X156582482Y-92364635D01*
X156589314Y-92038657D01*
X156590997Y-91569104D01*
X156591000Y-91535560D01*
X156591000Y-90307376D01*
X156188834Y-90256680D01*
G36*
X158923642Y-93121439D02*
X158784057Y-93095943D01*
X158623000Y-93105511D01*
X158411549Y-93113270D01*
X158293344Y-93093524D01*
X158284334Y-93081494D01*
X158205726Y-93013909D01*
X157990285Y-92973353D01*
X157668581Y-92961380D01*
X157271188Y-92979539D01*
X156944828Y-93013487D01*
X156553399Y-93057762D01*
X156270998Y-93069782D01*
X156039996Y-93047301D01*
X155802769Y-92988071D01*
X155732447Y-92966211D01*
X155147023Y-92770570D01*
X154718402Y-92605835D01*
X154437685Y-92468021D01*
X154295976Y-92353142D01*
X154276557Y-92314041D01*
X154174418Y-92177707D01*
X153992937Y-92102557D01*
X153789217Y-92091091D01*
X153620360Y-92145814D01*
X153543469Y-92269227D01*
X153543000Y-92281893D01*
X153610030Y-92388623D01*
X153815770Y-92522426D01*
X154167200Y-92686677D01*
X154671299Y-92884752D01*
X155129022Y-93048921D01*
X155484874Y-93175095D01*
X155703505Y-93262689D01*
X155808118Y-93327328D01*
X155821916Y-93384635D01*
X155768103Y-93450234D01*
X155749886Y-93466975D01*
X155575882Y-93570685D01*
X155264350Y-93701397D01*
X154843005Y-93849126D01*
X154339563Y-94003888D01*
X153987500Y-94101901D01*
X153730263Y-94202025D01*
X153637797Y-94325746D01*
X153706198Y-94481783D01*
X153782501Y-94559545D01*
X153962731Y-94670848D01*
X154135877Y-94702873D01*
X154252724Y-94657185D01*
X154267047Y-94544132D01*
X154269666Y-94428586D01*
X154387525Y-94340412D01*
X154536508Y-94284631D01*
X154769164Y-94206501D01*
X154939771Y-94145275D01*
X154961167Y-94136777D01*
X155041389Y-94169552D01*
X155067000Y-94353945D01*
X155040809Y-94558951D01*
X154958723Y-94605965D01*
X154831345Y-94514811D01*
X154713608Y-94461601D01*
X154666245Y-94481733D01*
X154678830Y-94570503D01*
X154791834Y-94676916D01*
X154957086Y-94823422D01*
X154961071Y-94934915D01*
X154801817Y-95013955D01*
X154495500Y-95061499D01*
X154191305Y-95076945D01*
X153977795Y-95044607D01*
X153779314Y-94948392D01*
X153689634Y-94890072D01*
X153461344Y-94753262D01*
X153336045Y-94716625D01*
X153326210Y-94782151D01*
X153357104Y-94836963D01*
X153447393Y-94916930D01*
X153649396Y-95067714D01*
X153933025Y-95267579D01*
X154262021Y-95490678D01*
X154982334Y-95970581D01*
X154982334Y-95720723D01*
X154644319Y-95527695D01*
X154442795Y-95400100D01*
X154321504Y-95299170D01*
X154305653Y-95271167D01*
X154380374Y-95231399D01*
X154567824Y-95209284D01*
X154643667Y-95207667D01*
X154860791Y-95217624D01*
X154957310Y-95272016D01*
X154981780Y-95407621D01*
X154982334Y-95464195D01*
X154982334Y-95720723D01*
X154982334Y-95970581D01*
X155108041Y-96054333D01*
X155627701Y-96054333D01*
X155627701Y-95885000D01*
X155333185Y-95868347D01*
X155181643Y-95827435D01*
X155179654Y-95775833D01*
X155333794Y-95727109D01*
X155405667Y-95718283D01*
X155405667Y-95526691D01*
X155251632Y-95517863D01*
X155233478Y-95495886D01*
X155257500Y-95487971D01*
X155360434Y-95481659D01*
X155360434Y-95356238D01*
X155327401Y-95354203D01*
X155205780Y-95301812D01*
X155146199Y-95207553D01*
X155175824Y-95133350D01*
X155225967Y-95123000D01*
X155337036Y-95180828D01*
X155401700Y-95245220D01*
X155451870Y-95337070D01*
X155360434Y-95356238D01*
X155360434Y-95481659D01*
X155472234Y-95474803D01*
X155553834Y-95487971D01*
X155580184Y-95512511D01*
X155463112Y-95525872D01*
X155405667Y-95526691D01*
X155405667Y-95718283D01*
X155538946Y-95701916D01*
X155832304Y-95705352D01*
X156003703Y-95766443D01*
X156014980Y-95778057D01*
X156031512Y-95839866D01*
X155934401Y-95873115D01*
X155698736Y-95884682D01*
X155627701Y-95885000D01*
X155627701Y-96054333D01*
X155764854Y-96054333D01*
X156049047Y-96051706D01*
X156049047Y-95363369D01*
X155812841Y-95305430D01*
X155583248Y-95159281D01*
X155423184Y-95013747D01*
X155343114Y-94919149D01*
X155341422Y-94905023D01*
X155433481Y-94898158D01*
X155643420Y-94908782D01*
X155857276Y-94927845D01*
X156051250Y-94952613D01*
X156051250Y-94784333D01*
X155644399Y-94762925D01*
X155385273Y-94694359D01*
X155257214Y-94572127D01*
X155236334Y-94465909D01*
X155247319Y-94338639D01*
X155309883Y-94284892D01*
X155468441Y-94286716D01*
X155629151Y-94307159D01*
X155901522Y-94339985D01*
X156123362Y-94359053D01*
X156179484Y-94361000D01*
X156304899Y-94417565D01*
X156337000Y-94572667D01*
X156313736Y-94717697D01*
X156210403Y-94775628D01*
X156051250Y-94784333D01*
X156051250Y-94952613D01*
X156132204Y-94962951D01*
X156275112Y-95007553D01*
X156323083Y-95079967D01*
X156320112Y-95156454D01*
X156230905Y-95313661D01*
X156049047Y-95363369D01*
X156049047Y-96051706D01*
X156095075Y-96051280D01*
X156283378Y-96035987D01*
X156283378Y-95715667D01*
X156159233Y-95673923D01*
X156110877Y-95590274D01*
X156126745Y-95559033D01*
X156213729Y-95570718D01*
X156270678Y-95615478D01*
X156318409Y-95700719D01*
X156283378Y-95715667D01*
X156283378Y-96035987D01*
X156291059Y-96035363D01*
X156387884Y-95996446D01*
X156420624Y-95924393D01*
X156424066Y-95863833D01*
X156429678Y-95702347D01*
X156442942Y-95416603D01*
X156461685Y-95051393D01*
X156477422Y-94763167D01*
X156495968Y-94322203D01*
X156492611Y-94034201D01*
X156466612Y-93884118D01*
X156432690Y-93853000D01*
X156355549Y-93923969D01*
X156337000Y-94026066D01*
X156323439Y-94116458D01*
X156258365Y-94165660D01*
X156105198Y-94182900D01*
X155827356Y-94177409D01*
X155749759Y-94174233D01*
X155469423Y-94155593D01*
X155279803Y-94129764D01*
X155218426Y-94102042D01*
X155220593Y-94099533D01*
X155325818Y-94047419D01*
X155542102Y-93961258D01*
X155786667Y-93872453D01*
X156048375Y-93790578D01*
X156292043Y-93742897D01*
X156570049Y-93724623D01*
X156934772Y-93730964D01*
X157196780Y-93743502D01*
X157599649Y-93762771D01*
X157867105Y-93766274D01*
X158032664Y-93749975D01*
X158129837Y-93709840D01*
X158192140Y-93641833D01*
X158204865Y-93622140D01*
X158242000Y-93590403D01*
X158242000Y-93345000D01*
X158199667Y-93302667D01*
X158242000Y-93260333D01*
X158284334Y-93302667D01*
X158242000Y-93345000D01*
X158242000Y-93590403D01*
X158349154Y-93498825D01*
X158458263Y-93491003D01*
X158657542Y-93482660D01*
X158846263Y-93388938D01*
X158955004Y-93249123D01*
X158961667Y-93206128D01*
X158923642Y-93121439D01*
X158923642Y-93121439D01*
G37*
X158923642Y-93121439D02*
X158784057Y-93095943D01*
X158623000Y-93105511D01*
X158411549Y-93113270D01*
X158293344Y-93093524D01*
X158284334Y-93081494D01*
X158205726Y-93013909D01*
X157990285Y-92973353D01*
X157668581Y-92961380D01*
X157271188Y-92979539D01*
X156944828Y-93013487D01*
X156553399Y-93057762D01*
X156270998Y-93069782D01*
X156039996Y-93047301D01*
X155802769Y-92988071D01*
X155732447Y-92966211D01*
X155147023Y-92770570D01*
X154718402Y-92605835D01*
X154437685Y-92468021D01*
X154295976Y-92353142D01*
X154276557Y-92314041D01*
X154174418Y-92177707D01*
X153992937Y-92102557D01*
X153789217Y-92091091D01*
X153620360Y-92145814D01*
X153543469Y-92269227D01*
X153543000Y-92281893D01*
X153610030Y-92388623D01*
X153815770Y-92522426D01*
X154167200Y-92686677D01*
X154671299Y-92884752D01*
X155129022Y-93048921D01*
X155484874Y-93175095D01*
X155703505Y-93262689D01*
X155808118Y-93327328D01*
X155821916Y-93384635D01*
X155768103Y-93450234D01*
X155749886Y-93466975D01*
X155575882Y-93570685D01*
X155264350Y-93701397D01*
X154843005Y-93849126D01*
X154339563Y-94003888D01*
X153987500Y-94101901D01*
X153730263Y-94202025D01*
X153637797Y-94325746D01*
X153706198Y-94481783D01*
X153782501Y-94559545D01*
X153962731Y-94670848D01*
X154135877Y-94702873D01*
X154252724Y-94657185D01*
X154267047Y-94544132D01*
X154269666Y-94428586D01*
X154387525Y-94340412D01*
X154536508Y-94284631D01*
X154769164Y-94206501D01*
X154939771Y-94145275D01*
X154961167Y-94136777D01*
X155041389Y-94169552D01*
X155067000Y-94353945D01*
X155040809Y-94558951D01*
X154958723Y-94605965D01*
X154831345Y-94514811D01*
X154713608Y-94461601D01*
X154666245Y-94481733D01*
X154678830Y-94570503D01*
X154791834Y-94676916D01*
X154957086Y-94823422D01*
X154961071Y-94934915D01*
X154801817Y-95013955D01*
X154495500Y-95061499D01*
X154191305Y-95076945D01*
X153977795Y-95044607D01*
X153779314Y-94948392D01*
X153689634Y-94890072D01*
X153461344Y-94753262D01*
X153336045Y-94716625D01*
X153326210Y-94782151D01*
X153357104Y-94836963D01*
X153447393Y-94916930D01*
X153649396Y-95067714D01*
X153933025Y-95267579D01*
X154262021Y-95490678D01*
X154982334Y-95970581D01*
X154982334Y-95720723D01*
X154644319Y-95527695D01*
X154442795Y-95400100D01*
X154321504Y-95299170D01*
X154305653Y-95271167D01*
X154380374Y-95231399D01*
X154567824Y-95209284D01*
X154643667Y-95207667D01*
X154860791Y-95217624D01*
X154957310Y-95272016D01*
X154981780Y-95407621D01*
X154982334Y-95464195D01*
X154982334Y-95720723D01*
X154982334Y-95970581D01*
X155108041Y-96054333D01*
X155627701Y-96054333D01*
X155627701Y-95885000D01*
X155333185Y-95868347D01*
X155181643Y-95827435D01*
X155179654Y-95775833D01*
X155333794Y-95727109D01*
X155405667Y-95718283D01*
X155405667Y-95526691D01*
X155251632Y-95517863D01*
X155233478Y-95495886D01*
X155257500Y-95487971D01*
X155360434Y-95481659D01*
X155360434Y-95356238D01*
X155327401Y-95354203D01*
X155205780Y-95301812D01*
X155146199Y-95207553D01*
X155175824Y-95133350D01*
X155225967Y-95123000D01*
X155337036Y-95180828D01*
X155401700Y-95245220D01*
X155451870Y-95337070D01*
X155360434Y-95356238D01*
X155360434Y-95481659D01*
X155472234Y-95474803D01*
X155553834Y-95487971D01*
X155580184Y-95512511D01*
X155463112Y-95525872D01*
X155405667Y-95526691D01*
X155405667Y-95718283D01*
X155538946Y-95701916D01*
X155832304Y-95705352D01*
X156003703Y-95766443D01*
X156014980Y-95778057D01*
X156031512Y-95839866D01*
X155934401Y-95873115D01*
X155698736Y-95884682D01*
X155627701Y-95885000D01*
X155627701Y-96054333D01*
X155764854Y-96054333D01*
X156049047Y-96051706D01*
X156049047Y-95363369D01*
X155812841Y-95305430D01*
X155583248Y-95159281D01*
X155423184Y-95013747D01*
X155343114Y-94919149D01*
X155341422Y-94905023D01*
X155433481Y-94898158D01*
X155643420Y-94908782D01*
X155857276Y-94927845D01*
X156051250Y-94952613D01*
X156051250Y-94784333D01*
X155644399Y-94762925D01*
X155385273Y-94694359D01*
X155257214Y-94572127D01*
X155236334Y-94465909D01*
X155247319Y-94338639D01*
X155309883Y-94284892D01*
X155468441Y-94286716D01*
X155629151Y-94307159D01*
X155901522Y-94339985D01*
X156123362Y-94359053D01*
X156179484Y-94361000D01*
X156304899Y-94417565D01*
X156337000Y-94572667D01*
X156313736Y-94717697D01*
X156210403Y-94775628D01*
X156051250Y-94784333D01*
X156051250Y-94952613D01*
X156132204Y-94962951D01*
X156275112Y-95007553D01*
X156323083Y-95079967D01*
X156320112Y-95156454D01*
X156230905Y-95313661D01*
X156049047Y-95363369D01*
X156049047Y-96051706D01*
X156095075Y-96051280D01*
X156283378Y-96035987D01*
X156283378Y-95715667D01*
X156159233Y-95673923D01*
X156110877Y-95590274D01*
X156126745Y-95559033D01*
X156213729Y-95570718D01*
X156270678Y-95615478D01*
X156318409Y-95700719D01*
X156283378Y-95715667D01*
X156283378Y-96035987D01*
X156291059Y-96035363D01*
X156387884Y-95996446D01*
X156420624Y-95924393D01*
X156424066Y-95863833D01*
X156429678Y-95702347D01*
X156442942Y-95416603D01*
X156461685Y-95051393D01*
X156477422Y-94763167D01*
X156495968Y-94322203D01*
X156492611Y-94034201D01*
X156466612Y-93884118D01*
X156432690Y-93853000D01*
X156355549Y-93923969D01*
X156337000Y-94026066D01*
X156323439Y-94116458D01*
X156258365Y-94165660D01*
X156105198Y-94182900D01*
X155827356Y-94177409D01*
X155749759Y-94174233D01*
X155469423Y-94155593D01*
X155279803Y-94129764D01*
X155218426Y-94102042D01*
X155220593Y-94099533D01*
X155325818Y-94047419D01*
X155542102Y-93961258D01*
X155786667Y-93872453D01*
X156048375Y-93790578D01*
X156292043Y-93742897D01*
X156570049Y-93724623D01*
X156934772Y-93730964D01*
X157196780Y-93743502D01*
X157599649Y-93762771D01*
X157867105Y-93766274D01*
X158032664Y-93749975D01*
X158129837Y-93709840D01*
X158192140Y-93641833D01*
X158204865Y-93622140D01*
X158242000Y-93590403D01*
X158242000Y-93345000D01*
X158199667Y-93302667D01*
X158242000Y-93260333D01*
X158284334Y-93302667D01*
X158242000Y-93345000D01*
X158242000Y-93590403D01*
X158349154Y-93498825D01*
X158458263Y-93491003D01*
X158657542Y-93482660D01*
X158846263Y-93388938D01*
X158955004Y-93249123D01*
X158961667Y-93206128D01*
X158923642Y-93121439D01*
G36*
X151720796Y-91329155D02*
X151680334Y-91313000D01*
X151598091Y-91373768D01*
X151595667Y-91392670D01*
X151657211Y-91507337D01*
X151680334Y-91524667D01*
X151752817Y-91505473D01*
X151765000Y-91444997D01*
X151720796Y-91329155D01*
X151720796Y-91329155D01*
G37*
X151720796Y-91329155D02*
X151680334Y-91313000D01*
X151598091Y-91373768D01*
X151595667Y-91392670D01*
X151657211Y-91507337D01*
X151680334Y-91524667D01*
X151752817Y-91505473D01*
X151765000Y-91444997D01*
X151720796Y-91329155D01*
G36*
X153519158Y-89666766D02*
X153479500Y-89643353D01*
X153382560Y-89536779D01*
X153373667Y-89485611D01*
X153325626Y-89377544D01*
X153289000Y-89365667D01*
X153211655Y-89415901D01*
X153270395Y-89566231D01*
X153333152Y-89655819D01*
X153448830Y-89755240D01*
X153520959Y-89750061D01*
X153519158Y-89666766D01*
X153519158Y-89666766D01*
G37*
X153519158Y-89666766D02*
X153479500Y-89643353D01*
X153382560Y-89536779D01*
X153373667Y-89485611D01*
X153325626Y-89377544D01*
X153289000Y-89365667D01*
X153211655Y-89415901D01*
X153270395Y-89566231D01*
X153333152Y-89655819D01*
X153448830Y-89755240D01*
X153520959Y-89750061D01*
X153519158Y-89666766D01*
G36*
X156022941Y-98759786D02*
X155992078Y-98713796D01*
X155860958Y-98618981D01*
X155727195Y-98597949D01*
X155660082Y-98660113D01*
X155659667Y-98668633D01*
X155717518Y-98779538D01*
X155782958Y-98845255D01*
X155927694Y-98908818D01*
X156024781Y-98869583D01*
X156022941Y-98759786D01*
X156022941Y-98759786D01*
G37*
X156022941Y-98759786D02*
X155992078Y-98713796D01*
X155860958Y-98618981D01*
X155727195Y-98597949D01*
X155660082Y-98660113D01*
X155659667Y-98668633D01*
X155717518Y-98779538D01*
X155782958Y-98845255D01*
X155927694Y-98908818D01*
X156024781Y-98869583D01*
X156022941Y-98759786D01*
G36*
X157062797Y-88375776D02*
X157028172Y-88357073D01*
X156834568Y-88324438D01*
X156684813Y-88416686D01*
X156610330Y-88589822D01*
X156642543Y-88799854D01*
X156672360Y-88855215D01*
X156750730Y-88941724D01*
X156776897Y-88939882D01*
X156845041Y-88855356D01*
X156978361Y-88700351D01*
X157001126Y-88674405D01*
X157127997Y-88521261D01*
X157147000Y-88439951D01*
X157062797Y-88375776D01*
X157062797Y-88375776D01*
G37*
X157062797Y-88375776D02*
X157028172Y-88357073D01*
X156834568Y-88324438D01*
X156684813Y-88416686D01*
X156610330Y-88589822D01*
X156642543Y-88799854D01*
X156672360Y-88855215D01*
X156750730Y-88941724D01*
X156776897Y-88939882D01*
X156845041Y-88855356D01*
X156978361Y-88700351D01*
X157001126Y-88674405D01*
X157127997Y-88521261D01*
X157147000Y-88439951D01*
X157062797Y-88375776D01*
G36*
X157790088Y-96935786D02*
X157749257Y-96869993D01*
X157586331Y-96721001D01*
X157388341Y-96658855D01*
X157219338Y-96697409D01*
X157173372Y-96745426D01*
X157108210Y-96893193D01*
X157150446Y-97022812D01*
X157268334Y-97155000D01*
X157445693Y-97296939D01*
X157588725Y-97299266D01*
X157731746Y-97187493D01*
X157821151Y-97063704D01*
X157790088Y-96935786D01*
X157790088Y-96935786D01*
G37*
X157790088Y-96935786D02*
X157749257Y-96869993D01*
X157586331Y-96721001D01*
X157388341Y-96658855D01*
X157219338Y-96697409D01*
X157173372Y-96745426D01*
X157108210Y-96893193D01*
X157150446Y-97022812D01*
X157268334Y-97155000D01*
X157445693Y-97296939D01*
X157588725Y-97299266D01*
X157731746Y-97187493D01*
X157821151Y-97063704D01*
X157790088Y-96935786D01*
G36*
X158695132Y-96139632D02*
X158618911Y-95966961D01*
X158517167Y-95900824D01*
X158389849Y-95912960D01*
X158393333Y-96009334D01*
X158525485Y-96169295D01*
X158546966Y-96189145D01*
X158672943Y-96295280D01*
X158709439Y-96275331D01*
X158695132Y-96139632D01*
X158695132Y-96139632D01*
G37*
X158695132Y-96139632D02*
X158618911Y-95966961D01*
X158517167Y-95900824D01*
X158389849Y-95912960D01*
X158393333Y-96009334D01*
X158525485Y-96169295D01*
X158546966Y-96189145D01*
X158672943Y-96295280D01*
X158709439Y-96275331D01*
X158695132Y-96139632D01*
M02*
