G04 #@! TF.FileFunction,Soldermask,Top*
%FSLAX46Y46*%
G04 Gerber Fmt 4.6, Leading zero omitted, Abs format (unit mm)*
G04 Created by KiCad (PCBNEW 4.0.2-stable) date Saturday, September 10, 2016 'AMt' 11:06:01 AM*
%MOMM*%
G01*
G04 APERTURE LIST*
%ADD10C,0.100000*%
%ADD11C,1.924000*%
%ADD12C,4.210000*%
G04 APERTURE END LIST*
D10*
D11*
X168656000Y-84376000D03*
X168656000Y-86376000D03*
X168656000Y-88376000D03*
X168656000Y-90376000D03*
X167501100Y-128463600D03*
X164961100Y-128463600D03*
X162421100Y-128463600D03*
X154801100Y-128463600D03*
X157341100Y-128463600D03*
X159881100Y-128463600D03*
X149721100Y-128463600D03*
X147181100Y-128463600D03*
X144641100Y-128463600D03*
X139561100Y-128463600D03*
X137021100Y-128463600D03*
X167501100Y-80203600D03*
X164961100Y-80203600D03*
X162421100Y-80203600D03*
X159881100Y-80203600D03*
X157341100Y-80203600D03*
X154801100Y-80203600D03*
X152261100Y-80203600D03*
X149721100Y-80203600D03*
X145657100Y-80203600D03*
X143117100Y-80203600D03*
X140577100Y-80203600D03*
X138037100Y-80203600D03*
X135497100Y-80203600D03*
X132957100Y-80203600D03*
X130417100Y-80203600D03*
X127877100Y-80203600D03*
X142101100Y-128463600D03*
X125337100Y-80203600D03*
X122797100Y-80203600D03*
X134481100Y-128463600D03*
X131941100Y-128463600D03*
D12*
X123982000Y-123406000D03*
D11*
X160782000Y-82931000D03*
X158242000Y-82931000D03*
X155702000Y-82931000D03*
X153162000Y-82931000D03*
X150622000Y-82931000D03*
X148082000Y-82931000D03*
X145542000Y-82931000D03*
X143002000Y-82931000D03*
X140462000Y-82931000D03*
X137922000Y-82931000D03*
X135382000Y-82931000D03*
X132842000Y-82931000D03*
X130302000Y-82931000D03*
X127762000Y-82931000D03*
X125222000Y-82931000D03*
X122682000Y-82931000D03*
D12*
X159482000Y-123406000D03*
M02*
