G04 #@! TF.FileFunction,Legend,Top*
%FSLAX46Y46*%
G04 Gerber Fmt 4.6, Leading zero omitted, Abs format (unit mm)*
G04 Created by KiCad (PCBNEW 4.0.2-stable) date Saturday, September 10, 2016 'AMt' 11:06:01 AM*
%MOMM*%
G01*
G04 APERTURE LIST*
%ADD10C,0.100000*%
%ADD11C,0.250000*%
%ADD12C,0.010000*%
%ADD13C,0.150000*%
%ADD14C,0.125000*%
G04 APERTURE END LIST*
D10*
D11*
X169060286Y-109997857D02*
X168393619Y-110235952D01*
X169060286Y-110474048D01*
X169393619Y-111045476D02*
X169393619Y-111140715D01*
X169346000Y-111235953D01*
X169298381Y-111283572D01*
X169203143Y-111331191D01*
X169012667Y-111378810D01*
X168774571Y-111378810D01*
X168584095Y-111331191D01*
X168488857Y-111283572D01*
X168441238Y-111235953D01*
X168393619Y-111140715D01*
X168393619Y-111045476D01*
X168441238Y-110950238D01*
X168488857Y-110902619D01*
X168584095Y-110855000D01*
X168774571Y-110807381D01*
X169012667Y-110807381D01*
X169203143Y-110855000D01*
X169298381Y-110902619D01*
X169346000Y-110950238D01*
X169393619Y-111045476D01*
X168488857Y-111807381D02*
X168441238Y-111855000D01*
X168393619Y-111807381D01*
X168441238Y-111759762D01*
X168488857Y-111807381D01*
X168393619Y-111807381D01*
X169393619Y-112188333D02*
X169393619Y-112807381D01*
X169012667Y-112474047D01*
X169012667Y-112616905D01*
X168965048Y-112712143D01*
X168917429Y-112759762D01*
X168822190Y-112807381D01*
X168584095Y-112807381D01*
X168488857Y-112759762D01*
X168441238Y-112712143D01*
X168393619Y-112616905D01*
X168393619Y-112331190D01*
X168441238Y-112235952D01*
X168488857Y-112188333D01*
X167267429Y-110426429D02*
X167267429Y-110093095D01*
X166743619Y-110093095D02*
X167743619Y-110093095D01*
X167743619Y-110569286D01*
X166743619Y-111093095D02*
X166791238Y-110997857D01*
X166886476Y-110950238D01*
X167743619Y-110950238D01*
X166743619Y-111616905D02*
X166791238Y-111521667D01*
X166838857Y-111474048D01*
X166934095Y-111426429D01*
X167219810Y-111426429D01*
X167315048Y-111474048D01*
X167362667Y-111521667D01*
X167410286Y-111616905D01*
X167410286Y-111759763D01*
X167362667Y-111855001D01*
X167315048Y-111902620D01*
X167219810Y-111950239D01*
X166934095Y-111950239D01*
X166838857Y-111902620D01*
X166791238Y-111855001D01*
X166743619Y-111759763D01*
X166743619Y-111616905D01*
X166743619Y-112521667D02*
X166791238Y-112426429D01*
X166838857Y-112378810D01*
X166934095Y-112331191D01*
X167219810Y-112331191D01*
X167315048Y-112378810D01*
X167362667Y-112426429D01*
X167410286Y-112521667D01*
X167410286Y-112664525D01*
X167362667Y-112759763D01*
X167315048Y-112807382D01*
X167219810Y-112855001D01*
X166934095Y-112855001D01*
X166838857Y-112807382D01*
X166791238Y-112759763D01*
X166743619Y-112664525D01*
X166743619Y-112521667D01*
X166743619Y-113712144D02*
X167743619Y-113712144D01*
X166791238Y-113712144D02*
X166743619Y-113616906D01*
X166743619Y-113426429D01*
X166791238Y-113331191D01*
X166838857Y-113283572D01*
X166934095Y-113235953D01*
X167219810Y-113235953D01*
X167315048Y-113283572D01*
X167362667Y-113331191D01*
X167410286Y-113426429D01*
X167410286Y-113616906D01*
X167362667Y-113712144D01*
X167267429Y-114950239D02*
X167267429Y-115283573D01*
X166743619Y-115426430D02*
X166743619Y-114950239D01*
X167743619Y-114950239D01*
X167743619Y-115426430D01*
X166743619Y-116283573D02*
X167267429Y-116283573D01*
X167362667Y-116235954D01*
X167410286Y-116140716D01*
X167410286Y-115950239D01*
X167362667Y-115855001D01*
X166791238Y-116283573D02*
X166743619Y-116188335D01*
X166743619Y-115950239D01*
X166791238Y-115855001D01*
X166886476Y-115807382D01*
X166981714Y-115807382D01*
X167076952Y-115855001D01*
X167124571Y-115950239D01*
X167124571Y-116188335D01*
X167172190Y-116283573D01*
X166743619Y-116759763D02*
X167410286Y-116759763D01*
X167219810Y-116759763D02*
X167315048Y-116807382D01*
X167362667Y-116855001D01*
X167410286Y-116950239D01*
X167410286Y-117045478D01*
X166743619Y-117521668D02*
X166791238Y-117426430D01*
X166886476Y-117378811D01*
X167743619Y-117378811D01*
X167410286Y-117807383D02*
X166743619Y-118045478D01*
X167410286Y-118283574D02*
X166743619Y-118045478D01*
X166505524Y-117950240D01*
X166457905Y-117902621D01*
X166410286Y-117807383D01*
X167743619Y-119331193D02*
X166743619Y-119569288D01*
X167457905Y-119759765D01*
X166743619Y-119950241D01*
X167743619Y-120188336D01*
X166743619Y-120997860D02*
X167267429Y-120997860D01*
X167362667Y-120950241D01*
X167410286Y-120855003D01*
X167410286Y-120664526D01*
X167362667Y-120569288D01*
X166791238Y-120997860D02*
X166743619Y-120902622D01*
X166743619Y-120664526D01*
X166791238Y-120569288D01*
X166886476Y-120521669D01*
X166981714Y-120521669D01*
X167076952Y-120569288D01*
X167124571Y-120664526D01*
X167124571Y-120902622D01*
X167172190Y-120997860D01*
X166743619Y-121474050D02*
X167410286Y-121474050D01*
X167219810Y-121474050D02*
X167315048Y-121521669D01*
X167362667Y-121569288D01*
X167410286Y-121664526D01*
X167410286Y-121759765D01*
X167410286Y-122093098D02*
X166743619Y-122093098D01*
X167315048Y-122093098D02*
X167362667Y-122140717D01*
X167410286Y-122235955D01*
X167410286Y-122378813D01*
X167362667Y-122474051D01*
X167267429Y-122521670D01*
X166743619Y-122521670D01*
X166743619Y-122997860D02*
X167410286Y-122997860D01*
X167743619Y-122997860D02*
X167696000Y-122950241D01*
X167648381Y-122997860D01*
X167696000Y-123045479D01*
X167743619Y-122997860D01*
X167648381Y-122997860D01*
X167410286Y-123474050D02*
X166743619Y-123474050D01*
X167315048Y-123474050D02*
X167362667Y-123521669D01*
X167410286Y-123616907D01*
X167410286Y-123759765D01*
X167362667Y-123855003D01*
X167267429Y-123902622D01*
X166743619Y-123902622D01*
X167410286Y-124807384D02*
X166600762Y-124807384D01*
X166505524Y-124759765D01*
X166457905Y-124712146D01*
X166410286Y-124616907D01*
X166410286Y-124474050D01*
X166457905Y-124378812D01*
X166791238Y-124807384D02*
X166743619Y-124712146D01*
X166743619Y-124521669D01*
X166791238Y-124426431D01*
X166838857Y-124378812D01*
X166934095Y-124331193D01*
X167219810Y-124331193D01*
X167315048Y-124378812D01*
X167362667Y-124426431D01*
X167410286Y-124521669D01*
X167410286Y-124712146D01*
X167362667Y-124807384D01*
D12*
G36*
X166519046Y-105336699D02*
X166435126Y-105382814D01*
X166252988Y-105404419D01*
X165938044Y-105409990D01*
X165917456Y-105410000D01*
X165501133Y-105386699D01*
X165226847Y-105308214D01*
X165072671Y-105161670D01*
X165016682Y-104934194D01*
X165015334Y-104880312D01*
X165065774Y-104688601D01*
X165231668Y-104497454D01*
X165534880Y-104282617D01*
X165577662Y-104256432D01*
X165652865Y-104197139D01*
X165601420Y-104172090D01*
X165402527Y-104171575D01*
X165396334Y-104171766D01*
X165172934Y-104164468D01*
X165067076Y-104108008D01*
X165031294Y-103997040D01*
X165069517Y-103800578D01*
X165179461Y-103637207D01*
X165405352Y-103499008D01*
X165572723Y-103477931D01*
X165572723Y-103723351D01*
X165462909Y-103738918D01*
X165461598Y-103767820D01*
X165574915Y-103788031D01*
X165623875Y-103774504D01*
X165655946Y-103736909D01*
X165572723Y-103723351D01*
X165572723Y-103477931D01*
X165659398Y-103467015D01*
X165879655Y-103541638D01*
X165966316Y-103632000D01*
X166145870Y-103772158D01*
X166311589Y-103801334D01*
X166481799Y-103823830D01*
X166530022Y-103917825D01*
X166524056Y-103991834D01*
X166459517Y-104136221D01*
X166292056Y-104178998D01*
X166264213Y-104178999D01*
X166061860Y-104225016D01*
X165987268Y-104314791D01*
X165888129Y-104442662D01*
X165698248Y-104584048D01*
X165646291Y-104613765D01*
X165455235Y-104749666D01*
X165373136Y-104878813D01*
X165373626Y-104901307D01*
X165452877Y-104991157D01*
X165606003Y-105048762D01*
X165763760Y-105061223D01*
X165856908Y-105015641D01*
X165862000Y-104992291D01*
X165931806Y-104925154D01*
X166095510Y-104904402D01*
X166284544Y-104928688D01*
X166430339Y-104996663D01*
X166437734Y-105003600D01*
X166527204Y-105173477D01*
X166539334Y-105257600D01*
X166519046Y-105336699D01*
X166519046Y-105336699D01*
G37*
X166519046Y-105336699D02*
X166435126Y-105382814D01*
X166252988Y-105404419D01*
X165938044Y-105409990D01*
X165917456Y-105410000D01*
X165501133Y-105386699D01*
X165226847Y-105308214D01*
X165072671Y-105161670D01*
X165016682Y-104934194D01*
X165015334Y-104880312D01*
X165065774Y-104688601D01*
X165231668Y-104497454D01*
X165534880Y-104282617D01*
X165577662Y-104256432D01*
X165652865Y-104197139D01*
X165601420Y-104172090D01*
X165402527Y-104171575D01*
X165396334Y-104171766D01*
X165172934Y-104164468D01*
X165067076Y-104108008D01*
X165031294Y-103997040D01*
X165069517Y-103800578D01*
X165179461Y-103637207D01*
X165405352Y-103499008D01*
X165572723Y-103477931D01*
X165572723Y-103723351D01*
X165462909Y-103738918D01*
X165461598Y-103767820D01*
X165574915Y-103788031D01*
X165623875Y-103774504D01*
X165655946Y-103736909D01*
X165572723Y-103723351D01*
X165572723Y-103477931D01*
X165659398Y-103467015D01*
X165879655Y-103541638D01*
X165966316Y-103632000D01*
X166145870Y-103772158D01*
X166311589Y-103801334D01*
X166481799Y-103823830D01*
X166530022Y-103917825D01*
X166524056Y-103991834D01*
X166459517Y-104136221D01*
X166292056Y-104178998D01*
X166264213Y-104178999D01*
X166061860Y-104225016D01*
X165987268Y-104314791D01*
X165888129Y-104442662D01*
X165698248Y-104584048D01*
X165646291Y-104613765D01*
X165455235Y-104749666D01*
X165373136Y-104878813D01*
X165373626Y-104901307D01*
X165452877Y-104991157D01*
X165606003Y-105048762D01*
X165763760Y-105061223D01*
X165856908Y-105015641D01*
X165862000Y-104992291D01*
X165931806Y-104925154D01*
X166095510Y-104904402D01*
X166284544Y-104928688D01*
X166430339Y-104996663D01*
X166437734Y-105003600D01*
X166527204Y-105173477D01*
X166539334Y-105257600D01*
X166519046Y-105336699D01*
G36*
X169546842Y-94312079D02*
X169460334Y-94403334D01*
X169352743Y-94547481D01*
X169333334Y-94625367D01*
X169282682Y-94728892D01*
X169172289Y-94726967D01*
X169064500Y-94631484D01*
X169035711Y-94568604D01*
X169034031Y-94374005D01*
X169081811Y-94273349D01*
X169141964Y-94100144D01*
X169128431Y-94009428D01*
X169077914Y-93938413D01*
X168991139Y-93964575D01*
X168832741Y-94101367D01*
X168797428Y-94135350D01*
X168582071Y-94311462D01*
X168365860Y-94388644D01*
X168122803Y-94403334D01*
X167862035Y-94419752D01*
X167741186Y-94474474D01*
X167724667Y-94525533D01*
X167651898Y-94680210D01*
X167479952Y-94805483D01*
X167278375Y-94857561D01*
X167210186Y-94849504D01*
X167023902Y-94741686D01*
X166830294Y-94545703D01*
X166680142Y-94322776D01*
X166624000Y-94142837D01*
X166636463Y-94070668D01*
X166693545Y-94023616D01*
X166824789Y-93996373D01*
X167059738Y-93983629D01*
X167081778Y-93983417D01*
X167081778Y-94374946D01*
X167070682Y-94431162D01*
X167173027Y-94532321D01*
X167244850Y-94557708D01*
X167367098Y-94546348D01*
X167371393Y-94475264D01*
X167267221Y-94396232D01*
X167211832Y-94377537D01*
X167081778Y-94374946D01*
X167081778Y-93983417D01*
X167427932Y-93980076D01*
X167530136Y-93980000D01*
X168436272Y-93980000D01*
X168722306Y-93704834D01*
X169008340Y-93429667D01*
X169296577Y-93768334D01*
X169491598Y-94016844D01*
X169571922Y-94186077D01*
X169546842Y-94312079D01*
X169546842Y-94312079D01*
G37*
X169546842Y-94312079D02*
X169460334Y-94403334D01*
X169352743Y-94547481D01*
X169333334Y-94625367D01*
X169282682Y-94728892D01*
X169172289Y-94726967D01*
X169064500Y-94631484D01*
X169035711Y-94568604D01*
X169034031Y-94374005D01*
X169081811Y-94273349D01*
X169141964Y-94100144D01*
X169128431Y-94009428D01*
X169077914Y-93938413D01*
X168991139Y-93964575D01*
X168832741Y-94101367D01*
X168797428Y-94135350D01*
X168582071Y-94311462D01*
X168365860Y-94388644D01*
X168122803Y-94403334D01*
X167862035Y-94419752D01*
X167741186Y-94474474D01*
X167724667Y-94525533D01*
X167651898Y-94680210D01*
X167479952Y-94805483D01*
X167278375Y-94857561D01*
X167210186Y-94849504D01*
X167023902Y-94741686D01*
X166830294Y-94545703D01*
X166680142Y-94322776D01*
X166624000Y-94142837D01*
X166636463Y-94070668D01*
X166693545Y-94023616D01*
X166824789Y-93996373D01*
X167059738Y-93983629D01*
X167081778Y-93983417D01*
X167081778Y-94374946D01*
X167070682Y-94431162D01*
X167173027Y-94532321D01*
X167244850Y-94557708D01*
X167367098Y-94546348D01*
X167371393Y-94475264D01*
X167267221Y-94396232D01*
X167211832Y-94377537D01*
X167081778Y-94374946D01*
X167081778Y-93983417D01*
X167427932Y-93980076D01*
X167530136Y-93980000D01*
X168436272Y-93980000D01*
X168722306Y-93704834D01*
X169008340Y-93429667D01*
X169296577Y-93768334D01*
X169491598Y-94016844D01*
X169571922Y-94186077D01*
X169546842Y-94312079D01*
G36*
X169565276Y-96864396D02*
X169472539Y-97150589D01*
X169280520Y-97331273D01*
X169189758Y-97372969D01*
X168961238Y-97407052D01*
X168771572Y-97324631D01*
X168633235Y-97182200D01*
X168574994Y-97021241D01*
X168605411Y-96896217D01*
X168698334Y-96858667D01*
X168810956Y-96907497D01*
X168825334Y-96949222D01*
X168895473Y-97009319D01*
X169015834Y-97012722D01*
X169141310Y-96965736D01*
X169205415Y-96839709D01*
X169232321Y-96626806D01*
X169227013Y-96358319D01*
X169144230Y-96167619D01*
X169045670Y-96055306D01*
X168775295Y-95878424D01*
X168500780Y-95854521D01*
X168259145Y-95975816D01*
X168087404Y-96234525D01*
X168078588Y-96258635D01*
X168034266Y-96447016D01*
X168063334Y-96506424D01*
X168063334Y-96985667D01*
X167990851Y-97004861D01*
X167978667Y-97065337D01*
X168022872Y-97181179D01*
X168063334Y-97197334D01*
X168145577Y-97136566D01*
X168148000Y-97117664D01*
X168086456Y-97002996D01*
X168063334Y-96985667D01*
X168063334Y-96506424D01*
X168092246Y-96565515D01*
X168196683Y-96643374D01*
X168363053Y-96833971D01*
X168416458Y-97074013D01*
X168358054Y-97304697D01*
X168189000Y-97467217D01*
X168180388Y-97471271D01*
X168008453Y-97525844D01*
X167885210Y-97470751D01*
X167795684Y-97370835D01*
X167692714Y-97193984D01*
X167675973Y-97056380D01*
X167656682Y-96981760D01*
X167507701Y-96947798D01*
X167359849Y-96943334D01*
X166987509Y-96896548D01*
X166749183Y-96751532D01*
X166636234Y-96501297D01*
X166624000Y-96347818D01*
X166653005Y-96093620D01*
X166760307Y-95933057D01*
X166830772Y-95880422D01*
X167077310Y-95778151D01*
X167292079Y-95790529D01*
X167430538Y-95909683D01*
X167455389Y-95990834D01*
X167447857Y-96126646D01*
X167341160Y-96176642D01*
X167231614Y-96181334D01*
X167031930Y-96220089D01*
X166933090Y-96305622D01*
X166915200Y-96413265D01*
X166986417Y-96477585D01*
X167178437Y-96516231D01*
X167340317Y-96532363D01*
X167557974Y-96540635D01*
X167665366Y-96489404D01*
X167720293Y-96339840D01*
X167735870Y-96266630D01*
X167881591Y-95918081D01*
X168132242Y-95668797D01*
X168449690Y-95531859D01*
X168795803Y-95520344D01*
X169132448Y-95647330D01*
X169260353Y-95743777D01*
X169426739Y-95920461D01*
X169517270Y-96114192D01*
X169562573Y-96395522D01*
X169567499Y-96451301D01*
X169565276Y-96864396D01*
X169565276Y-96864396D01*
G37*
X169565276Y-96864396D02*
X169472539Y-97150589D01*
X169280520Y-97331273D01*
X169189758Y-97372969D01*
X168961238Y-97407052D01*
X168771572Y-97324631D01*
X168633235Y-97182200D01*
X168574994Y-97021241D01*
X168605411Y-96896217D01*
X168698334Y-96858667D01*
X168810956Y-96907497D01*
X168825334Y-96949222D01*
X168895473Y-97009319D01*
X169015834Y-97012722D01*
X169141310Y-96965736D01*
X169205415Y-96839709D01*
X169232321Y-96626806D01*
X169227013Y-96358319D01*
X169144230Y-96167619D01*
X169045670Y-96055306D01*
X168775295Y-95878424D01*
X168500780Y-95854521D01*
X168259145Y-95975816D01*
X168087404Y-96234525D01*
X168078588Y-96258635D01*
X168034266Y-96447016D01*
X168063334Y-96506424D01*
X168063334Y-96985667D01*
X167990851Y-97004861D01*
X167978667Y-97065337D01*
X168022872Y-97181179D01*
X168063334Y-97197334D01*
X168145577Y-97136566D01*
X168148000Y-97117664D01*
X168086456Y-97002996D01*
X168063334Y-96985667D01*
X168063334Y-96506424D01*
X168092246Y-96565515D01*
X168196683Y-96643374D01*
X168363053Y-96833971D01*
X168416458Y-97074013D01*
X168358054Y-97304697D01*
X168189000Y-97467217D01*
X168180388Y-97471271D01*
X168008453Y-97525844D01*
X167885210Y-97470751D01*
X167795684Y-97370835D01*
X167692714Y-97193984D01*
X167675973Y-97056380D01*
X167656682Y-96981760D01*
X167507701Y-96947798D01*
X167359849Y-96943334D01*
X166987509Y-96896548D01*
X166749183Y-96751532D01*
X166636234Y-96501297D01*
X166624000Y-96347818D01*
X166653005Y-96093620D01*
X166760307Y-95933057D01*
X166830772Y-95880422D01*
X167077310Y-95778151D01*
X167292079Y-95790529D01*
X167430538Y-95909683D01*
X167455389Y-95990834D01*
X167447857Y-96126646D01*
X167341160Y-96176642D01*
X167231614Y-96181334D01*
X167031930Y-96220089D01*
X166933090Y-96305622D01*
X166915200Y-96413265D01*
X166986417Y-96477585D01*
X167178437Y-96516231D01*
X167340317Y-96532363D01*
X167557974Y-96540635D01*
X167665366Y-96489404D01*
X167720293Y-96339840D01*
X167735870Y-96266630D01*
X167881591Y-95918081D01*
X168132242Y-95668797D01*
X168449690Y-95531859D01*
X168795803Y-95520344D01*
X169132448Y-95647330D01*
X169260353Y-95743777D01*
X169426739Y-95920461D01*
X169517270Y-96114192D01*
X169562573Y-96395522D01*
X169567499Y-96451301D01*
X169565276Y-96864396D01*
G36*
X169254505Y-99176459D02*
X169430941Y-99461938D01*
X169607377Y-99747418D01*
X169413264Y-99954042D01*
X169332935Y-100032795D01*
X169244866Y-100088476D01*
X169120209Y-100125081D01*
X168930119Y-100146606D01*
X168645751Y-100157046D01*
X168238259Y-100160397D01*
X167921575Y-100160667D01*
X167427409Y-100159599D01*
X167077683Y-100154230D01*
X166847507Y-100141312D01*
X166711991Y-100117597D01*
X166646246Y-100079837D01*
X166625382Y-100024783D01*
X166624000Y-99991334D01*
X166632536Y-99925372D01*
X166675174Y-99879200D01*
X166777468Y-99849300D01*
X166964966Y-99832155D01*
X167263219Y-99824249D01*
X167697779Y-99822065D01*
X167854324Y-99822000D01*
X168381936Y-99818014D01*
X168758053Y-99801529D01*
X169000416Y-99765755D01*
X169126769Y-99703900D01*
X169154852Y-99609174D01*
X169102408Y-99474787D01*
X169037589Y-99369115D01*
X168948161Y-99204522D01*
X168960894Y-99075125D01*
X169040465Y-98939595D01*
X169118288Y-98762379D01*
X169133471Y-98601693D01*
X169093420Y-98502957D01*
X169005542Y-98511593D01*
X168974958Y-98537842D01*
X168840875Y-98589856D01*
X168587861Y-98625193D01*
X168300400Y-98636667D01*
X167973107Y-98646521D01*
X167789655Y-98679317D01*
X167725521Y-98739905D01*
X167724667Y-98750545D01*
X167666646Y-98889129D01*
X167557495Y-99015711D01*
X167417066Y-99112402D01*
X167269272Y-99109769D01*
X167130169Y-99059241D01*
X166918625Y-98919981D01*
X166749325Y-98719254D01*
X166649452Y-98504776D01*
X166646187Y-98324266D01*
X166680445Y-98269778D01*
X166782430Y-98247975D01*
X167018772Y-98230087D01*
X167211670Y-98223104D01*
X167211670Y-98636667D01*
X167094600Y-98669260D01*
X167089667Y-98721334D01*
X167212169Y-98799238D01*
X167263997Y-98806000D01*
X167373424Y-98758661D01*
X167386000Y-98721334D01*
X167314875Y-98653208D01*
X167211670Y-98636667D01*
X167211670Y-98223104D01*
X167354505Y-98217933D01*
X167754666Y-98213336D01*
X167764178Y-98213334D01*
X168274348Y-98204725D01*
X168639007Y-98179451D01*
X168848661Y-98138338D01*
X168889479Y-98115322D01*
X169014255Y-98072158D01*
X169169327Y-98173249D01*
X169364330Y-98425948D01*
X169428432Y-98526545D01*
X169610243Y-98820721D01*
X169254505Y-99176459D01*
X169254505Y-99176459D01*
G37*
X169254505Y-99176459D02*
X169430941Y-99461938D01*
X169607377Y-99747418D01*
X169413264Y-99954042D01*
X169332935Y-100032795D01*
X169244866Y-100088476D01*
X169120209Y-100125081D01*
X168930119Y-100146606D01*
X168645751Y-100157046D01*
X168238259Y-100160397D01*
X167921575Y-100160667D01*
X167427409Y-100159599D01*
X167077683Y-100154230D01*
X166847507Y-100141312D01*
X166711991Y-100117597D01*
X166646246Y-100079837D01*
X166625382Y-100024783D01*
X166624000Y-99991334D01*
X166632536Y-99925372D01*
X166675174Y-99879200D01*
X166777468Y-99849300D01*
X166964966Y-99832155D01*
X167263219Y-99824249D01*
X167697779Y-99822065D01*
X167854324Y-99822000D01*
X168381936Y-99818014D01*
X168758053Y-99801529D01*
X169000416Y-99765755D01*
X169126769Y-99703900D01*
X169154852Y-99609174D01*
X169102408Y-99474787D01*
X169037589Y-99369115D01*
X168948161Y-99204522D01*
X168960894Y-99075125D01*
X169040465Y-98939595D01*
X169118288Y-98762379D01*
X169133471Y-98601693D01*
X169093420Y-98502957D01*
X169005542Y-98511593D01*
X168974958Y-98537842D01*
X168840875Y-98589856D01*
X168587861Y-98625193D01*
X168300400Y-98636667D01*
X167973107Y-98646521D01*
X167789655Y-98679317D01*
X167725521Y-98739905D01*
X167724667Y-98750545D01*
X167666646Y-98889129D01*
X167557495Y-99015711D01*
X167417066Y-99112402D01*
X167269272Y-99109769D01*
X167130169Y-99059241D01*
X166918625Y-98919981D01*
X166749325Y-98719254D01*
X166649452Y-98504776D01*
X166646187Y-98324266D01*
X166680445Y-98269778D01*
X166782430Y-98247975D01*
X167018772Y-98230087D01*
X167211670Y-98223104D01*
X167211670Y-98636667D01*
X167094600Y-98669260D01*
X167089667Y-98721334D01*
X167212169Y-98799238D01*
X167263997Y-98806000D01*
X167373424Y-98758661D01*
X167386000Y-98721334D01*
X167314875Y-98653208D01*
X167211670Y-98636667D01*
X167211670Y-98223104D01*
X167354505Y-98217933D01*
X167754666Y-98213336D01*
X167764178Y-98213334D01*
X168274348Y-98204725D01*
X168639007Y-98179451D01*
X168848661Y-98138338D01*
X168889479Y-98115322D01*
X169014255Y-98072158D01*
X169169327Y-98173249D01*
X169364330Y-98425948D01*
X169428432Y-98526545D01*
X169610243Y-98820721D01*
X169254505Y-99176459D01*
G36*
X169490064Y-101312712D02*
X169469762Y-101335582D01*
X169362512Y-101492145D01*
X169333334Y-101585500D01*
X169278306Y-101674029D01*
X169162198Y-101668431D01*
X169058468Y-101577400D01*
X169046363Y-101551533D01*
X169042540Y-101374098D01*
X169086157Y-101248584D01*
X169138311Y-101056039D01*
X169125478Y-100944401D01*
X169072796Y-100881139D01*
X168976691Y-100919020D01*
X168804184Y-101071478D01*
X168797428Y-101078017D01*
X168599014Y-101241234D01*
X168425501Y-101336191D01*
X168376803Y-101346000D01*
X168300086Y-101370475D01*
X168256105Y-101466888D01*
X168236475Y-101669719D01*
X168232667Y-101938667D01*
X168245846Y-102289408D01*
X168293820Y-102481477D01*
X168389250Y-102524078D01*
X168544795Y-102426420D01*
X168698334Y-102277334D01*
X168873472Y-102117812D01*
X169013728Y-102029535D01*
X169041590Y-102023334D01*
X169142964Y-102088580D01*
X169288848Y-102254604D01*
X169370653Y-102369609D01*
X169503325Y-102583450D01*
X169546270Y-102713176D01*
X169509705Y-102811364D01*
X169466570Y-102863109D01*
X169359607Y-103038685D01*
X169333334Y-103151834D01*
X169290674Y-103277350D01*
X169180585Y-103260981D01*
X169076939Y-103163447D01*
X169012772Y-103032900D01*
X169056832Y-102871782D01*
X169081794Y-102823070D01*
X169149848Y-102647524D01*
X169110300Y-102531577D01*
X169088667Y-102508456D01*
X168992830Y-102464495D01*
X168873998Y-102537702D01*
X168781172Y-102637167D01*
X168664321Y-102756514D01*
X168539229Y-102826241D01*
X168357991Y-102859527D01*
X168072707Y-102869549D01*
X167934829Y-102870000D01*
X167497431Y-102853272D01*
X167185345Y-102794271D01*
X166957061Y-102679777D01*
X166774050Y-102500257D01*
X166666375Y-102259930D01*
X166627914Y-101939386D01*
X166659449Y-101613295D01*
X166761761Y-101356330D01*
X166762066Y-101355895D01*
X167024717Y-101123697D01*
X167417687Y-100976919D01*
X167894000Y-100925722D01*
X167894000Y-101346000D01*
X167568456Y-101346000D01*
X167253516Y-101411270D01*
X167034018Y-101581586D01*
X166925438Y-101818704D01*
X166943251Y-102084381D01*
X167102935Y-102340376D01*
X167148737Y-102383167D01*
X167353961Y-102487781D01*
X167606878Y-102531333D01*
X167607047Y-102531334D01*
X167894000Y-102531334D01*
X167894000Y-101346000D01*
X167894000Y-100925722D01*
X167921085Y-100922810D01*
X167950750Y-100922667D01*
X168247411Y-100911058D01*
X168445804Y-100859756D01*
X168616330Y-100744045D01*
X168712000Y-100655421D01*
X168896460Y-100501206D01*
X169042362Y-100462357D01*
X169182918Y-100549963D01*
X169351341Y-100775110D01*
X169426406Y-100893934D01*
X169535769Y-101088201D01*
X169554914Y-101206666D01*
X169490064Y-101312712D01*
X169490064Y-101312712D01*
G37*
X169490064Y-101312712D02*
X169469762Y-101335582D01*
X169362512Y-101492145D01*
X169333334Y-101585500D01*
X169278306Y-101674029D01*
X169162198Y-101668431D01*
X169058468Y-101577400D01*
X169046363Y-101551533D01*
X169042540Y-101374098D01*
X169086157Y-101248584D01*
X169138311Y-101056039D01*
X169125478Y-100944401D01*
X169072796Y-100881139D01*
X168976691Y-100919020D01*
X168804184Y-101071478D01*
X168797428Y-101078017D01*
X168599014Y-101241234D01*
X168425501Y-101336191D01*
X168376803Y-101346000D01*
X168300086Y-101370475D01*
X168256105Y-101466888D01*
X168236475Y-101669719D01*
X168232667Y-101938667D01*
X168245846Y-102289408D01*
X168293820Y-102481477D01*
X168389250Y-102524078D01*
X168544795Y-102426420D01*
X168698334Y-102277334D01*
X168873472Y-102117812D01*
X169013728Y-102029535D01*
X169041590Y-102023334D01*
X169142964Y-102088580D01*
X169288848Y-102254604D01*
X169370653Y-102369609D01*
X169503325Y-102583450D01*
X169546270Y-102713176D01*
X169509705Y-102811364D01*
X169466570Y-102863109D01*
X169359607Y-103038685D01*
X169333334Y-103151834D01*
X169290674Y-103277350D01*
X169180585Y-103260981D01*
X169076939Y-103163447D01*
X169012772Y-103032900D01*
X169056832Y-102871782D01*
X169081794Y-102823070D01*
X169149848Y-102647524D01*
X169110300Y-102531577D01*
X169088667Y-102508456D01*
X168992830Y-102464495D01*
X168873998Y-102537702D01*
X168781172Y-102637167D01*
X168664321Y-102756514D01*
X168539229Y-102826241D01*
X168357991Y-102859527D01*
X168072707Y-102869549D01*
X167934829Y-102870000D01*
X167497431Y-102853272D01*
X167185345Y-102794271D01*
X166957061Y-102679777D01*
X166774050Y-102500257D01*
X166666375Y-102259930D01*
X166627914Y-101939386D01*
X166659449Y-101613295D01*
X166761761Y-101356330D01*
X166762066Y-101355895D01*
X167024717Y-101123697D01*
X167417687Y-100976919D01*
X167894000Y-100925722D01*
X167894000Y-101346000D01*
X167568456Y-101346000D01*
X167253516Y-101411270D01*
X167034018Y-101581586D01*
X166925438Y-101818704D01*
X166943251Y-102084381D01*
X167102935Y-102340376D01*
X167148737Y-102383167D01*
X167353961Y-102487781D01*
X167606878Y-102531333D01*
X167607047Y-102531334D01*
X167894000Y-102531334D01*
X167894000Y-101346000D01*
X167894000Y-100925722D01*
X167921085Y-100922810D01*
X167950750Y-100922667D01*
X168247411Y-100911058D01*
X168445804Y-100859756D01*
X168616330Y-100744045D01*
X168712000Y-100655421D01*
X168896460Y-100501206D01*
X169042362Y-100462357D01*
X169182918Y-100549963D01*
X169351341Y-100775110D01*
X169426406Y-100893934D01*
X169535769Y-101088201D01*
X169554914Y-101206666D01*
X169490064Y-101312712D01*
G36*
X169362040Y-106439298D02*
X169110649Y-107061000D01*
X167867325Y-107084430D01*
X167385476Y-107092488D01*
X167047463Y-107093449D01*
X166827837Y-107084281D01*
X166701150Y-107061950D01*
X166641951Y-107023425D01*
X166624793Y-106965671D01*
X166624000Y-106936264D01*
X166632643Y-106867176D01*
X166676293Y-106819633D01*
X166781531Y-106789623D01*
X166974940Y-106773133D01*
X167283103Y-106766153D01*
X167732602Y-106764669D01*
X167760917Y-106764667D01*
X168897834Y-106764667D01*
X169260200Y-105796157D01*
X168873358Y-104970233D01*
X169052806Y-104658434D01*
X169161921Y-104440683D01*
X169180321Y-104288984D01*
X169125273Y-104146739D01*
X169064906Y-104052913D01*
X168981791Y-103995305D01*
X168839146Y-103966357D01*
X168600190Y-103958511D01*
X168236104Y-103964034D01*
X167752534Y-103984744D01*
X167410176Y-104027678D01*
X167181476Y-104101196D01*
X167038881Y-104213655D01*
X166963244Y-104350149D01*
X166933733Y-104599476D01*
X166994296Y-104864019D01*
X167123599Y-105062972D01*
X167158464Y-105089481D01*
X167335884Y-105150074D01*
X167515667Y-105142293D01*
X167628822Y-105074117D01*
X167640000Y-105033801D01*
X167712446Y-104880265D01*
X167882842Y-104753959D01*
X168080781Y-104700243D01*
X168082907Y-104700484D01*
X168082907Y-104997679D01*
X167989255Y-105022684D01*
X167978667Y-105055251D01*
X168049364Y-105138788D01*
X168152835Y-105181797D01*
X168282890Y-105184388D01*
X168293986Y-105128171D01*
X168210381Y-105038830D01*
X168082907Y-104997679D01*
X168082907Y-104700484D01*
X168146211Y-104707667D01*
X168374268Y-104837793D01*
X168570111Y-105063520D01*
X168672997Y-105313533D01*
X168674967Y-105328448D01*
X168678593Y-105435206D01*
X168636836Y-105499371D01*
X168515275Y-105534228D01*
X168279490Y-105553064D01*
X168069393Y-105562181D01*
X167516655Y-105543182D01*
X167102705Y-105433120D01*
X166820738Y-105227399D01*
X166663948Y-104921422D01*
X166624000Y-104585782D01*
X166646745Y-104318115D01*
X166739459Y-104115536D01*
X166911867Y-103919867D01*
X167051603Y-103785852D01*
X167174302Y-103701626D01*
X167323493Y-103655625D01*
X167542706Y-103636289D01*
X167875469Y-103632054D01*
X167995600Y-103632000D01*
X168410906Y-103621245D01*
X168713307Y-103590860D01*
X168877087Y-103543665D01*
X168889479Y-103533988D01*
X169007545Y-103484827D01*
X169139326Y-103573336D01*
X169295125Y-103809579D01*
X169413478Y-104045678D01*
X169609754Y-104464736D01*
X169426788Y-104760782D01*
X169243821Y-105056829D01*
X169428625Y-105437212D01*
X169613430Y-105817595D01*
X169362040Y-106439298D01*
X169362040Y-106439298D01*
G37*
X169362040Y-106439298D02*
X169110649Y-107061000D01*
X167867325Y-107084430D01*
X167385476Y-107092488D01*
X167047463Y-107093449D01*
X166827837Y-107084281D01*
X166701150Y-107061950D01*
X166641951Y-107023425D01*
X166624793Y-106965671D01*
X166624000Y-106936264D01*
X166632643Y-106867176D01*
X166676293Y-106819633D01*
X166781531Y-106789623D01*
X166974940Y-106773133D01*
X167283103Y-106766153D01*
X167732602Y-106764669D01*
X167760917Y-106764667D01*
X168897834Y-106764667D01*
X169260200Y-105796157D01*
X168873358Y-104970233D01*
X169052806Y-104658434D01*
X169161921Y-104440683D01*
X169180321Y-104288984D01*
X169125273Y-104146739D01*
X169064906Y-104052913D01*
X168981791Y-103995305D01*
X168839146Y-103966357D01*
X168600190Y-103958511D01*
X168236104Y-103964034D01*
X167752534Y-103984744D01*
X167410176Y-104027678D01*
X167181476Y-104101196D01*
X167038881Y-104213655D01*
X166963244Y-104350149D01*
X166933733Y-104599476D01*
X166994296Y-104864019D01*
X167123599Y-105062972D01*
X167158464Y-105089481D01*
X167335884Y-105150074D01*
X167515667Y-105142293D01*
X167628822Y-105074117D01*
X167640000Y-105033801D01*
X167712446Y-104880265D01*
X167882842Y-104753959D01*
X168080781Y-104700243D01*
X168082907Y-104700484D01*
X168082907Y-104997679D01*
X167989255Y-105022684D01*
X167978667Y-105055251D01*
X168049364Y-105138788D01*
X168152835Y-105181797D01*
X168282890Y-105184388D01*
X168293986Y-105128171D01*
X168210381Y-105038830D01*
X168082907Y-104997679D01*
X168082907Y-104700484D01*
X168146211Y-104707667D01*
X168374268Y-104837793D01*
X168570111Y-105063520D01*
X168672997Y-105313533D01*
X168674967Y-105328448D01*
X168678593Y-105435206D01*
X168636836Y-105499371D01*
X168515275Y-105534228D01*
X168279490Y-105553064D01*
X168069393Y-105562181D01*
X167516655Y-105543182D01*
X167102705Y-105433120D01*
X166820738Y-105227399D01*
X166663948Y-104921422D01*
X166624000Y-104585782D01*
X166646745Y-104318115D01*
X166739459Y-104115536D01*
X166911867Y-103919867D01*
X167051603Y-103785852D01*
X167174302Y-103701626D01*
X167323493Y-103655625D01*
X167542706Y-103636289D01*
X167875469Y-103632054D01*
X167995600Y-103632000D01*
X168410906Y-103621245D01*
X168713307Y-103590860D01*
X168877087Y-103543665D01*
X168889479Y-103533988D01*
X169007545Y-103484827D01*
X169139326Y-103573336D01*
X169295125Y-103809579D01*
X169413478Y-104045678D01*
X169609754Y-104464736D01*
X169426788Y-104760782D01*
X169243821Y-105056829D01*
X169428625Y-105437212D01*
X169613430Y-105817595D01*
X169362040Y-106439298D01*
D13*
X165656000Y-84376000D02*
X166656000Y-84376000D01*
X166656000Y-84376000D02*
X166656000Y-90376000D01*
X166656000Y-90376000D02*
X165656000Y-90376000D01*
X170656000Y-82376000D02*
X170656000Y-92376000D01*
X170656000Y-92376000D02*
X165656000Y-92376000D01*
X165656000Y-92376000D02*
X165656000Y-82376000D01*
X165656000Y-82376000D02*
X170656000Y-82376000D01*
X143752100Y-81473600D02*
X142482100Y-81473600D01*
X142482100Y-81473600D02*
X141847100Y-80838600D01*
X141847100Y-80838600D02*
X141212100Y-81473600D01*
X141212100Y-81473600D02*
X139942100Y-81473600D01*
X139942100Y-81473600D02*
X139307100Y-80838600D01*
X139307100Y-80838600D02*
X138672100Y-81473600D01*
X138672100Y-81473600D02*
X137402100Y-81473600D01*
X137402100Y-81473600D02*
X136767100Y-80838600D01*
X136767100Y-80838600D02*
X136132100Y-81473600D01*
X136132100Y-81473600D02*
X134862100Y-81473600D01*
X134862100Y-81473600D02*
X134227100Y-80838600D01*
X134227100Y-80838600D02*
X133592100Y-81473600D01*
X133592100Y-81473600D02*
X132449100Y-81473600D01*
X132449100Y-81473600D02*
X132322100Y-81473600D01*
X132322100Y-81473600D02*
X131687100Y-80838600D01*
X131687100Y-80838600D02*
X131052100Y-81473600D01*
X131052100Y-81473600D02*
X129782100Y-81473600D01*
X129782100Y-81473600D02*
X129147100Y-80838600D01*
X129147100Y-80838600D02*
X128512100Y-81473600D01*
X128512100Y-81473600D02*
X127242100Y-81473600D01*
X127242100Y-81473600D02*
X126607100Y-80838600D01*
X126607100Y-80838600D02*
X125972100Y-81473600D01*
X125972100Y-81473600D02*
X124702100Y-81473600D01*
X124702100Y-81473600D02*
X124067100Y-80838600D01*
X124067100Y-80838600D02*
X123432100Y-81473600D01*
X123432100Y-81473600D02*
X122162100Y-81473600D01*
X122162100Y-81473600D02*
X121527100Y-80838600D01*
X121527100Y-79568600D02*
X121527100Y-80838600D01*
X128512100Y-78933600D02*
X127242100Y-78933600D01*
X127242100Y-78933600D02*
X126607100Y-79568600D01*
X126607100Y-79568600D02*
X125972100Y-78933600D01*
X125972100Y-78933600D02*
X124702100Y-78933600D01*
X124702100Y-78933600D02*
X124067100Y-79568600D01*
X124067100Y-79568600D02*
X123432100Y-78933600D01*
X123432100Y-78933600D02*
X122162100Y-78933600D01*
X122162100Y-78933600D02*
X121527100Y-79568600D01*
X143752100Y-78933600D02*
X142482100Y-78933600D01*
X142482100Y-78933600D02*
X141847100Y-79568600D01*
X141847100Y-79568600D02*
X141212100Y-78933600D01*
X141212100Y-78933600D02*
X139942100Y-78933600D01*
X139942100Y-78933600D02*
X139307100Y-79568600D01*
X139307100Y-79568600D02*
X138672100Y-78933600D01*
X138672100Y-78933600D02*
X137402100Y-78933600D01*
X137402100Y-78933600D02*
X136767100Y-79568600D01*
X136767100Y-79568600D02*
X136132100Y-78933600D01*
X136132100Y-78933600D02*
X134989100Y-78933600D01*
X134989100Y-78933600D02*
X134354100Y-79568600D01*
X134354100Y-79568600D02*
X133719100Y-78933600D01*
X133719100Y-78933600D02*
X132322100Y-78933600D01*
X132322100Y-78933600D02*
X131687100Y-79568600D01*
X131687100Y-79568600D02*
X131052100Y-78933600D01*
X131052100Y-78933600D02*
X129782100Y-78933600D01*
X129782100Y-78933600D02*
X129147100Y-79568600D01*
X129147100Y-79568600D02*
X128512100Y-78933600D01*
X145022100Y-78933600D02*
X146165100Y-78933600D01*
X146292100Y-81473600D02*
X145022100Y-81473600D01*
X146927100Y-80838600D02*
X146927100Y-79441600D01*
X146927100Y-80838600D02*
X146292100Y-81473600D01*
X145022100Y-81473600D02*
X144387100Y-80838600D01*
X144387100Y-80838600D02*
X143752100Y-81473600D01*
X144387100Y-79568600D02*
X143752100Y-78933600D01*
X145022100Y-78933600D02*
X144387100Y-79568600D01*
X146927100Y-79441600D02*
X146419100Y-78933600D01*
X146419100Y-78933600D02*
X146165100Y-78933600D01*
X165596100Y-81473600D02*
X164326100Y-81473600D01*
X164326100Y-81473600D02*
X163691100Y-80838600D01*
X163691100Y-80838600D02*
X163056100Y-81473600D01*
X163056100Y-81473600D02*
X161786100Y-81473600D01*
X161786100Y-81473600D02*
X161151100Y-80838600D01*
X161151100Y-80838600D02*
X160516100Y-81473600D01*
X160516100Y-81473600D02*
X159246100Y-81473600D01*
X159246100Y-81473600D02*
X158611100Y-80838600D01*
X158611100Y-80838600D02*
X157976100Y-81473600D01*
X157976100Y-81473600D02*
X156706100Y-81473600D01*
X156706100Y-81473600D02*
X156071100Y-80838600D01*
X156071100Y-80838600D02*
X155436100Y-81473600D01*
X155436100Y-81473600D02*
X154166100Y-81473600D01*
X154166100Y-81473600D02*
X153531100Y-80838600D01*
X153531100Y-80838600D02*
X152896100Y-81473600D01*
X152896100Y-81473600D02*
X151626100Y-81473600D01*
X151626100Y-81473600D02*
X150991100Y-80838600D01*
X150991100Y-80838600D02*
X150356100Y-81473600D01*
X150356100Y-81473600D02*
X149086100Y-81473600D01*
X149086100Y-81473600D02*
X148451100Y-80838600D01*
X148451100Y-80838600D02*
X148451100Y-79568600D01*
X148451100Y-79568600D02*
X149086100Y-78933600D01*
X149086100Y-78933600D02*
X150356100Y-78933600D01*
X150356100Y-78933600D02*
X150991100Y-79568600D01*
X150991100Y-79568600D02*
X151626100Y-78933600D01*
X151626100Y-78933600D02*
X152896100Y-78933600D01*
X152896100Y-78933600D02*
X153531100Y-79568600D01*
X153531100Y-79568600D02*
X154166100Y-78933600D01*
X154166100Y-78933600D02*
X155436100Y-78933600D01*
X155436100Y-78933600D02*
X156071100Y-79568600D01*
X156071100Y-79568600D02*
X156706100Y-78933600D01*
X156706100Y-78933600D02*
X157976100Y-78933600D01*
X157976100Y-78933600D02*
X158611100Y-79568600D01*
X158611100Y-79568600D02*
X159246100Y-78933600D01*
X159246100Y-78933600D02*
X160516100Y-78933600D01*
X160516100Y-78933600D02*
X161151100Y-79568600D01*
X161151100Y-79568600D02*
X161786100Y-78933600D01*
X161786100Y-78933600D02*
X163056100Y-78933600D01*
X163056100Y-78933600D02*
X163691100Y-79568600D01*
X163691100Y-79568600D02*
X164326100Y-78933600D01*
X164326100Y-78933600D02*
X165596100Y-78933600D01*
X165596100Y-78933600D02*
X166231100Y-79568600D01*
X166231100Y-79568600D02*
X166866100Y-78933600D01*
X166866100Y-78933600D02*
X168136100Y-78933600D01*
X168136100Y-78933600D02*
X168771100Y-79568600D01*
X165596100Y-81473600D02*
X166231100Y-80838600D01*
X166231100Y-80838600D02*
X165596100Y-81473600D01*
X166866100Y-81473600D02*
X168136100Y-81473600D01*
X168771100Y-79568600D02*
X168771100Y-80838600D01*
X168771100Y-80838600D02*
X168136100Y-81473600D01*
X166866100Y-81473600D02*
X166231100Y-80838600D01*
X160516100Y-127193600D02*
X159246100Y-127193600D01*
X159246100Y-127193600D02*
X158611100Y-127828600D01*
X158611100Y-127828600D02*
X157976100Y-127193600D01*
X157976100Y-127193600D02*
X156706100Y-127193600D01*
X156706100Y-127193600D02*
X156071100Y-127828600D01*
X156071100Y-127828600D02*
X155436100Y-127193600D01*
X155436100Y-127193600D02*
X154166100Y-127193600D01*
X154166100Y-127193600D02*
X153531100Y-127828600D01*
X161786100Y-127193600D02*
X163056100Y-127193600D01*
X161151100Y-129098600D02*
X161786100Y-129733600D01*
X161786100Y-129733600D02*
X163056100Y-129733600D01*
X163056100Y-129733600D02*
X163691100Y-129098600D01*
X163691100Y-129098600D02*
X164326100Y-129733600D01*
X164326100Y-129733600D02*
X165596100Y-129733600D01*
X165596100Y-129733600D02*
X166231100Y-129098600D01*
X166231100Y-129098600D02*
X166866100Y-129733600D01*
X166866100Y-129733600D02*
X168136100Y-129733600D01*
X168136100Y-129733600D02*
X168771100Y-129098600D01*
X168771100Y-129098600D02*
X168771100Y-127828600D01*
X168771100Y-127828600D02*
X168136100Y-127193600D01*
X168136100Y-127193600D02*
X166866100Y-127193600D01*
X166866100Y-127193600D02*
X166231100Y-127828600D01*
X166231100Y-127828600D02*
X165596100Y-127193600D01*
X165596100Y-127193600D02*
X164326100Y-127193600D01*
X164326100Y-127193600D02*
X163691100Y-127828600D01*
X163691100Y-127828600D02*
X163056100Y-127193600D01*
X161786100Y-127193600D02*
X161151100Y-127828600D01*
X161151100Y-127828600D02*
X160516100Y-127193600D01*
X156706100Y-129733600D02*
X157976100Y-129733600D01*
X157976100Y-129733600D02*
X158611100Y-129098600D01*
X158611100Y-129098600D02*
X159246100Y-129733600D01*
X159246100Y-129733600D02*
X160516100Y-129733600D01*
X160516100Y-129733600D02*
X161151100Y-129098600D01*
X153531100Y-127828600D02*
X153531100Y-129098600D01*
X153531100Y-129098600D02*
X154166100Y-129733600D01*
X154166100Y-129733600D02*
X155436100Y-129733600D01*
X155436100Y-129733600D02*
X156071100Y-129098600D01*
X156071100Y-129098600D02*
X156706100Y-129733600D01*
X135751100Y-129098600D02*
X135116100Y-129733600D01*
X135116100Y-129733600D02*
X133846100Y-129733600D01*
X133846100Y-129733600D02*
X133211100Y-129098600D01*
X136386100Y-129733600D02*
X137656100Y-129733600D01*
X142736100Y-129733600D02*
X141466100Y-129733600D01*
X141466100Y-129733600D02*
X140831100Y-129098600D01*
X140831100Y-129098600D02*
X140196100Y-129733600D01*
X140196100Y-129733600D02*
X138926100Y-129733600D01*
X138926100Y-129733600D02*
X138291100Y-129098600D01*
X138291100Y-129098600D02*
X137656100Y-129733600D01*
X136386100Y-129733600D02*
X135751100Y-129098600D01*
X145276100Y-127193600D02*
X145911100Y-127828600D01*
X145911100Y-127828600D02*
X146546100Y-127193600D01*
X146546100Y-127193600D02*
X147816100Y-127193600D01*
X147816100Y-127193600D02*
X148451100Y-127828600D01*
X148451100Y-127828600D02*
X149086100Y-127193600D01*
X149086100Y-127193600D02*
X150356100Y-127193600D01*
X150356100Y-127193600D02*
X150991100Y-127828600D01*
X150991100Y-127828600D02*
X150991100Y-129098600D01*
X150991100Y-129098600D02*
X150356100Y-129733600D01*
X150356100Y-129733600D02*
X149086100Y-129733600D01*
X149086100Y-129733600D02*
X148451100Y-129098600D01*
X148451100Y-129098600D02*
X147816100Y-129733600D01*
X147816100Y-129733600D02*
X146546100Y-129733600D01*
X146546100Y-129733600D02*
X145911100Y-129098600D01*
X145911100Y-129098600D02*
X145276100Y-129733600D01*
X145276100Y-129733600D02*
X144006100Y-129733600D01*
X144006100Y-129733600D02*
X143371100Y-129098600D01*
X143371100Y-129098600D02*
X142736100Y-129733600D01*
X133211100Y-127828600D02*
X133846100Y-127193600D01*
X133846100Y-127193600D02*
X135116100Y-127193600D01*
X135116100Y-127193600D02*
X135751100Y-127828600D01*
X135751100Y-127828600D02*
X136386100Y-127193600D01*
X136386100Y-127193600D02*
X137656100Y-127193600D01*
X137656100Y-127193600D02*
X138291100Y-127828600D01*
X138291100Y-127828600D02*
X138926100Y-127193600D01*
X138926100Y-127193600D02*
X140196100Y-127193600D01*
X140196100Y-127193600D02*
X140831100Y-127828600D01*
X140831100Y-127828600D02*
X141466100Y-127193600D01*
X141466100Y-127193600D02*
X142736100Y-127193600D01*
X142736100Y-127193600D02*
X143371100Y-127828600D01*
X143371100Y-127828600D02*
X144006100Y-127193600D01*
X144006100Y-127193600D02*
X145276100Y-127193600D01*
X132576100Y-129733600D02*
X131306100Y-129733600D01*
X131306100Y-129733600D02*
X130671100Y-129098600D01*
X130671100Y-129098600D02*
X130671100Y-127828600D01*
X130671100Y-127828600D02*
X131306100Y-127193600D01*
X131306100Y-127193600D02*
X132576100Y-127193600D01*
X132576100Y-127193600D02*
X133211100Y-127828600D01*
X133211100Y-127828600D02*
X133211100Y-129098600D01*
X133211100Y-129098600D02*
X132576100Y-129733600D01*
X162052000Y-125456000D02*
X162052000Y-125656000D01*
X124587000Y-119761000D02*
X124587000Y-89281000D01*
X124587000Y-89281000D02*
X141732000Y-89281000D01*
X141732000Y-89281000D02*
X141732000Y-119761000D01*
X141732000Y-119761000D02*
X124587000Y-119761000D01*
X162052000Y-125611000D02*
X121412000Y-125611000D01*
X121412000Y-125556000D02*
X121412000Y-81661000D01*
X121412000Y-81661000D02*
X162052000Y-81661000D01*
X162052000Y-81661000D02*
X162052000Y-125556000D01*
D14*
X169906000Y-90756953D02*
X169882190Y-90804572D01*
X169882190Y-90876000D01*
X169906000Y-90947429D01*
X169953619Y-90995048D01*
X170001238Y-91018857D01*
X170096476Y-91042667D01*
X170167905Y-91042667D01*
X170263143Y-91018857D01*
X170310762Y-90995048D01*
X170358381Y-90947429D01*
X170382190Y-90876000D01*
X170382190Y-90828381D01*
X170358381Y-90756953D01*
X170334571Y-90733143D01*
X170167905Y-90733143D01*
X170167905Y-90828381D01*
X170382190Y-90518857D02*
X169882190Y-90518857D01*
X170382190Y-90233143D01*
X169882190Y-90233143D01*
X170382190Y-89995047D02*
X169882190Y-89995047D01*
X169882190Y-89876000D01*
X169906000Y-89804571D01*
X169953619Y-89756952D01*
X170001238Y-89733143D01*
X170096476Y-89709333D01*
X170167905Y-89709333D01*
X170263143Y-89733143D01*
X170310762Y-89756952D01*
X170358381Y-89804571D01*
X170382190Y-89876000D01*
X170382190Y-89995047D01*
X169882190Y-88971237D02*
X170382190Y-88804570D01*
X169882190Y-88637904D01*
X170358381Y-88256952D02*
X170382190Y-88304571D01*
X170382190Y-88399809D01*
X170358381Y-88447428D01*
X170334571Y-88471237D01*
X170286952Y-88495047D01*
X170144095Y-88495047D01*
X170096476Y-88471237D01*
X170072667Y-88447428D01*
X170048857Y-88399809D01*
X170048857Y-88304571D01*
X170072667Y-88256952D01*
X170358381Y-87828381D02*
X170382190Y-87876000D01*
X170382190Y-87971238D01*
X170358381Y-88018857D01*
X170334571Y-88042666D01*
X170286952Y-88066476D01*
X170144095Y-88066476D01*
X170096476Y-88042666D01*
X170072667Y-88018857D01*
X170048857Y-87971238D01*
X170048857Y-87876000D01*
X170072667Y-87828381D01*
X169929810Y-86518857D02*
X169906000Y-86495047D01*
X169882190Y-86447428D01*
X169882190Y-86328381D01*
X169906000Y-86280762D01*
X169929810Y-86256952D01*
X169977429Y-86233143D01*
X170025048Y-86233143D01*
X170096476Y-86256952D01*
X170382190Y-86542666D01*
X170382190Y-86233143D01*
X170382190Y-84233143D02*
X170382190Y-84518857D01*
X170382190Y-84376000D02*
X169882190Y-84376000D01*
X169953619Y-84423619D01*
X170001238Y-84471238D01*
X170025048Y-84518857D01*
D13*
X133651524Y-107346476D02*
X133746762Y-107060761D01*
X133746762Y-106584571D01*
X133651524Y-106394095D01*
X133556286Y-106298857D01*
X133365810Y-106203618D01*
X133175333Y-106203618D01*
X132984857Y-106298857D01*
X132889619Y-106394095D01*
X132794381Y-106584571D01*
X132699143Y-106965523D01*
X132603905Y-107155999D01*
X132508667Y-107251238D01*
X132318190Y-107346476D01*
X132127714Y-107346476D01*
X131937238Y-107251238D01*
X131842000Y-107155999D01*
X131746762Y-106965523D01*
X131746762Y-106489333D01*
X131842000Y-106203618D01*
X133746762Y-105346476D02*
X131746762Y-105346476D01*
X133746762Y-104394095D02*
X131746762Y-104394095D01*
X133175333Y-103727428D01*
X131746762Y-103060761D01*
X133746762Y-103060761D01*
X123136762Y-87917905D02*
X123184381Y-87775048D01*
X123184381Y-87536952D01*
X123136762Y-87441714D01*
X123089143Y-87394095D01*
X122993905Y-87346476D01*
X122898667Y-87346476D01*
X122803429Y-87394095D01*
X122755810Y-87441714D01*
X122708190Y-87536952D01*
X122660571Y-87727429D01*
X122612952Y-87822667D01*
X122565333Y-87870286D01*
X122470095Y-87917905D01*
X122374857Y-87917905D01*
X122279619Y-87870286D01*
X122232000Y-87822667D01*
X122184381Y-87727429D01*
X122184381Y-87489333D01*
X122232000Y-87346476D01*
X122517714Y-86917905D02*
X123517714Y-86917905D01*
X122565333Y-86917905D02*
X122517714Y-86822667D01*
X122517714Y-86632190D01*
X122565333Y-86536952D01*
X122612952Y-86489333D01*
X122708190Y-86441714D01*
X122993905Y-86441714D01*
X123089143Y-86489333D01*
X123136762Y-86536952D01*
X123184381Y-86632190D01*
X123184381Y-86822667D01*
X123136762Y-86917905D01*
X123184381Y-86013143D02*
X122184381Y-86013143D01*
X122803429Y-85917905D02*
X123184381Y-85632190D01*
X122517714Y-85632190D02*
X122898667Y-86013143D01*
X122803429Y-85203619D02*
X122803429Y-84441714D01*
X125636762Y-87917905D02*
X125684381Y-87775048D01*
X125684381Y-87536952D01*
X125636762Y-87441714D01*
X125589143Y-87394095D01*
X125493905Y-87346476D01*
X125398667Y-87346476D01*
X125303429Y-87394095D01*
X125255810Y-87441714D01*
X125208190Y-87536952D01*
X125160571Y-87727429D01*
X125112952Y-87822667D01*
X125065333Y-87870286D01*
X124970095Y-87917905D01*
X124874857Y-87917905D01*
X124779619Y-87870286D01*
X124732000Y-87822667D01*
X124684381Y-87727429D01*
X124684381Y-87489333D01*
X124732000Y-87346476D01*
X125017714Y-86917905D02*
X126017714Y-86917905D01*
X125065333Y-86917905D02*
X125017714Y-86822667D01*
X125017714Y-86632190D01*
X125065333Y-86536952D01*
X125112952Y-86489333D01*
X125208190Y-86441714D01*
X125493905Y-86441714D01*
X125589143Y-86489333D01*
X125636762Y-86536952D01*
X125684381Y-86632190D01*
X125684381Y-86822667D01*
X125636762Y-86917905D01*
X125684381Y-86013143D02*
X124684381Y-86013143D01*
X125303429Y-85917905D02*
X125684381Y-85632190D01*
X125017714Y-85632190D02*
X125398667Y-86013143D01*
X125303429Y-85203619D02*
X125303429Y-84441714D01*
X125684381Y-84822666D02*
X124922476Y-84822666D01*
X128184381Y-87775047D02*
X127184381Y-87775047D01*
X127898667Y-87441713D01*
X127184381Y-87108380D01*
X128184381Y-87108380D01*
X128184381Y-86632190D02*
X127517714Y-86632190D01*
X127184381Y-86632190D02*
X127232000Y-86679809D01*
X127279619Y-86632190D01*
X127232000Y-86584571D01*
X127184381Y-86632190D01*
X127279619Y-86632190D01*
X128136762Y-85727428D02*
X128184381Y-85822666D01*
X128184381Y-86013143D01*
X128136762Y-86108381D01*
X128089143Y-86156000D01*
X127993905Y-86203619D01*
X127708190Y-86203619D01*
X127612952Y-86156000D01*
X127565333Y-86108381D01*
X127517714Y-86013143D01*
X127517714Y-85822666D01*
X127565333Y-85727428D01*
X127803429Y-85298857D02*
X127803429Y-84536952D01*
X130684381Y-87775047D02*
X129684381Y-87775047D01*
X130398667Y-87441713D01*
X129684381Y-87108380D01*
X130684381Y-87108380D01*
X130684381Y-86632190D02*
X130017714Y-86632190D01*
X129684381Y-86632190D02*
X129732000Y-86679809D01*
X129779619Y-86632190D01*
X129732000Y-86584571D01*
X129684381Y-86632190D01*
X129779619Y-86632190D01*
X130636762Y-85727428D02*
X130684381Y-85822666D01*
X130684381Y-86013143D01*
X130636762Y-86108381D01*
X130589143Y-86156000D01*
X130493905Y-86203619D01*
X130208190Y-86203619D01*
X130112952Y-86156000D01*
X130065333Y-86108381D01*
X130017714Y-86013143D01*
X130017714Y-85822666D01*
X130065333Y-85727428D01*
X130303429Y-85298857D02*
X130303429Y-84536952D01*
X130684381Y-84917904D02*
X129922476Y-84917904D01*
X133184381Y-85917905D02*
X132184381Y-85917905D01*
X133184381Y-85346476D01*
X132184381Y-85346476D01*
X133136762Y-84917905D02*
X133184381Y-84775048D01*
X133184381Y-84536952D01*
X133136762Y-84441714D01*
X133089143Y-84394095D01*
X132993905Y-84346476D01*
X132898667Y-84346476D01*
X132803429Y-84394095D01*
X132755810Y-84441714D01*
X132708190Y-84536952D01*
X132660571Y-84727429D01*
X132612952Y-84822667D01*
X132565333Y-84870286D01*
X132470095Y-84917905D01*
X132374857Y-84917905D01*
X132279619Y-84870286D01*
X132232000Y-84822667D01*
X132184381Y-84727429D01*
X132184381Y-84489333D01*
X132232000Y-84346476D01*
X135684381Y-87917905D02*
X134684381Y-87917905D01*
X134684381Y-87536952D01*
X134732000Y-87441714D01*
X134779619Y-87394095D01*
X134874857Y-87346476D01*
X135017714Y-87346476D01*
X135112952Y-87394095D01*
X135160571Y-87441714D01*
X135208190Y-87536952D01*
X135208190Y-87917905D01*
X135636762Y-86965524D02*
X135684381Y-86822667D01*
X135684381Y-86584571D01*
X135636762Y-86489333D01*
X135589143Y-86441714D01*
X135493905Y-86394095D01*
X135398667Y-86394095D01*
X135303429Y-86441714D01*
X135255810Y-86489333D01*
X135208190Y-86584571D01*
X135160571Y-86775048D01*
X135112952Y-86870286D01*
X135065333Y-86917905D01*
X134970095Y-86965524D01*
X134874857Y-86965524D01*
X134779619Y-86917905D01*
X134732000Y-86870286D01*
X134684381Y-86775048D01*
X134684381Y-86536952D01*
X134732000Y-86394095D01*
X135017714Y-86108381D02*
X135017714Y-85727429D01*
X134684381Y-85965524D02*
X135541524Y-85965524D01*
X135636762Y-85917905D01*
X135684381Y-85822667D01*
X135684381Y-85727429D01*
X135684381Y-84965523D02*
X135160571Y-84965523D01*
X135065333Y-85013142D01*
X135017714Y-85108380D01*
X135017714Y-85298857D01*
X135065333Y-85394095D01*
X135636762Y-84965523D02*
X135684381Y-85060761D01*
X135684381Y-85298857D01*
X135636762Y-85394095D01*
X135541524Y-85441714D01*
X135446286Y-85441714D01*
X135351048Y-85394095D01*
X135303429Y-85298857D01*
X135303429Y-85060761D01*
X135255810Y-84965523D01*
X135017714Y-84632190D02*
X135017714Y-84251238D01*
X134684381Y-84489333D02*
X135541524Y-84489333D01*
X135636762Y-84441714D01*
X135684381Y-84346476D01*
X135684381Y-84251238D01*
X138184381Y-84834571D02*
X137708190Y-85167905D01*
X138184381Y-85406000D02*
X137184381Y-85406000D01*
X137184381Y-85025047D01*
X137232000Y-84929809D01*
X137279619Y-84882190D01*
X137374857Y-84834571D01*
X137517714Y-84834571D01*
X137612952Y-84882190D01*
X137660571Y-84929809D01*
X137708190Y-85025047D01*
X137708190Y-85406000D01*
X138184381Y-84406000D02*
X137184381Y-84406000D01*
X140684381Y-86477429D02*
X139684381Y-86477429D01*
X140684381Y-85906000D02*
X140112952Y-86334572D01*
X139684381Y-85906000D02*
X140255810Y-86477429D01*
X140636762Y-85096476D02*
X140684381Y-85191714D01*
X140684381Y-85382191D01*
X140636762Y-85477429D01*
X140541524Y-85525048D01*
X140160571Y-85525048D01*
X140065333Y-85477429D01*
X140017714Y-85382191D01*
X140017714Y-85191714D01*
X140065333Y-85096476D01*
X140160571Y-85048857D01*
X140255810Y-85048857D01*
X140351048Y-85525048D01*
X140017714Y-84715524D02*
X140684381Y-84477429D01*
X140017714Y-84239333D02*
X140684381Y-84477429D01*
X140922476Y-84572667D01*
X140970095Y-84620286D01*
X141017714Y-84715524D01*
X143434381Y-85953619D02*
X142958190Y-86286953D01*
X143434381Y-86525048D02*
X142434381Y-86525048D01*
X142434381Y-86144095D01*
X142482000Y-86048857D01*
X142529619Y-86001238D01*
X142624857Y-85953619D01*
X142767714Y-85953619D01*
X142862952Y-86001238D01*
X142910571Y-86048857D01*
X142958190Y-86144095D01*
X142958190Y-86525048D01*
X142434381Y-85667905D02*
X142434381Y-85096476D01*
X143434381Y-85382191D02*
X142434381Y-85382191D01*
X143386762Y-84810762D02*
X143434381Y-84667905D01*
X143434381Y-84429809D01*
X143386762Y-84334571D01*
X143339143Y-84286952D01*
X143243905Y-84239333D01*
X143148667Y-84239333D01*
X143053429Y-84286952D01*
X143005810Y-84334571D01*
X142958190Y-84429809D01*
X142910571Y-84620286D01*
X142862952Y-84715524D01*
X142815333Y-84763143D01*
X142720095Y-84810762D01*
X142624857Y-84810762D01*
X142529619Y-84763143D01*
X142482000Y-84715524D01*
X142434381Y-84620286D01*
X142434381Y-84382190D01*
X142482000Y-84239333D01*
X144934381Y-85917905D02*
X144934381Y-85346476D01*
X145934381Y-85632191D02*
X144934381Y-85632191D01*
X144934381Y-85108381D02*
X145934381Y-84441714D01*
X144934381Y-84441714D02*
X145934381Y-85108381D01*
X148434381Y-85322666D02*
X147958190Y-85656000D01*
X148434381Y-85894095D02*
X147434381Y-85894095D01*
X147434381Y-85513142D01*
X147482000Y-85417904D01*
X147529619Y-85370285D01*
X147624857Y-85322666D01*
X147767714Y-85322666D01*
X147862952Y-85370285D01*
X147910571Y-85417904D01*
X147958190Y-85513142D01*
X147958190Y-85894095D01*
X147434381Y-84989333D02*
X148434381Y-84322666D01*
X147434381Y-84322666D02*
X148434381Y-84989333D01*
X150934381Y-85786952D02*
X150458190Y-86120286D01*
X150934381Y-86358381D02*
X149934381Y-86358381D01*
X149934381Y-85977428D01*
X149982000Y-85882190D01*
X150029619Y-85834571D01*
X150124857Y-85786952D01*
X150267714Y-85786952D01*
X150362952Y-85834571D01*
X150410571Y-85882190D01*
X150458190Y-85977428D01*
X150458190Y-86358381D01*
X150886762Y-85406000D02*
X150934381Y-85310762D01*
X150934381Y-85120286D01*
X150886762Y-85025047D01*
X150791524Y-84977428D01*
X150743905Y-84977428D01*
X150648667Y-85025047D01*
X150601048Y-85120286D01*
X150601048Y-85263143D01*
X150553429Y-85358381D01*
X150458190Y-85406000D01*
X150410571Y-85406000D01*
X150315333Y-85358381D01*
X150267714Y-85263143D01*
X150267714Y-85120286D01*
X150315333Y-85025047D01*
X150267714Y-84691714D02*
X150267714Y-84310762D01*
X149934381Y-84548857D02*
X150791524Y-84548857D01*
X150886762Y-84501238D01*
X150934381Y-84406000D01*
X150934381Y-84310762D01*
X152434381Y-86429809D02*
X153434381Y-86096476D01*
X152434381Y-85763142D01*
X153434381Y-85429809D02*
X152767714Y-85429809D01*
X152434381Y-85429809D02*
X152482000Y-85477428D01*
X152529619Y-85429809D01*
X152482000Y-85382190D01*
X152434381Y-85429809D01*
X152529619Y-85429809D01*
X153434381Y-84810762D02*
X153386762Y-84906000D01*
X153339143Y-84953619D01*
X153243905Y-85001238D01*
X152958190Y-85001238D01*
X152862952Y-84953619D01*
X152815333Y-84906000D01*
X152767714Y-84810762D01*
X152767714Y-84667904D01*
X152815333Y-84572666D01*
X152862952Y-84525047D01*
X152958190Y-84477428D01*
X153243905Y-84477428D01*
X153339143Y-84525047D01*
X153386762Y-84572666D01*
X153434381Y-84667904D01*
X153434381Y-84810762D01*
X155232000Y-86417904D02*
X155184381Y-86513142D01*
X155184381Y-86655999D01*
X155232000Y-86798857D01*
X155327238Y-86894095D01*
X155422476Y-86941714D01*
X155612952Y-86989333D01*
X155755810Y-86989333D01*
X155946286Y-86941714D01*
X156041524Y-86894095D01*
X156136762Y-86798857D01*
X156184381Y-86655999D01*
X156184381Y-86560761D01*
X156136762Y-86417904D01*
X156089143Y-86370285D01*
X155755810Y-86370285D01*
X155755810Y-86560761D01*
X156184381Y-85941714D02*
X155184381Y-85941714D01*
X156184381Y-85370285D01*
X155184381Y-85370285D01*
X156184381Y-84894095D02*
X155184381Y-84894095D01*
X155184381Y-84656000D01*
X155232000Y-84513142D01*
X155327238Y-84417904D01*
X155422476Y-84370285D01*
X155612952Y-84322666D01*
X155755810Y-84322666D01*
X155946286Y-84370285D01*
X156041524Y-84417904D01*
X156136762Y-84513142D01*
X156184381Y-84656000D01*
X156184381Y-84894095D01*
X158160571Y-86072666D02*
X158208190Y-85929809D01*
X158255810Y-85882190D01*
X158351048Y-85834571D01*
X158493905Y-85834571D01*
X158589143Y-85882190D01*
X158636762Y-85929809D01*
X158684381Y-86025047D01*
X158684381Y-86406000D01*
X157684381Y-86406000D01*
X157684381Y-86072666D01*
X157732000Y-85977428D01*
X157779619Y-85929809D01*
X157874857Y-85882190D01*
X157970095Y-85882190D01*
X158065333Y-85929809D01*
X158112952Y-85977428D01*
X158160571Y-86072666D01*
X158160571Y-86406000D01*
X158684381Y-84977428D02*
X158160571Y-84977428D01*
X158065333Y-85025047D01*
X158017714Y-85120285D01*
X158017714Y-85310762D01*
X158065333Y-85406000D01*
X158636762Y-84977428D02*
X158684381Y-85072666D01*
X158684381Y-85310762D01*
X158636762Y-85406000D01*
X158541524Y-85453619D01*
X158446286Y-85453619D01*
X158351048Y-85406000D01*
X158303429Y-85310762D01*
X158303429Y-85072666D01*
X158255810Y-84977428D01*
X158017714Y-84644095D02*
X158017714Y-84263143D01*
X157684381Y-84501238D02*
X158541524Y-84501238D01*
X158636762Y-84453619D01*
X158684381Y-84358381D01*
X158684381Y-84263143D01*
X160184381Y-85346476D02*
X160184381Y-85822667D01*
X160660571Y-85870286D01*
X160612952Y-85822667D01*
X160565333Y-85727429D01*
X160565333Y-85489333D01*
X160612952Y-85394095D01*
X160660571Y-85346476D01*
X160755810Y-85298857D01*
X160993905Y-85298857D01*
X161089143Y-85346476D01*
X161136762Y-85394095D01*
X161184381Y-85489333D01*
X161184381Y-85727429D01*
X161136762Y-85822667D01*
X161089143Y-85870286D01*
X160184381Y-85013143D02*
X161184381Y-84679810D01*
X160184381Y-84346476D01*
M02*
