M48
;DRILL file {KiCad 4.0.2-stable} date Saturday, September 10, 2016 'AMt' 11:05:56 AM
;FORMAT={-:-/ absolute / inch / decimal}
FMAT,2
INCH,TZ
T1C0.030
T2C0.040
T3C0.100
%
G90
G05
M72
T1
X6.64Y-3.3219
X6.64Y-3.4006
X6.64Y-3.4794
X6.64Y-3.5581
T2
X4.83Y-3.265
X4.8345Y-3.1576
X4.93Y-3.265
X4.9345Y-3.1576
X5.03Y-3.265
X5.0345Y-3.1576
X5.13Y-3.265
X5.1345Y-3.1576
X5.1945Y-5.0576
X5.23Y-3.265
X5.2345Y-3.1576
X5.2945Y-5.0576
X5.33Y-3.265
X5.3345Y-3.1576
X5.3945Y-5.0576
X5.43Y-3.265
X5.4345Y-3.1576
X5.4945Y-5.0576
X5.53Y-3.265
X5.5345Y-3.1576
X5.5945Y-5.0576
X5.63Y-3.265
X5.6345Y-3.1576
X5.6945Y-5.0576
X5.73Y-3.265
X5.7345Y-3.1576
X5.7945Y-5.0576
X5.83Y-3.265
X5.8945Y-3.1576
X5.8945Y-5.0576
X5.93Y-3.265
X5.9945Y-3.1576
X6.03Y-3.265
X6.0945Y-3.1576
X6.0945Y-5.0576
X6.13Y-3.265
X6.1945Y-3.1576
X6.1945Y-5.0576
X6.23Y-3.265
X6.2945Y-3.1576
X6.2945Y-5.0576
X6.33Y-3.265
X6.3945Y-3.1576
X6.3945Y-5.0576
X6.4945Y-3.1576
X6.4945Y-5.0576
X6.5945Y-3.1576
X6.5945Y-5.0576
T3
X4.8812Y-4.8585
X6.2788Y-4.8585
T0
M30
