G04 #@! TF.FileFunction,Copper,L1,Top,Signal*
%FSLAX46Y46*%
G04 Gerber Fmt 4.6, Leading zero omitted, Abs format (unit mm)*
G04 Created by KiCad (PCBNEW 4.0.2-stable) date Saturday, September 10, 2016 'AMt' 11:06:01 AM*
%MOMM*%
G01*
G04 APERTURE LIST*
%ADD10C,0.100000*%
%ADD11C,1.524000*%
%ADD12C,3.810000*%
%ADD13C,0.250000*%
%ADD14C,0.300000*%
%ADD15C,0.254000*%
G04 APERTURE END LIST*
D10*
D11*
X168656000Y-84376000D03*
X168656000Y-86376000D03*
X168656000Y-88376000D03*
X168656000Y-90376000D03*
X167501100Y-128463600D03*
X164961100Y-128463600D03*
X162421100Y-128463600D03*
X154801100Y-128463600D03*
X157341100Y-128463600D03*
X159881100Y-128463600D03*
X149721100Y-128463600D03*
X147181100Y-128463600D03*
X144641100Y-128463600D03*
X139561100Y-128463600D03*
X137021100Y-128463600D03*
X167501100Y-80203600D03*
X164961100Y-80203600D03*
X162421100Y-80203600D03*
X159881100Y-80203600D03*
X157341100Y-80203600D03*
X154801100Y-80203600D03*
X152261100Y-80203600D03*
X149721100Y-80203600D03*
X145657100Y-80203600D03*
X143117100Y-80203600D03*
X140577100Y-80203600D03*
X138037100Y-80203600D03*
X135497100Y-80203600D03*
X132957100Y-80203600D03*
X130417100Y-80203600D03*
X127877100Y-80203600D03*
X142101100Y-128463600D03*
X125337100Y-80203600D03*
X122797100Y-80203600D03*
X134481100Y-128463600D03*
X131941100Y-128463600D03*
D12*
X123982000Y-123406000D03*
D11*
X160782000Y-82931000D03*
X158242000Y-82931000D03*
X155702000Y-82931000D03*
X153162000Y-82931000D03*
X150622000Y-82931000D03*
X148082000Y-82931000D03*
X145542000Y-82931000D03*
X143002000Y-82931000D03*
X140462000Y-82931000D03*
X137922000Y-82931000D03*
X135382000Y-82931000D03*
X132842000Y-82931000D03*
X130302000Y-82931000D03*
X127762000Y-82931000D03*
X125222000Y-82931000D03*
X122682000Y-82931000D03*
D12*
X159482000Y-123406000D03*
D13*
X168656000Y-86376000D02*
X163570601Y-81290601D01*
X163570601Y-81290601D02*
X158993341Y-81290601D01*
X158993341Y-81290601D02*
X158428101Y-80725361D01*
X158428101Y-80725361D02*
X158428101Y-79681839D01*
X146744101Y-79116599D02*
X146419099Y-79441601D01*
X158428101Y-79681839D02*
X157862861Y-79116599D01*
X157862861Y-79116599D02*
X146744101Y-79116599D01*
X146419099Y-79441601D02*
X145657100Y-80203600D01*
D14*
X158242000Y-83439000D02*
X158242000Y-88646000D01*
X158242000Y-88646000D02*
X157988000Y-88900000D01*
X157988000Y-88900000D02*
X153416000Y-93472000D01*
X142101100Y-128463600D02*
X142101100Y-126122900D01*
X153162000Y-115062000D02*
X153162000Y-83439000D01*
X142101100Y-126122900D02*
X153162000Y-115062000D01*
D13*
X150622000Y-83439000D02*
X150749000Y-83439000D01*
X150622000Y-82931000D02*
X151809001Y-81743999D01*
X151809001Y-81743999D02*
X155800701Y-81743999D01*
X155800701Y-81743999D02*
X156579101Y-80965599D01*
X156579101Y-80965599D02*
X157341100Y-80203600D01*
X148082000Y-82931000D02*
X148209000Y-82931000D01*
X148209000Y-82931000D02*
X149352000Y-81788000D01*
X149352000Y-81788000D02*
X150676700Y-81788000D01*
X150676700Y-81788000D02*
X152261100Y-80203600D01*
X143117100Y-80203600D02*
X143117100Y-81014100D01*
X143117100Y-81014100D02*
X145542000Y-83439000D01*
X138037100Y-80203600D02*
X138037100Y-81014100D01*
X138037100Y-81014100D02*
X140462000Y-83439000D01*
X135497100Y-80203600D02*
X135497100Y-83323900D01*
X135497100Y-83323900D02*
X135382000Y-83439000D01*
D15*
G36*
X170994000Y-129338000D02*
X168602556Y-129338000D01*
X168684729Y-129255970D01*
X168897857Y-128742700D01*
X168898342Y-128186939D01*
X168686110Y-127673297D01*
X168293470Y-127279971D01*
X167780200Y-127066843D01*
X167224439Y-127066358D01*
X166710797Y-127278590D01*
X166317471Y-127671230D01*
X166231151Y-127879112D01*
X166146110Y-127673297D01*
X165753470Y-127279971D01*
X165240200Y-127066843D01*
X164684439Y-127066358D01*
X164170797Y-127278590D01*
X163777471Y-127671230D01*
X163691151Y-127879112D01*
X163606110Y-127673297D01*
X163213470Y-127279971D01*
X162700200Y-127066843D01*
X162144439Y-127066358D01*
X161630797Y-127278590D01*
X161237471Y-127671230D01*
X161151151Y-127879112D01*
X161066110Y-127673297D01*
X160673470Y-127279971D01*
X160160200Y-127066843D01*
X159604439Y-127066358D01*
X159090797Y-127278590D01*
X158697471Y-127671230D01*
X158611151Y-127879112D01*
X158526110Y-127673297D01*
X158133470Y-127279971D01*
X157620200Y-127066843D01*
X157064439Y-127066358D01*
X156550797Y-127278590D01*
X156157471Y-127671230D01*
X156071151Y-127879112D01*
X155986110Y-127673297D01*
X155593470Y-127279971D01*
X155080200Y-127066843D01*
X154524439Y-127066358D01*
X154010797Y-127278590D01*
X153617471Y-127671230D01*
X153404343Y-128184500D01*
X153403858Y-128740261D01*
X153616090Y-129253903D01*
X153700040Y-129338000D01*
X150822556Y-129338000D01*
X150904729Y-129255970D01*
X151117857Y-128742700D01*
X151118342Y-128186939D01*
X150906110Y-127673297D01*
X150513470Y-127279971D01*
X150000200Y-127066843D01*
X149444439Y-127066358D01*
X148930797Y-127278590D01*
X148537471Y-127671230D01*
X148451151Y-127879112D01*
X148366110Y-127673297D01*
X147973470Y-127279971D01*
X147460200Y-127066843D01*
X146904439Y-127066358D01*
X146390797Y-127278590D01*
X145997471Y-127671230D01*
X145911151Y-127879112D01*
X145826110Y-127673297D01*
X145433470Y-127279971D01*
X144920200Y-127066843D01*
X144364439Y-127066358D01*
X143850797Y-127278590D01*
X143457471Y-127671230D01*
X143377705Y-127863327D01*
X143323497Y-127732457D01*
X143081313Y-127662992D01*
X142280705Y-128463600D01*
X142294848Y-128477743D01*
X142115243Y-128657348D01*
X142101100Y-128643205D01*
X142086958Y-128657348D01*
X141907353Y-128477743D01*
X141921495Y-128463600D01*
X141120887Y-127662992D01*
X140878703Y-127732457D01*
X140828591Y-127872918D01*
X140746110Y-127673297D01*
X140556532Y-127483387D01*
X141300492Y-127483387D01*
X142101100Y-128283995D01*
X142901708Y-127483387D01*
X142832243Y-127241203D01*
X142308798Y-127054456D01*
X141753732Y-127082238D01*
X141369957Y-127241203D01*
X141300492Y-127483387D01*
X140556532Y-127483387D01*
X140353470Y-127279971D01*
X139840200Y-127066843D01*
X139284439Y-127066358D01*
X138770797Y-127278590D01*
X138377471Y-127671230D01*
X138291151Y-127879112D01*
X138206110Y-127673297D01*
X137813470Y-127279971D01*
X137300200Y-127066843D01*
X136744439Y-127066358D01*
X136230797Y-127278590D01*
X135837471Y-127671230D01*
X135751151Y-127879112D01*
X135666110Y-127673297D01*
X135273470Y-127279971D01*
X134760200Y-127066843D01*
X134204439Y-127066358D01*
X133690797Y-127278590D01*
X133297471Y-127671230D01*
X133211151Y-127879112D01*
X133126110Y-127673297D01*
X132733470Y-127279971D01*
X132220200Y-127066843D01*
X131664439Y-127066358D01*
X131150797Y-127278590D01*
X130796845Y-127631924D01*
X130744212Y-127368758D01*
X130717525Y-127304520D01*
X130703954Y-127236295D01*
X130664899Y-127177845D01*
X130637930Y-127112928D01*
X130588693Y-127063794D01*
X130550046Y-127005954D01*
X130491596Y-126966899D01*
X130441837Y-126917244D01*
X130377541Y-126890690D01*
X130319705Y-126852046D01*
X130250762Y-126838332D01*
X130185786Y-126811498D01*
X130116224Y-126811571D01*
X130048000Y-126798000D01*
X122122000Y-126798000D01*
X122122000Y-125137993D01*
X122541327Y-125558052D01*
X123474546Y-125945559D01*
X124485021Y-125946440D01*
X125418915Y-125560563D01*
X126134052Y-124846673D01*
X126521559Y-123913454D01*
X126521562Y-123909021D01*
X156941560Y-123909021D01*
X157327437Y-124842915D01*
X158041327Y-125558052D01*
X158974546Y-125945559D01*
X159985021Y-125946440D01*
X160918915Y-125560563D01*
X161634052Y-124846673D01*
X162021559Y-123913454D01*
X162022440Y-122902979D01*
X161636563Y-121969085D01*
X160922673Y-121253948D01*
X159989454Y-120866441D01*
X158978979Y-120865560D01*
X158045085Y-121251437D01*
X157329948Y-121965327D01*
X156942441Y-122898546D01*
X156941560Y-123909021D01*
X126521562Y-123909021D01*
X126522440Y-122902979D01*
X126136563Y-121969085D01*
X125782097Y-121614000D01*
X142748000Y-121614000D01*
X143019705Y-121559954D01*
X143250046Y-121406046D01*
X143403954Y-121175705D01*
X143458000Y-120904000D01*
X143458000Y-90652661D01*
X167258758Y-90652661D01*
X167470990Y-91166303D01*
X167863630Y-91559629D01*
X168376900Y-91772757D01*
X168932661Y-91773242D01*
X169446303Y-91561010D01*
X169839629Y-91168370D01*
X170052757Y-90655100D01*
X170053242Y-90099339D01*
X169841010Y-89585697D01*
X169448370Y-89192371D01*
X169182273Y-89081878D01*
X168656000Y-88555605D01*
X168129698Y-89081907D01*
X167865697Y-89190990D01*
X167472371Y-89583630D01*
X167259243Y-90096900D01*
X167258758Y-90652661D01*
X143458000Y-90652661D01*
X143458000Y-88900000D01*
X143403954Y-88628295D01*
X143250046Y-88397954D01*
X143019705Y-88244046D01*
X142748000Y-88190000D01*
X122122000Y-88190000D01*
X122122000Y-88168302D01*
X167246856Y-88168302D01*
X167274638Y-88723368D01*
X167433603Y-89107143D01*
X167675787Y-89176608D01*
X168476395Y-88376000D01*
X168835605Y-88376000D01*
X169636213Y-89176608D01*
X169878397Y-89107143D01*
X170065144Y-88583698D01*
X170037362Y-88028632D01*
X169878397Y-87644857D01*
X169636213Y-87575392D01*
X168835605Y-88376000D01*
X168476395Y-88376000D01*
X167675787Y-87575392D01*
X167433603Y-87644857D01*
X167246856Y-88168302D01*
X122122000Y-88168302D01*
X122122000Y-84211117D01*
X122402900Y-84327757D01*
X122958661Y-84328242D01*
X123472303Y-84116010D01*
X123865629Y-83723370D01*
X123951949Y-83515488D01*
X124036990Y-83721303D01*
X124429630Y-84114629D01*
X124942900Y-84327757D01*
X125498661Y-84328242D01*
X126012303Y-84116010D01*
X126405629Y-83723370D01*
X126491949Y-83515488D01*
X126576990Y-83721303D01*
X126969630Y-84114629D01*
X127482900Y-84327757D01*
X128038661Y-84328242D01*
X128552303Y-84116010D01*
X128945629Y-83723370D01*
X129031949Y-83515488D01*
X129116990Y-83721303D01*
X129509630Y-84114629D01*
X130022900Y-84327757D01*
X130578661Y-84328242D01*
X131092303Y-84116010D01*
X131485629Y-83723370D01*
X131571949Y-83515488D01*
X131656990Y-83721303D01*
X132049630Y-84114629D01*
X132562900Y-84327757D01*
X133118661Y-84328242D01*
X133632303Y-84116010D01*
X134025629Y-83723370D01*
X134111949Y-83515488D01*
X134196990Y-83721303D01*
X134589630Y-84114629D01*
X135102900Y-84327757D01*
X135658661Y-84328242D01*
X136172303Y-84116010D01*
X136565629Y-83723370D01*
X136651949Y-83515488D01*
X136736990Y-83721303D01*
X137129630Y-84114629D01*
X137642900Y-84327757D01*
X138198661Y-84328242D01*
X138712303Y-84116010D01*
X139105629Y-83723370D01*
X139191949Y-83515488D01*
X139276990Y-83721303D01*
X139669630Y-84114629D01*
X140182900Y-84327757D01*
X140738661Y-84328242D01*
X141252303Y-84116010D01*
X141645629Y-83723370D01*
X141731949Y-83515488D01*
X141816990Y-83721303D01*
X142209630Y-84114629D01*
X142722900Y-84327757D01*
X143278661Y-84328242D01*
X143792303Y-84116010D01*
X144185629Y-83723370D01*
X144271949Y-83515488D01*
X144356990Y-83721303D01*
X144749630Y-84114629D01*
X145262900Y-84327757D01*
X145818661Y-84328242D01*
X146332303Y-84116010D01*
X146725629Y-83723370D01*
X146811949Y-83515488D01*
X146896990Y-83721303D01*
X147289630Y-84114629D01*
X147802900Y-84327757D01*
X148358661Y-84328242D01*
X148872303Y-84116010D01*
X149265629Y-83723370D01*
X149351949Y-83515488D01*
X149436990Y-83721303D01*
X149829630Y-84114629D01*
X150342900Y-84327757D01*
X150898661Y-84328242D01*
X151412303Y-84116010D01*
X151617457Y-83911213D01*
X152361392Y-83911213D01*
X152430857Y-84153397D01*
X152954302Y-84340144D01*
X153509368Y-84312362D01*
X153893143Y-84153397D01*
X153962608Y-83911213D01*
X153162000Y-83110605D01*
X152361392Y-83911213D01*
X151617457Y-83911213D01*
X151805629Y-83723370D01*
X151885395Y-83531273D01*
X151939603Y-83662143D01*
X152181787Y-83731608D01*
X152982395Y-82931000D01*
X152968253Y-82916858D01*
X153147858Y-82737253D01*
X153162000Y-82751395D01*
X153176143Y-82737253D01*
X153355748Y-82916858D01*
X153341605Y-82931000D01*
X154142213Y-83731608D01*
X154384397Y-83662143D01*
X154434509Y-83521682D01*
X154516990Y-83721303D01*
X154909630Y-84114629D01*
X155422900Y-84327757D01*
X155978661Y-84328242D01*
X156492303Y-84116010D01*
X156697457Y-83911213D01*
X157441392Y-83911213D01*
X157510857Y-84153397D01*
X158034302Y-84340144D01*
X158589368Y-84312362D01*
X158973143Y-84153397D01*
X159042608Y-83911213D01*
X158242000Y-83110605D01*
X157441392Y-83911213D01*
X156697457Y-83911213D01*
X156885629Y-83723370D01*
X156965395Y-83531273D01*
X157019603Y-83662143D01*
X157261787Y-83731608D01*
X158062395Y-82931000D01*
X157261787Y-82130392D01*
X157019603Y-82199857D01*
X156969491Y-82340318D01*
X156887010Y-82140697D01*
X156683086Y-81936416D01*
X157031719Y-81587783D01*
X157062000Y-81600357D01*
X157617761Y-81600842D01*
X158050129Y-81422191D01*
X158164089Y-81536151D01*
X157894632Y-81549638D01*
X157510857Y-81708603D01*
X157441392Y-81950787D01*
X158242000Y-82751395D01*
X158256143Y-82737253D01*
X158435748Y-82916858D01*
X158421605Y-82931000D01*
X159222213Y-83731608D01*
X159464397Y-83662143D01*
X159514509Y-83521682D01*
X159596990Y-83721303D01*
X159989630Y-84114629D01*
X160502900Y-84327757D01*
X161058661Y-84328242D01*
X161572303Y-84116010D01*
X161965629Y-83723370D01*
X162178757Y-83210100D01*
X162179242Y-82654339D01*
X161967010Y-82140697D01*
X161877071Y-82050601D01*
X163255799Y-82050601D01*
X167271817Y-86066619D01*
X167259243Y-86096900D01*
X167258758Y-86652661D01*
X167470990Y-87166303D01*
X167863630Y-87559629D01*
X168129727Y-87670122D01*
X168656000Y-88196395D01*
X169182302Y-87670093D01*
X169446303Y-87561010D01*
X169839629Y-87168370D01*
X170052757Y-86655100D01*
X170053242Y-86099339D01*
X169841010Y-85585697D01*
X169631658Y-85375979D01*
X169839629Y-85168370D01*
X170052757Y-84655100D01*
X170053242Y-84099339D01*
X169841010Y-83585697D01*
X169448370Y-83192371D01*
X168935100Y-82979243D01*
X168379339Y-82978758D01*
X167865697Y-83190990D01*
X167472371Y-83583630D01*
X167315711Y-83960909D01*
X164955398Y-81600596D01*
X165237761Y-81600842D01*
X165751403Y-81388610D01*
X166144729Y-80995970D01*
X166231049Y-80788088D01*
X166316090Y-80993903D01*
X166708730Y-81387229D01*
X167222000Y-81600357D01*
X167777761Y-81600842D01*
X168291403Y-81388610D01*
X168684729Y-80995970D01*
X168897857Y-80482700D01*
X168898342Y-79926939D01*
X168686110Y-79413297D01*
X168293470Y-79019971D01*
X168105695Y-78942000D01*
X170994000Y-78942000D01*
X170994000Y-129338000D01*
X170994000Y-129338000D01*
G37*
X170994000Y-129338000D02*
X168602556Y-129338000D01*
X168684729Y-129255970D01*
X168897857Y-128742700D01*
X168898342Y-128186939D01*
X168686110Y-127673297D01*
X168293470Y-127279971D01*
X167780200Y-127066843D01*
X167224439Y-127066358D01*
X166710797Y-127278590D01*
X166317471Y-127671230D01*
X166231151Y-127879112D01*
X166146110Y-127673297D01*
X165753470Y-127279971D01*
X165240200Y-127066843D01*
X164684439Y-127066358D01*
X164170797Y-127278590D01*
X163777471Y-127671230D01*
X163691151Y-127879112D01*
X163606110Y-127673297D01*
X163213470Y-127279971D01*
X162700200Y-127066843D01*
X162144439Y-127066358D01*
X161630797Y-127278590D01*
X161237471Y-127671230D01*
X161151151Y-127879112D01*
X161066110Y-127673297D01*
X160673470Y-127279971D01*
X160160200Y-127066843D01*
X159604439Y-127066358D01*
X159090797Y-127278590D01*
X158697471Y-127671230D01*
X158611151Y-127879112D01*
X158526110Y-127673297D01*
X158133470Y-127279971D01*
X157620200Y-127066843D01*
X157064439Y-127066358D01*
X156550797Y-127278590D01*
X156157471Y-127671230D01*
X156071151Y-127879112D01*
X155986110Y-127673297D01*
X155593470Y-127279971D01*
X155080200Y-127066843D01*
X154524439Y-127066358D01*
X154010797Y-127278590D01*
X153617471Y-127671230D01*
X153404343Y-128184500D01*
X153403858Y-128740261D01*
X153616090Y-129253903D01*
X153700040Y-129338000D01*
X150822556Y-129338000D01*
X150904729Y-129255970D01*
X151117857Y-128742700D01*
X151118342Y-128186939D01*
X150906110Y-127673297D01*
X150513470Y-127279971D01*
X150000200Y-127066843D01*
X149444439Y-127066358D01*
X148930797Y-127278590D01*
X148537471Y-127671230D01*
X148451151Y-127879112D01*
X148366110Y-127673297D01*
X147973470Y-127279971D01*
X147460200Y-127066843D01*
X146904439Y-127066358D01*
X146390797Y-127278590D01*
X145997471Y-127671230D01*
X145911151Y-127879112D01*
X145826110Y-127673297D01*
X145433470Y-127279971D01*
X144920200Y-127066843D01*
X144364439Y-127066358D01*
X143850797Y-127278590D01*
X143457471Y-127671230D01*
X143377705Y-127863327D01*
X143323497Y-127732457D01*
X143081313Y-127662992D01*
X142280705Y-128463600D01*
X142294848Y-128477743D01*
X142115243Y-128657348D01*
X142101100Y-128643205D01*
X142086958Y-128657348D01*
X141907353Y-128477743D01*
X141921495Y-128463600D01*
X141120887Y-127662992D01*
X140878703Y-127732457D01*
X140828591Y-127872918D01*
X140746110Y-127673297D01*
X140556532Y-127483387D01*
X141300492Y-127483387D01*
X142101100Y-128283995D01*
X142901708Y-127483387D01*
X142832243Y-127241203D01*
X142308798Y-127054456D01*
X141753732Y-127082238D01*
X141369957Y-127241203D01*
X141300492Y-127483387D01*
X140556532Y-127483387D01*
X140353470Y-127279971D01*
X139840200Y-127066843D01*
X139284439Y-127066358D01*
X138770797Y-127278590D01*
X138377471Y-127671230D01*
X138291151Y-127879112D01*
X138206110Y-127673297D01*
X137813470Y-127279971D01*
X137300200Y-127066843D01*
X136744439Y-127066358D01*
X136230797Y-127278590D01*
X135837471Y-127671230D01*
X135751151Y-127879112D01*
X135666110Y-127673297D01*
X135273470Y-127279971D01*
X134760200Y-127066843D01*
X134204439Y-127066358D01*
X133690797Y-127278590D01*
X133297471Y-127671230D01*
X133211151Y-127879112D01*
X133126110Y-127673297D01*
X132733470Y-127279971D01*
X132220200Y-127066843D01*
X131664439Y-127066358D01*
X131150797Y-127278590D01*
X130796845Y-127631924D01*
X130744212Y-127368758D01*
X130717525Y-127304520D01*
X130703954Y-127236295D01*
X130664899Y-127177845D01*
X130637930Y-127112928D01*
X130588693Y-127063794D01*
X130550046Y-127005954D01*
X130491596Y-126966899D01*
X130441837Y-126917244D01*
X130377541Y-126890690D01*
X130319705Y-126852046D01*
X130250762Y-126838332D01*
X130185786Y-126811498D01*
X130116224Y-126811571D01*
X130048000Y-126798000D01*
X122122000Y-126798000D01*
X122122000Y-125137993D01*
X122541327Y-125558052D01*
X123474546Y-125945559D01*
X124485021Y-125946440D01*
X125418915Y-125560563D01*
X126134052Y-124846673D01*
X126521559Y-123913454D01*
X126521562Y-123909021D01*
X156941560Y-123909021D01*
X157327437Y-124842915D01*
X158041327Y-125558052D01*
X158974546Y-125945559D01*
X159985021Y-125946440D01*
X160918915Y-125560563D01*
X161634052Y-124846673D01*
X162021559Y-123913454D01*
X162022440Y-122902979D01*
X161636563Y-121969085D01*
X160922673Y-121253948D01*
X159989454Y-120866441D01*
X158978979Y-120865560D01*
X158045085Y-121251437D01*
X157329948Y-121965327D01*
X156942441Y-122898546D01*
X156941560Y-123909021D01*
X126521562Y-123909021D01*
X126522440Y-122902979D01*
X126136563Y-121969085D01*
X125782097Y-121614000D01*
X142748000Y-121614000D01*
X143019705Y-121559954D01*
X143250046Y-121406046D01*
X143403954Y-121175705D01*
X143458000Y-120904000D01*
X143458000Y-90652661D01*
X167258758Y-90652661D01*
X167470990Y-91166303D01*
X167863630Y-91559629D01*
X168376900Y-91772757D01*
X168932661Y-91773242D01*
X169446303Y-91561010D01*
X169839629Y-91168370D01*
X170052757Y-90655100D01*
X170053242Y-90099339D01*
X169841010Y-89585697D01*
X169448370Y-89192371D01*
X169182273Y-89081878D01*
X168656000Y-88555605D01*
X168129698Y-89081907D01*
X167865697Y-89190990D01*
X167472371Y-89583630D01*
X167259243Y-90096900D01*
X167258758Y-90652661D01*
X143458000Y-90652661D01*
X143458000Y-88900000D01*
X143403954Y-88628295D01*
X143250046Y-88397954D01*
X143019705Y-88244046D01*
X142748000Y-88190000D01*
X122122000Y-88190000D01*
X122122000Y-88168302D01*
X167246856Y-88168302D01*
X167274638Y-88723368D01*
X167433603Y-89107143D01*
X167675787Y-89176608D01*
X168476395Y-88376000D01*
X168835605Y-88376000D01*
X169636213Y-89176608D01*
X169878397Y-89107143D01*
X170065144Y-88583698D01*
X170037362Y-88028632D01*
X169878397Y-87644857D01*
X169636213Y-87575392D01*
X168835605Y-88376000D01*
X168476395Y-88376000D01*
X167675787Y-87575392D01*
X167433603Y-87644857D01*
X167246856Y-88168302D01*
X122122000Y-88168302D01*
X122122000Y-84211117D01*
X122402900Y-84327757D01*
X122958661Y-84328242D01*
X123472303Y-84116010D01*
X123865629Y-83723370D01*
X123951949Y-83515488D01*
X124036990Y-83721303D01*
X124429630Y-84114629D01*
X124942900Y-84327757D01*
X125498661Y-84328242D01*
X126012303Y-84116010D01*
X126405629Y-83723370D01*
X126491949Y-83515488D01*
X126576990Y-83721303D01*
X126969630Y-84114629D01*
X127482900Y-84327757D01*
X128038661Y-84328242D01*
X128552303Y-84116010D01*
X128945629Y-83723370D01*
X129031949Y-83515488D01*
X129116990Y-83721303D01*
X129509630Y-84114629D01*
X130022900Y-84327757D01*
X130578661Y-84328242D01*
X131092303Y-84116010D01*
X131485629Y-83723370D01*
X131571949Y-83515488D01*
X131656990Y-83721303D01*
X132049630Y-84114629D01*
X132562900Y-84327757D01*
X133118661Y-84328242D01*
X133632303Y-84116010D01*
X134025629Y-83723370D01*
X134111949Y-83515488D01*
X134196990Y-83721303D01*
X134589630Y-84114629D01*
X135102900Y-84327757D01*
X135658661Y-84328242D01*
X136172303Y-84116010D01*
X136565629Y-83723370D01*
X136651949Y-83515488D01*
X136736990Y-83721303D01*
X137129630Y-84114629D01*
X137642900Y-84327757D01*
X138198661Y-84328242D01*
X138712303Y-84116010D01*
X139105629Y-83723370D01*
X139191949Y-83515488D01*
X139276990Y-83721303D01*
X139669630Y-84114629D01*
X140182900Y-84327757D01*
X140738661Y-84328242D01*
X141252303Y-84116010D01*
X141645629Y-83723370D01*
X141731949Y-83515488D01*
X141816990Y-83721303D01*
X142209630Y-84114629D01*
X142722900Y-84327757D01*
X143278661Y-84328242D01*
X143792303Y-84116010D01*
X144185629Y-83723370D01*
X144271949Y-83515488D01*
X144356990Y-83721303D01*
X144749630Y-84114629D01*
X145262900Y-84327757D01*
X145818661Y-84328242D01*
X146332303Y-84116010D01*
X146725629Y-83723370D01*
X146811949Y-83515488D01*
X146896990Y-83721303D01*
X147289630Y-84114629D01*
X147802900Y-84327757D01*
X148358661Y-84328242D01*
X148872303Y-84116010D01*
X149265629Y-83723370D01*
X149351949Y-83515488D01*
X149436990Y-83721303D01*
X149829630Y-84114629D01*
X150342900Y-84327757D01*
X150898661Y-84328242D01*
X151412303Y-84116010D01*
X151617457Y-83911213D01*
X152361392Y-83911213D01*
X152430857Y-84153397D01*
X152954302Y-84340144D01*
X153509368Y-84312362D01*
X153893143Y-84153397D01*
X153962608Y-83911213D01*
X153162000Y-83110605D01*
X152361392Y-83911213D01*
X151617457Y-83911213D01*
X151805629Y-83723370D01*
X151885395Y-83531273D01*
X151939603Y-83662143D01*
X152181787Y-83731608D01*
X152982395Y-82931000D01*
X152968253Y-82916858D01*
X153147858Y-82737253D01*
X153162000Y-82751395D01*
X153176143Y-82737253D01*
X153355748Y-82916858D01*
X153341605Y-82931000D01*
X154142213Y-83731608D01*
X154384397Y-83662143D01*
X154434509Y-83521682D01*
X154516990Y-83721303D01*
X154909630Y-84114629D01*
X155422900Y-84327757D01*
X155978661Y-84328242D01*
X156492303Y-84116010D01*
X156697457Y-83911213D01*
X157441392Y-83911213D01*
X157510857Y-84153397D01*
X158034302Y-84340144D01*
X158589368Y-84312362D01*
X158973143Y-84153397D01*
X159042608Y-83911213D01*
X158242000Y-83110605D01*
X157441392Y-83911213D01*
X156697457Y-83911213D01*
X156885629Y-83723370D01*
X156965395Y-83531273D01*
X157019603Y-83662143D01*
X157261787Y-83731608D01*
X158062395Y-82931000D01*
X157261787Y-82130392D01*
X157019603Y-82199857D01*
X156969491Y-82340318D01*
X156887010Y-82140697D01*
X156683086Y-81936416D01*
X157031719Y-81587783D01*
X157062000Y-81600357D01*
X157617761Y-81600842D01*
X158050129Y-81422191D01*
X158164089Y-81536151D01*
X157894632Y-81549638D01*
X157510857Y-81708603D01*
X157441392Y-81950787D01*
X158242000Y-82751395D01*
X158256143Y-82737253D01*
X158435748Y-82916858D01*
X158421605Y-82931000D01*
X159222213Y-83731608D01*
X159464397Y-83662143D01*
X159514509Y-83521682D01*
X159596990Y-83721303D01*
X159989630Y-84114629D01*
X160502900Y-84327757D01*
X161058661Y-84328242D01*
X161572303Y-84116010D01*
X161965629Y-83723370D01*
X162178757Y-83210100D01*
X162179242Y-82654339D01*
X161967010Y-82140697D01*
X161877071Y-82050601D01*
X163255799Y-82050601D01*
X167271817Y-86066619D01*
X167259243Y-86096900D01*
X167258758Y-86652661D01*
X167470990Y-87166303D01*
X167863630Y-87559629D01*
X168129727Y-87670122D01*
X168656000Y-88196395D01*
X169182302Y-87670093D01*
X169446303Y-87561010D01*
X169839629Y-87168370D01*
X170052757Y-86655100D01*
X170053242Y-86099339D01*
X169841010Y-85585697D01*
X169631658Y-85375979D01*
X169839629Y-85168370D01*
X170052757Y-84655100D01*
X170053242Y-84099339D01*
X169841010Y-83585697D01*
X169448370Y-83192371D01*
X168935100Y-82979243D01*
X168379339Y-82978758D01*
X167865697Y-83190990D01*
X167472371Y-83583630D01*
X167315711Y-83960909D01*
X164955398Y-81600596D01*
X165237761Y-81600842D01*
X165751403Y-81388610D01*
X166144729Y-80995970D01*
X166231049Y-80788088D01*
X166316090Y-80993903D01*
X166708730Y-81387229D01*
X167222000Y-81600357D01*
X167777761Y-81600842D01*
X168291403Y-81388610D01*
X168684729Y-80995970D01*
X168897857Y-80482700D01*
X168898342Y-79926939D01*
X168686110Y-79413297D01*
X168293470Y-79019971D01*
X168105695Y-78942000D01*
X170994000Y-78942000D01*
X170994000Y-129338000D01*
M02*
